M48
;GenerationSoftware,Autodesk,EAGLE,8.6.0*%
;CreationDate,2018-11-01T12:35:15Z*%
FMAT,2
ICI,OFF
METRIC,TZ,000.000
T9C0.350
T8C0.650
T7C0.711
T6C0.813
T5C1.000
T4C1.020
T3C2.921
T2C2.946
T1C3.000
%
G90
M71
T1
X38290Y46990
X42990Y46990
T2
X4826Y19812
T3
X52959Y45212
T4
X45140Y39670
X36140Y39670
X45140Y42670
X36140Y42670
X42140Y39670
X42140Y42670
X39140Y42670
X39140Y39670
T5
X15240Y45164
X10440Y42164
X15240Y39064
T6
X52070Y29210
X52070Y39370
X9906Y32385
X8001Y31115
X9906Y29845
X32512Y29591
X32512Y27051
X28702Y30099
X40132Y29591
X18542Y26670
X28702Y26670
X40132Y27051
X27813Y40132
X25273Y40132
X25273Y37592
X28702Y33147
X18542Y33147
X18542Y30099
X49530Y24130
X52070Y24130
T7
X9906Y25908
X9906Y24130
T8
X30607Y17780
X26645Y17780
X22682Y17780
X38532Y17780
X34569Y17780
X19050Y17780
T9
X48387Y37338
X40626Y37338
M30