G04 EAGLE Gerber X2 export*
%TF.Part,Single*%
%TF.FileFunction,Legend,Top,1*%
%TF.FilePolarity,Positive*%
%TF.GenerationSoftware,Autodesk,EAGLE,8.6.0*%
%TF.CreationDate,2018-11-01T12:35:15Z*%
G75*
%MOMM*%
%FSLAX34Y34*%
%LPD*%
%AMOC8*
5,1,8,0,0,1.08239X$1,22.5*%
G01*
%ADD10C,0.152400*%
%ADD11C,0.127000*%
%ADD12C,0.203200*%
%ADD13C,0.101600*%
%ADD14R,0.863600X0.609600*%
%ADD15C,0.254000*%
%ADD16C,0.050800*%
%ADD17R,0.609600X0.863600*%


D10*
X113030Y260350D02*
X113030Y255270D01*
X110490Y257810D02*
X115570Y257810D01*
X78740Y250190D02*
X78746Y250689D01*
X78764Y251187D01*
X78795Y251685D01*
X78838Y252182D01*
X78893Y252677D01*
X78960Y253172D01*
X79039Y253664D01*
X79130Y254154D01*
X79234Y254642D01*
X79349Y255127D01*
X79476Y255610D01*
X79615Y256089D01*
X79766Y256564D01*
X79928Y257036D01*
X80102Y257503D01*
X80287Y257966D01*
X80483Y258425D01*
X80691Y258878D01*
X80910Y259326D01*
X81139Y259769D01*
X81380Y260206D01*
X81631Y260637D01*
X81893Y261061D01*
X82165Y261479D01*
X82447Y261890D01*
X82739Y262295D01*
X83041Y262692D01*
X83352Y263081D01*
X83674Y263462D01*
X84004Y263836D01*
X84343Y264201D01*
X84692Y264558D01*
X85049Y264907D01*
X85414Y265246D01*
X85788Y265576D01*
X86169Y265898D01*
X86558Y266209D01*
X86955Y266511D01*
X87360Y266803D01*
X87771Y267085D01*
X88189Y267357D01*
X88613Y267619D01*
X89044Y267870D01*
X89481Y268111D01*
X89924Y268340D01*
X90372Y268559D01*
X90825Y268767D01*
X91284Y268963D01*
X91747Y269148D01*
X92214Y269322D01*
X92686Y269484D01*
X93161Y269635D01*
X93640Y269774D01*
X94123Y269901D01*
X94608Y270016D01*
X95096Y270120D01*
X95586Y270211D01*
X96078Y270290D01*
X96573Y270357D01*
X97068Y270412D01*
X97565Y270455D01*
X98063Y270486D01*
X98561Y270504D01*
X99060Y270510D01*
X99559Y270504D01*
X100057Y270486D01*
X100555Y270455D01*
X101052Y270412D01*
X101547Y270357D01*
X102042Y270290D01*
X102534Y270211D01*
X103024Y270120D01*
X103512Y270016D01*
X103997Y269901D01*
X104480Y269774D01*
X104959Y269635D01*
X105434Y269484D01*
X105906Y269322D01*
X106373Y269148D01*
X106836Y268963D01*
X107295Y268767D01*
X107748Y268559D01*
X108196Y268340D01*
X108639Y268111D01*
X109076Y267870D01*
X109507Y267619D01*
X109931Y267357D01*
X110349Y267085D01*
X110760Y266803D01*
X111165Y266511D01*
X111562Y266209D01*
X111951Y265898D01*
X112332Y265576D01*
X112706Y265246D01*
X113071Y264907D01*
X113428Y264558D01*
X113777Y264201D01*
X114116Y263836D01*
X114446Y263462D01*
X114768Y263081D01*
X115079Y262692D01*
X115381Y262295D01*
X115673Y261890D01*
X115955Y261479D01*
X116227Y261061D01*
X116489Y260637D01*
X116740Y260206D01*
X116981Y259769D01*
X117210Y259326D01*
X117429Y258878D01*
X117637Y258425D01*
X117833Y257966D01*
X118018Y257503D01*
X118192Y257036D01*
X118354Y256564D01*
X118505Y256089D01*
X118644Y255610D01*
X118771Y255127D01*
X118886Y254642D01*
X118990Y254154D01*
X119081Y253664D01*
X119160Y253172D01*
X119227Y252677D01*
X119282Y252182D01*
X119325Y251685D01*
X119356Y251187D01*
X119374Y250689D01*
X119380Y250190D01*
X119374Y249691D01*
X119356Y249193D01*
X119325Y248695D01*
X119282Y248198D01*
X119227Y247703D01*
X119160Y247208D01*
X119081Y246716D01*
X118990Y246226D01*
X118886Y245738D01*
X118771Y245253D01*
X118644Y244770D01*
X118505Y244291D01*
X118354Y243816D01*
X118192Y243344D01*
X118018Y242877D01*
X117833Y242414D01*
X117637Y241955D01*
X117429Y241502D01*
X117210Y241054D01*
X116981Y240611D01*
X116740Y240174D01*
X116489Y239743D01*
X116227Y239319D01*
X115955Y238901D01*
X115673Y238490D01*
X115381Y238085D01*
X115079Y237688D01*
X114768Y237299D01*
X114446Y236918D01*
X114116Y236544D01*
X113777Y236179D01*
X113428Y235822D01*
X113071Y235473D01*
X112706Y235134D01*
X112332Y234804D01*
X111951Y234482D01*
X111562Y234171D01*
X111165Y233869D01*
X110760Y233577D01*
X110349Y233295D01*
X109931Y233023D01*
X109507Y232761D01*
X109076Y232510D01*
X108639Y232269D01*
X108196Y232040D01*
X107748Y231821D01*
X107295Y231613D01*
X106836Y231417D01*
X106373Y231232D01*
X105906Y231058D01*
X105434Y230896D01*
X104959Y230745D01*
X104480Y230606D01*
X103997Y230479D01*
X103512Y230364D01*
X103024Y230260D01*
X102534Y230169D01*
X102042Y230090D01*
X101547Y230023D01*
X101052Y229968D01*
X100555Y229925D01*
X100057Y229894D01*
X99559Y229876D01*
X99060Y229870D01*
X98561Y229876D01*
X98063Y229894D01*
X97565Y229925D01*
X97068Y229968D01*
X96573Y230023D01*
X96078Y230090D01*
X95586Y230169D01*
X95096Y230260D01*
X94608Y230364D01*
X94123Y230479D01*
X93640Y230606D01*
X93161Y230745D01*
X92686Y230896D01*
X92214Y231058D01*
X91747Y231232D01*
X91284Y231417D01*
X90825Y231613D01*
X90372Y231821D01*
X89924Y232040D01*
X89481Y232269D01*
X89044Y232510D01*
X88613Y232761D01*
X88189Y233023D01*
X87771Y233295D01*
X87360Y233577D01*
X86955Y233869D01*
X86558Y234171D01*
X86169Y234482D01*
X85788Y234804D01*
X85414Y235134D01*
X85049Y235473D01*
X84692Y235822D01*
X84343Y236179D01*
X84004Y236544D01*
X83674Y236918D01*
X83352Y237299D01*
X83041Y237688D01*
X82739Y238085D01*
X82447Y238490D01*
X82165Y238901D01*
X81893Y239319D01*
X81631Y239743D01*
X81380Y240174D01*
X81139Y240611D01*
X80910Y241054D01*
X80691Y241502D01*
X80483Y241955D01*
X80287Y242414D01*
X80102Y242877D01*
X79928Y243344D01*
X79766Y243816D01*
X79615Y244291D01*
X79476Y244770D01*
X79349Y245253D01*
X79234Y245738D01*
X79130Y246226D01*
X79039Y246716D01*
X78960Y247208D01*
X78893Y247703D01*
X78838Y248198D01*
X78795Y248695D01*
X78764Y249193D01*
X78746Y249691D01*
X78740Y250190D01*
D11*
X123825Y224155D02*
X126365Y224155D01*
X123825Y224155D02*
X123725Y224157D01*
X123626Y224163D01*
X123526Y224173D01*
X123428Y224186D01*
X123329Y224204D01*
X123232Y224225D01*
X123136Y224250D01*
X123040Y224279D01*
X122946Y224312D01*
X122853Y224348D01*
X122762Y224388D01*
X122672Y224432D01*
X122584Y224479D01*
X122498Y224529D01*
X122414Y224583D01*
X122332Y224640D01*
X122253Y224700D01*
X122175Y224764D01*
X122101Y224830D01*
X122029Y224899D01*
X121960Y224971D01*
X121894Y225045D01*
X121830Y225123D01*
X121770Y225202D01*
X121713Y225284D01*
X121659Y225368D01*
X121609Y225454D01*
X121562Y225542D01*
X121518Y225632D01*
X121478Y225723D01*
X121442Y225816D01*
X121409Y225910D01*
X121380Y226006D01*
X121355Y226102D01*
X121334Y226199D01*
X121316Y226298D01*
X121303Y226396D01*
X121293Y226496D01*
X121287Y226595D01*
X121285Y226695D01*
X121285Y233045D01*
X121287Y233145D01*
X121293Y233244D01*
X121303Y233344D01*
X121316Y233442D01*
X121334Y233541D01*
X121355Y233638D01*
X121380Y233734D01*
X121409Y233830D01*
X121442Y233924D01*
X121478Y234017D01*
X121518Y234108D01*
X121562Y234198D01*
X121609Y234286D01*
X121659Y234372D01*
X121713Y234456D01*
X121770Y234538D01*
X121830Y234617D01*
X121894Y234695D01*
X121960Y234769D01*
X122029Y234841D01*
X122101Y234910D01*
X122175Y234976D01*
X122253Y235040D01*
X122332Y235100D01*
X122414Y235157D01*
X122498Y235211D01*
X122584Y235261D01*
X122672Y235308D01*
X122762Y235352D01*
X122853Y235392D01*
X122946Y235428D01*
X123040Y235461D01*
X123136Y235490D01*
X123232Y235515D01*
X123329Y235536D01*
X123428Y235554D01*
X123526Y235567D01*
X123626Y235577D01*
X123725Y235583D01*
X123825Y235585D01*
X126365Y235585D01*
X130847Y233045D02*
X134022Y235585D01*
X134022Y224155D01*
X130847Y224155D02*
X137197Y224155D01*
X115570Y290204D02*
X115066Y289817D01*
X114553Y289441D01*
X114031Y289078D01*
X113501Y288727D01*
X112963Y288390D01*
X112416Y288065D01*
X111862Y287753D01*
X111301Y287454D01*
X110732Y287169D01*
X110157Y286898D01*
X109576Y286640D01*
X108989Y286397D01*
X108396Y286167D01*
X107798Y285952D01*
X107195Y285751D01*
X106587Y285564D01*
X105975Y285392D01*
X105359Y285234D01*
X104739Y285092D01*
X104117Y284964D01*
X103491Y284851D01*
X102863Y284752D01*
X102233Y284669D01*
X101600Y284601D01*
X100951Y284547D01*
X100302Y284509D01*
X99651Y284487D01*
X99000Y284480D01*
X98349Y284489D01*
X97699Y284515D01*
X97049Y284556D01*
X96401Y284613D01*
X95754Y284686D01*
X95109Y284774D01*
X94466Y284879D01*
X93826Y284999D01*
X93190Y285134D01*
X92556Y285285D01*
X91927Y285452D01*
X91302Y285633D01*
X90681Y285830D01*
X90066Y286042D01*
X89456Y286269D01*
X88851Y286511D01*
X88253Y286768D01*
X87661Y287039D01*
X87076Y287324D01*
X86498Y287624D01*
X85928Y287937D01*
X85365Y288265D01*
X84811Y288606D01*
X84265Y288960D01*
X83728Y289328D01*
X83199Y289709D01*
X82681Y290102D01*
X82172Y290508D01*
X81673Y290926D01*
X81185Y291357D01*
X80707Y291799D01*
X80240Y292253D01*
X79785Y292718D01*
X79341Y293194D01*
X78908Y293680D01*
X78488Y294177D01*
X78080Y294684D01*
X77684Y295201D01*
X77301Y295728D01*
X76931Y296264D01*
X76574Y296808D01*
X76231Y297361D01*
X75901Y297922D01*
X75585Y298492D01*
X75283Y299068D01*
X74996Y299652D01*
X74722Y300243D01*
X74463Y300840D01*
X74219Y301444D01*
X73989Y302053D01*
X73775Y302667D01*
X73575Y303287D01*
X73575Y319013D02*
X73774Y319628D01*
X73986Y320239D01*
X74214Y320844D01*
X74456Y321443D01*
X74713Y322036D01*
X74984Y322623D01*
X75269Y323203D01*
X75568Y323776D01*
X75881Y324342D01*
X76208Y324900D01*
X76548Y325450D01*
X76901Y325991D01*
X77267Y326524D01*
X77646Y327047D01*
X78038Y327562D01*
X78442Y328066D01*
X78858Y328561D01*
X79285Y329046D01*
X79725Y329520D01*
X80176Y329983D01*
X80638Y330435D01*
X81111Y330876D01*
X81594Y331305D01*
X82088Y331722D01*
X82591Y332128D01*
X83104Y332521D01*
X83627Y332901D01*
X84159Y333269D01*
X84699Y333623D01*
X85248Y333965D01*
X85805Y334293D01*
X86370Y334607D01*
X86942Y334908D01*
X87521Y335195D01*
X88108Y335467D01*
X88700Y335726D01*
X89299Y335970D01*
X89903Y336199D01*
X90513Y336413D01*
X91128Y336613D01*
X91747Y336798D01*
X92371Y336968D01*
X92999Y337122D01*
X93630Y337261D01*
X94264Y337385D01*
X94901Y337494D01*
X95541Y337587D01*
X96183Y337664D01*
X96826Y337726D01*
X97471Y337773D01*
X98117Y337803D01*
X98763Y337818D01*
X99409Y337818D01*
X100056Y337801D01*
X100701Y337769D01*
X101346Y337722D01*
X101989Y337659D01*
X102631Y337580D01*
X103270Y337486D01*
X103907Y337376D01*
X104542Y337251D01*
X105173Y337110D01*
X105800Y336954D01*
X106423Y336783D01*
X107042Y336597D01*
X107657Y336396D01*
X108266Y336181D01*
X108870Y335950D01*
X109468Y335705D01*
X110060Y335446D01*
X110646Y335172D01*
X111225Y334884D01*
X111796Y334582D01*
X112360Y334267D01*
X112917Y333938D01*
X113465Y333595D01*
X114005Y333239D01*
X114536Y332871D01*
X115058Y332489D01*
X115570Y332095D01*
X115570Y290205D01*
X101600Y288613D02*
X101600Y284601D01*
X101600Y308287D02*
X101600Y314013D01*
X101600Y333687D02*
X101600Y337699D01*
X124841Y295275D02*
X124841Y283845D01*
X123571Y283845D02*
X126111Y283845D01*
X126111Y295275D02*
X123571Y295275D01*
X133313Y283845D02*
X135853Y283845D01*
X133313Y283845D02*
X133213Y283847D01*
X133114Y283853D01*
X133014Y283863D01*
X132916Y283876D01*
X132817Y283894D01*
X132720Y283915D01*
X132624Y283940D01*
X132528Y283969D01*
X132434Y284002D01*
X132341Y284038D01*
X132250Y284078D01*
X132160Y284122D01*
X132072Y284169D01*
X131986Y284219D01*
X131902Y284273D01*
X131820Y284330D01*
X131741Y284390D01*
X131663Y284454D01*
X131589Y284520D01*
X131517Y284589D01*
X131448Y284661D01*
X131382Y284735D01*
X131318Y284813D01*
X131258Y284892D01*
X131201Y284974D01*
X131147Y285058D01*
X131097Y285144D01*
X131050Y285232D01*
X131006Y285322D01*
X130966Y285413D01*
X130930Y285506D01*
X130897Y285600D01*
X130868Y285696D01*
X130843Y285792D01*
X130822Y285889D01*
X130804Y285988D01*
X130791Y286086D01*
X130781Y286186D01*
X130775Y286285D01*
X130773Y286385D01*
X130773Y292735D01*
X130775Y292835D01*
X130781Y292934D01*
X130791Y293034D01*
X130804Y293132D01*
X130822Y293231D01*
X130843Y293328D01*
X130868Y293424D01*
X130897Y293520D01*
X130930Y293614D01*
X130966Y293707D01*
X131006Y293798D01*
X131050Y293888D01*
X131097Y293976D01*
X131147Y294062D01*
X131201Y294146D01*
X131258Y294228D01*
X131318Y294307D01*
X131382Y294385D01*
X131448Y294459D01*
X131517Y294531D01*
X131589Y294600D01*
X131663Y294666D01*
X131741Y294730D01*
X131820Y294790D01*
X131902Y294847D01*
X131986Y294901D01*
X132072Y294951D01*
X132160Y294998D01*
X132250Y295042D01*
X132341Y295082D01*
X132434Y295118D01*
X132528Y295151D01*
X132624Y295180D01*
X132720Y295205D01*
X132817Y295226D01*
X132916Y295244D01*
X133014Y295257D01*
X133114Y295267D01*
X133213Y295273D01*
X133313Y295275D01*
X135853Y295275D01*
X140335Y292735D02*
X143510Y295275D01*
X143510Y283845D01*
X140335Y283845D02*
X146685Y283845D01*
D12*
X109400Y525640D02*
X195400Y525640D01*
X195400Y382640D01*
X179400Y382640D01*
X125400Y382640D02*
X109400Y382640D01*
X109400Y446140D02*
X109400Y525640D01*
X109400Y398640D02*
X109400Y382640D01*
D13*
X178228Y370332D02*
X178228Y361244D01*
X178227Y361244D02*
X178225Y361145D01*
X178219Y361045D01*
X178210Y360946D01*
X178197Y360848D01*
X178180Y360750D01*
X178159Y360652D01*
X178134Y360556D01*
X178106Y360461D01*
X178074Y360367D01*
X178039Y360274D01*
X178000Y360182D01*
X177957Y360092D01*
X177912Y360004D01*
X177862Y359917D01*
X177810Y359833D01*
X177754Y359750D01*
X177696Y359670D01*
X177634Y359592D01*
X177569Y359517D01*
X177501Y359444D01*
X177431Y359374D01*
X177358Y359306D01*
X177283Y359241D01*
X177205Y359179D01*
X177125Y359121D01*
X177042Y359065D01*
X176958Y359013D01*
X176871Y358963D01*
X176783Y358918D01*
X176693Y358875D01*
X176601Y358836D01*
X176508Y358801D01*
X176414Y358769D01*
X176319Y358741D01*
X176223Y358716D01*
X176125Y358695D01*
X176027Y358678D01*
X175929Y358665D01*
X175830Y358656D01*
X175730Y358650D01*
X175631Y358648D01*
X174333Y358648D01*
X183501Y367736D02*
X186746Y370332D01*
X186746Y358648D01*
X183501Y358648D02*
X189992Y358648D01*
D11*
X148590Y0D02*
X422910Y0D01*
X422910Y81280D01*
X148590Y81280D02*
X148590Y0D01*
X148590Y81280D02*
X146050Y81280D01*
X422910Y81280D02*
X425450Y81280D01*
D13*
X162504Y88392D02*
X159258Y85796D01*
X162504Y88392D02*
X162504Y76708D01*
X165749Y76708D02*
X159258Y76708D01*
X197358Y112268D02*
X197358Y123952D01*
X200604Y123952D01*
X200717Y123950D01*
X200830Y123944D01*
X200943Y123934D01*
X201056Y123920D01*
X201168Y123903D01*
X201279Y123881D01*
X201389Y123856D01*
X201499Y123826D01*
X201607Y123793D01*
X201714Y123756D01*
X201820Y123716D01*
X201924Y123671D01*
X202027Y123623D01*
X202128Y123572D01*
X202227Y123517D01*
X202324Y123459D01*
X202419Y123397D01*
X202512Y123332D01*
X202602Y123264D01*
X202690Y123193D01*
X202776Y123118D01*
X202859Y123041D01*
X202939Y122961D01*
X203016Y122878D01*
X203091Y122792D01*
X203162Y122704D01*
X203230Y122614D01*
X203295Y122521D01*
X203357Y122426D01*
X203415Y122329D01*
X203470Y122230D01*
X203521Y122129D01*
X203569Y122026D01*
X203614Y121922D01*
X203654Y121816D01*
X203691Y121709D01*
X203724Y121601D01*
X203754Y121491D01*
X203779Y121381D01*
X203801Y121270D01*
X203818Y121158D01*
X203832Y121045D01*
X203842Y120932D01*
X203848Y120819D01*
X203850Y120706D01*
X203848Y120593D01*
X203842Y120480D01*
X203832Y120367D01*
X203818Y120254D01*
X203801Y120142D01*
X203779Y120031D01*
X203754Y119921D01*
X203724Y119811D01*
X203691Y119703D01*
X203654Y119596D01*
X203614Y119490D01*
X203569Y119386D01*
X203521Y119283D01*
X203470Y119182D01*
X203415Y119083D01*
X203357Y118986D01*
X203295Y118891D01*
X203230Y118798D01*
X203162Y118708D01*
X203091Y118620D01*
X203016Y118534D01*
X202939Y118451D01*
X202859Y118371D01*
X202776Y118294D01*
X202690Y118219D01*
X202602Y118148D01*
X202512Y118080D01*
X202419Y118015D01*
X202324Y117953D01*
X202227Y117895D01*
X202128Y117840D01*
X202027Y117789D01*
X201924Y117741D01*
X201820Y117696D01*
X201714Y117656D01*
X201607Y117619D01*
X201499Y117586D01*
X201389Y117556D01*
X201279Y117531D01*
X201168Y117509D01*
X201056Y117492D01*
X200943Y117478D01*
X200830Y117468D01*
X200717Y117462D01*
X200604Y117460D01*
X200604Y117461D02*
X197358Y117461D01*
X208238Y121356D02*
X211483Y123952D01*
X211483Y112268D01*
X208238Y112268D02*
X214729Y112268D01*
D10*
X392430Y257810D02*
X392430Y308610D01*
X334010Y308610D02*
X334010Y257810D01*
X392430Y257810D01*
X392430Y308610D02*
X373380Y308610D01*
X353060Y308610D02*
X334010Y308610D01*
X353060Y308610D02*
X353063Y308363D01*
X353072Y308115D01*
X353087Y307868D01*
X353108Y307622D01*
X353135Y307376D01*
X353168Y307131D01*
X353207Y306886D01*
X353252Y306643D01*
X353303Y306401D01*
X353360Y306160D01*
X353422Y305921D01*
X353491Y305683D01*
X353565Y305447D01*
X353645Y305213D01*
X353730Y304981D01*
X353822Y304751D01*
X353918Y304523D01*
X354021Y304298D01*
X354128Y304075D01*
X354242Y303855D01*
X354360Y303638D01*
X354484Y303423D01*
X354613Y303212D01*
X354747Y303004D01*
X354886Y302799D01*
X355030Y302598D01*
X355178Y302400D01*
X355332Y302206D01*
X355490Y302016D01*
X355653Y301830D01*
X355820Y301648D01*
X355992Y301470D01*
X356168Y301296D01*
X356348Y301126D01*
X356533Y300961D01*
X356721Y300801D01*
X356913Y300645D01*
X357109Y300493D01*
X357308Y300347D01*
X357511Y300205D01*
X357718Y300069D01*
X357927Y299937D01*
X358140Y299811D01*
X358356Y299690D01*
X358574Y299574D01*
X358796Y299464D01*
X359020Y299359D01*
X359246Y299259D01*
X359475Y299165D01*
X359706Y299077D01*
X359940Y298994D01*
X360175Y298917D01*
X360412Y298846D01*
X360650Y298780D01*
X360890Y298721D01*
X361132Y298667D01*
X361375Y298619D01*
X361618Y298577D01*
X361863Y298541D01*
X362109Y298511D01*
X362355Y298487D01*
X362602Y298469D01*
X362849Y298457D01*
X363096Y298451D01*
X363344Y298451D01*
X363591Y298457D01*
X363838Y298469D01*
X364085Y298487D01*
X364331Y298511D01*
X364577Y298541D01*
X364822Y298577D01*
X365065Y298619D01*
X365308Y298667D01*
X365550Y298721D01*
X365790Y298780D01*
X366028Y298846D01*
X366265Y298917D01*
X366500Y298994D01*
X366734Y299077D01*
X366965Y299165D01*
X367194Y299259D01*
X367420Y299359D01*
X367644Y299464D01*
X367866Y299574D01*
X368084Y299690D01*
X368300Y299811D01*
X368513Y299937D01*
X368722Y300069D01*
X368929Y300205D01*
X369132Y300347D01*
X369331Y300493D01*
X369527Y300645D01*
X369719Y300801D01*
X369907Y300961D01*
X370092Y301126D01*
X370272Y301296D01*
X370448Y301470D01*
X370620Y301648D01*
X370787Y301830D01*
X370950Y302016D01*
X371108Y302206D01*
X371262Y302400D01*
X371410Y302598D01*
X371554Y302799D01*
X371693Y303004D01*
X371827Y303212D01*
X371956Y303423D01*
X372080Y303638D01*
X372198Y303855D01*
X372312Y304075D01*
X372419Y304298D01*
X372522Y304523D01*
X372618Y304751D01*
X372710Y304981D01*
X372795Y305213D01*
X372875Y305447D01*
X372949Y305683D01*
X373018Y305921D01*
X373080Y306160D01*
X373137Y306401D01*
X373188Y306643D01*
X373233Y306886D01*
X373272Y307131D01*
X373305Y307376D01*
X373332Y307622D01*
X373353Y307868D01*
X373368Y308115D01*
X373377Y308363D01*
X373380Y308610D01*
D11*
X374015Y247650D02*
X374015Y242570D01*
X374015Y247650D02*
X374017Y247761D01*
X374023Y247871D01*
X374032Y247982D01*
X374046Y248092D01*
X374063Y248201D01*
X374084Y248310D01*
X374109Y248418D01*
X374138Y248525D01*
X374170Y248631D01*
X374206Y248736D01*
X374246Y248839D01*
X374289Y248941D01*
X374336Y249042D01*
X374387Y249141D01*
X374440Y249238D01*
X374497Y249332D01*
X374558Y249425D01*
X374621Y249516D01*
X374688Y249605D01*
X374758Y249691D01*
X374831Y249774D01*
X374906Y249856D01*
X374984Y249934D01*
X375066Y250009D01*
X375149Y250082D01*
X375235Y250152D01*
X375324Y250219D01*
X375415Y250282D01*
X375508Y250343D01*
X375603Y250400D01*
X375699Y250453D01*
X375798Y250504D01*
X375899Y250551D01*
X376001Y250594D01*
X376104Y250634D01*
X376209Y250670D01*
X376315Y250702D01*
X376422Y250731D01*
X376530Y250756D01*
X376639Y250777D01*
X376748Y250794D01*
X376858Y250808D01*
X376969Y250817D01*
X377079Y250823D01*
X377190Y250825D01*
X377301Y250823D01*
X377411Y250817D01*
X377522Y250808D01*
X377632Y250794D01*
X377741Y250777D01*
X377850Y250756D01*
X377958Y250731D01*
X378065Y250702D01*
X378171Y250670D01*
X378276Y250634D01*
X378379Y250594D01*
X378481Y250551D01*
X378582Y250504D01*
X378681Y250453D01*
X378778Y250400D01*
X378872Y250343D01*
X378965Y250282D01*
X379056Y250219D01*
X379145Y250152D01*
X379231Y250082D01*
X379314Y250009D01*
X379396Y249934D01*
X379474Y249856D01*
X379549Y249774D01*
X379622Y249691D01*
X379692Y249605D01*
X379759Y249516D01*
X379822Y249425D01*
X379883Y249332D01*
X379940Y249238D01*
X379993Y249141D01*
X380044Y249042D01*
X380091Y248941D01*
X380134Y248839D01*
X380174Y248736D01*
X380210Y248631D01*
X380242Y248525D01*
X380271Y248418D01*
X380296Y248310D01*
X380317Y248201D01*
X380334Y248092D01*
X380348Y247982D01*
X380357Y247871D01*
X380363Y247761D01*
X380365Y247650D01*
X380365Y242570D01*
X380363Y242459D01*
X380357Y242349D01*
X380348Y242238D01*
X380334Y242128D01*
X380317Y242019D01*
X380296Y241910D01*
X380271Y241802D01*
X380242Y241695D01*
X380210Y241589D01*
X380174Y241484D01*
X380134Y241381D01*
X380091Y241279D01*
X380044Y241178D01*
X379993Y241079D01*
X379940Y240982D01*
X379883Y240888D01*
X379822Y240795D01*
X379759Y240704D01*
X379692Y240615D01*
X379622Y240529D01*
X379549Y240446D01*
X379474Y240364D01*
X379396Y240286D01*
X379314Y240211D01*
X379231Y240138D01*
X379145Y240068D01*
X379056Y240001D01*
X378965Y239938D01*
X378872Y239877D01*
X378777Y239820D01*
X378681Y239767D01*
X378582Y239716D01*
X378481Y239669D01*
X378379Y239626D01*
X378276Y239586D01*
X378171Y239550D01*
X378065Y239518D01*
X377958Y239489D01*
X377850Y239464D01*
X377741Y239443D01*
X377632Y239426D01*
X377522Y239412D01*
X377411Y239403D01*
X377301Y239397D01*
X377190Y239395D01*
X377079Y239397D01*
X376969Y239403D01*
X376858Y239412D01*
X376748Y239426D01*
X376639Y239443D01*
X376530Y239464D01*
X376422Y239489D01*
X376315Y239518D01*
X376209Y239550D01*
X376104Y239586D01*
X376001Y239626D01*
X375899Y239669D01*
X375798Y239716D01*
X375699Y239767D01*
X375603Y239820D01*
X375508Y239877D01*
X375415Y239938D01*
X375324Y240001D01*
X375235Y240068D01*
X375149Y240138D01*
X375066Y240211D01*
X374984Y240286D01*
X374906Y240364D01*
X374831Y240446D01*
X374758Y240529D01*
X374688Y240615D01*
X374621Y240704D01*
X374558Y240795D01*
X374497Y240888D01*
X374440Y240983D01*
X374387Y241079D01*
X374336Y241178D01*
X374289Y241279D01*
X374246Y241381D01*
X374206Y241484D01*
X374170Y241589D01*
X374138Y241695D01*
X374109Y241802D01*
X374084Y241910D01*
X374063Y242019D01*
X374046Y242128D01*
X374032Y242238D01*
X374023Y242349D01*
X374017Y242459D01*
X374015Y242570D01*
X379095Y241935D02*
X381635Y239395D01*
X385076Y248285D02*
X388251Y250825D01*
X388251Y239395D01*
X385076Y239395D02*
X391426Y239395D01*
D10*
X207010Y278130D02*
X206910Y278128D01*
X206811Y278122D01*
X206711Y278112D01*
X206613Y278099D01*
X206514Y278081D01*
X206417Y278060D01*
X206321Y278035D01*
X206225Y278006D01*
X206131Y277973D01*
X206038Y277937D01*
X205947Y277897D01*
X205857Y277853D01*
X205769Y277806D01*
X205683Y277756D01*
X205599Y277702D01*
X205517Y277645D01*
X205438Y277585D01*
X205360Y277521D01*
X205286Y277455D01*
X205214Y277386D01*
X205145Y277314D01*
X205079Y277240D01*
X205015Y277162D01*
X204955Y277083D01*
X204898Y277001D01*
X204844Y276917D01*
X204794Y276831D01*
X204747Y276743D01*
X204703Y276653D01*
X204663Y276562D01*
X204627Y276469D01*
X204594Y276375D01*
X204565Y276279D01*
X204540Y276183D01*
X204519Y276086D01*
X204501Y275987D01*
X204488Y275889D01*
X204478Y275789D01*
X204472Y275690D01*
X204470Y275590D01*
X204470Y257810D02*
X204472Y257710D01*
X204478Y257611D01*
X204488Y257511D01*
X204501Y257413D01*
X204519Y257314D01*
X204540Y257217D01*
X204565Y257121D01*
X204594Y257025D01*
X204627Y256931D01*
X204663Y256838D01*
X204703Y256747D01*
X204747Y256657D01*
X204794Y256569D01*
X204844Y256483D01*
X204898Y256399D01*
X204955Y256317D01*
X205015Y256238D01*
X205079Y256160D01*
X205145Y256086D01*
X205214Y256014D01*
X205286Y255945D01*
X205360Y255879D01*
X205438Y255815D01*
X205517Y255755D01*
X205599Y255698D01*
X205683Y255644D01*
X205769Y255594D01*
X205857Y255547D01*
X205947Y255503D01*
X206038Y255463D01*
X206131Y255427D01*
X206225Y255394D01*
X206321Y255365D01*
X206417Y255340D01*
X206514Y255319D01*
X206613Y255301D01*
X206711Y255288D01*
X206811Y255278D01*
X206910Y255272D01*
X207010Y255270D01*
X265430Y255270D02*
X265530Y255272D01*
X265629Y255278D01*
X265729Y255288D01*
X265827Y255301D01*
X265926Y255319D01*
X266023Y255340D01*
X266119Y255365D01*
X266215Y255394D01*
X266309Y255427D01*
X266402Y255463D01*
X266493Y255503D01*
X266583Y255547D01*
X266671Y255594D01*
X266757Y255644D01*
X266841Y255698D01*
X266923Y255755D01*
X267002Y255815D01*
X267080Y255879D01*
X267154Y255945D01*
X267226Y256014D01*
X267295Y256086D01*
X267361Y256160D01*
X267425Y256238D01*
X267485Y256317D01*
X267542Y256399D01*
X267596Y256483D01*
X267646Y256569D01*
X267693Y256657D01*
X267737Y256747D01*
X267777Y256838D01*
X267813Y256931D01*
X267846Y257025D01*
X267875Y257121D01*
X267900Y257217D01*
X267921Y257314D01*
X267939Y257413D01*
X267952Y257511D01*
X267962Y257611D01*
X267968Y257710D01*
X267970Y257810D01*
X267970Y275590D02*
X267968Y275690D01*
X267962Y275789D01*
X267952Y275889D01*
X267939Y275987D01*
X267921Y276086D01*
X267900Y276183D01*
X267875Y276279D01*
X267846Y276375D01*
X267813Y276469D01*
X267777Y276562D01*
X267737Y276653D01*
X267693Y276743D01*
X267646Y276831D01*
X267596Y276917D01*
X267542Y277001D01*
X267485Y277083D01*
X267425Y277162D01*
X267361Y277240D01*
X267295Y277314D01*
X267226Y277386D01*
X267154Y277455D01*
X267080Y277521D01*
X267002Y277585D01*
X266923Y277645D01*
X266841Y277702D01*
X266757Y277756D01*
X266671Y277806D01*
X266583Y277853D01*
X266493Y277897D01*
X266402Y277937D01*
X266309Y277973D01*
X266215Y278006D01*
X266119Y278035D01*
X266023Y278060D01*
X265926Y278081D01*
X265827Y278099D01*
X265729Y278112D01*
X265629Y278122D01*
X265530Y278128D01*
X265430Y278130D01*
X204470Y275590D02*
X204470Y257810D01*
X207010Y278130D02*
X210820Y278130D01*
X212090Y276860D01*
X210820Y255270D02*
X207010Y255270D01*
X210820Y255270D02*
X212090Y256540D01*
X260350Y276860D02*
X261620Y278130D01*
X260350Y276860D02*
X212090Y276860D01*
X260350Y256540D02*
X261620Y255270D01*
X260350Y256540D02*
X212090Y256540D01*
X261620Y278130D02*
X265430Y278130D01*
X265430Y255270D02*
X261620Y255270D01*
X267970Y257810D02*
X267970Y275590D01*
D14*
X272288Y266700D03*
X200152Y266700D03*
D11*
X271145Y257175D02*
X271145Y245745D01*
X271145Y257175D02*
X274320Y257175D01*
X274431Y257173D01*
X274541Y257167D01*
X274652Y257158D01*
X274762Y257144D01*
X274871Y257127D01*
X274980Y257106D01*
X275088Y257081D01*
X275195Y257052D01*
X275301Y257020D01*
X275406Y256984D01*
X275509Y256944D01*
X275611Y256901D01*
X275712Y256854D01*
X275811Y256803D01*
X275908Y256750D01*
X276002Y256693D01*
X276095Y256632D01*
X276186Y256569D01*
X276275Y256502D01*
X276361Y256432D01*
X276444Y256359D01*
X276526Y256284D01*
X276604Y256206D01*
X276679Y256124D01*
X276752Y256041D01*
X276822Y255955D01*
X276889Y255866D01*
X276952Y255775D01*
X277013Y255682D01*
X277070Y255587D01*
X277123Y255491D01*
X277174Y255392D01*
X277221Y255291D01*
X277264Y255189D01*
X277304Y255086D01*
X277340Y254981D01*
X277372Y254875D01*
X277401Y254768D01*
X277426Y254660D01*
X277447Y254551D01*
X277464Y254442D01*
X277478Y254332D01*
X277487Y254221D01*
X277493Y254111D01*
X277495Y254000D01*
X277493Y253889D01*
X277487Y253779D01*
X277478Y253668D01*
X277464Y253558D01*
X277447Y253449D01*
X277426Y253340D01*
X277401Y253232D01*
X277372Y253125D01*
X277340Y253019D01*
X277304Y252914D01*
X277264Y252811D01*
X277221Y252709D01*
X277174Y252608D01*
X277123Y252509D01*
X277070Y252412D01*
X277013Y252318D01*
X276952Y252225D01*
X276889Y252134D01*
X276822Y252045D01*
X276752Y251959D01*
X276679Y251876D01*
X276604Y251794D01*
X276526Y251716D01*
X276444Y251641D01*
X276361Y251568D01*
X276275Y251498D01*
X276186Y251431D01*
X276095Y251368D01*
X276002Y251307D01*
X275908Y251250D01*
X275811Y251197D01*
X275712Y251146D01*
X275611Y251099D01*
X275509Y251056D01*
X275406Y251016D01*
X275301Y250980D01*
X275195Y250948D01*
X275088Y250919D01*
X274980Y250894D01*
X274871Y250873D01*
X274762Y250856D01*
X274652Y250842D01*
X274541Y250833D01*
X274431Y250827D01*
X274320Y250825D01*
X271145Y250825D01*
X274955Y250825D02*
X277495Y245745D01*
X282492Y254635D02*
X285667Y257175D01*
X285667Y245745D01*
X282492Y245745D02*
X288842Y245745D01*
D15*
X328150Y432800D02*
X328150Y493900D01*
X346400Y515900D02*
X466400Y515900D01*
X484650Y494900D02*
X484650Y432800D01*
D11*
X471400Y416800D02*
X454700Y416800D01*
D15*
X471400Y416800D02*
X487200Y416800D01*
X487200Y432800D01*
X484650Y432800D01*
D11*
X471400Y416800D02*
X454650Y416800D01*
D15*
X471400Y416800D02*
X341400Y416800D01*
X325600Y416800D01*
X325600Y432800D01*
X328150Y432800D01*
X471400Y434900D02*
X471400Y416800D01*
X471400Y434900D02*
X341400Y434900D01*
X341400Y416800D01*
X466400Y515900D02*
X484650Y494900D01*
X346400Y515900D02*
X328150Y493900D01*
X400400Y493900D02*
X412400Y493900D01*
X400400Y493900D02*
X400400Y499900D01*
X400400Y509900D01*
X412400Y509900D01*
X412400Y499900D01*
X412400Y493900D01*
X412400Y499900D02*
X400400Y499900D01*
D11*
X304800Y393700D02*
X304800Y383540D01*
D16*
X287700Y397909D02*
X287920Y397364D01*
X288126Y396814D01*
X288319Y396260D01*
X288498Y395700D01*
X288663Y395137D01*
X288815Y394569D01*
X288953Y393998D01*
X289077Y393424D01*
X289187Y392847D01*
X289283Y392268D01*
X289364Y391686D01*
X289432Y391102D01*
X289485Y390518D01*
X289524Y389931D01*
X289549Y389345D01*
X289560Y388757D01*
X289556Y388170D01*
X289538Y387583D01*
X289505Y386996D01*
X289459Y386411D01*
X289398Y385827D01*
X289323Y385244D01*
X289233Y384664D01*
X289130Y384085D01*
X289013Y383510D01*
X288881Y382937D01*
X288736Y382368D01*
X288577Y381803D01*
X288404Y381242D01*
X288218Y380685D01*
X288018Y380132D01*
X287805Y379585D01*
X287578Y379043D01*
X287339Y378507D01*
X287086Y377977D01*
X286820Y377453D01*
X286542Y376935D01*
X286252Y376425D01*
X285949Y375922D01*
X285634Y375426D01*
X285306Y374938D01*
X284968Y374458D01*
X284617Y373987D01*
X284255Y373524D01*
X283882Y373071D01*
X283498Y372626D01*
X283104Y372191D01*
X282699Y371766D01*
X282283Y371350D01*
X281858Y370945D01*
X281423Y370551D01*
X280978Y370167D01*
X280525Y369794D01*
X280062Y369432D01*
X279591Y369081D01*
X279111Y368743D01*
X278623Y368415D01*
X278127Y368100D01*
X277624Y367797D01*
X277114Y367507D01*
X276596Y367229D01*
X276072Y366963D01*
X275542Y366710D01*
X275006Y366471D01*
X274464Y366244D01*
X273917Y366031D01*
X273364Y365831D01*
X272807Y365645D01*
X272246Y365472D01*
X271681Y365313D01*
X271112Y365168D01*
X270539Y365036D01*
X269964Y364919D01*
X269385Y364816D01*
X268805Y364726D01*
X268222Y364651D01*
X267638Y364590D01*
X267053Y364544D01*
X266466Y364511D01*
X265879Y364493D01*
X265292Y364489D01*
X264704Y364500D01*
X264118Y364525D01*
X263531Y364564D01*
X262947Y364617D01*
X262363Y364685D01*
X261781Y364766D01*
X261202Y364862D01*
X260625Y364972D01*
X260051Y365096D01*
X259480Y365234D01*
X258912Y365386D01*
X258349Y365551D01*
X257789Y365730D01*
X257235Y365923D01*
X256685Y366129D01*
X256140Y366349D01*
D11*
X294195Y393700D02*
X304800Y393700D01*
D16*
X274719Y410890D02*
X274183Y411106D01*
X273642Y411310D01*
X273096Y411500D01*
X272546Y411677D01*
X271992Y411841D01*
X271434Y411991D01*
X270873Y412128D01*
X270308Y412252D01*
X269741Y412362D01*
X269171Y412458D01*
X268599Y412541D01*
X268026Y412610D01*
X267450Y412665D01*
X266874Y412707D01*
X266297Y412734D01*
X265719Y412748D01*
X265141Y412748D01*
X264563Y412734D01*
X263986Y412707D01*
X263410Y412665D01*
X262834Y412610D01*
X262261Y412541D01*
X261689Y412458D01*
X261119Y412362D01*
X260552Y412252D01*
X259987Y412128D01*
X259426Y411991D01*
X258868Y411841D01*
X258314Y411677D01*
X257764Y411500D01*
X257218Y411310D01*
X256677Y411106D01*
X256141Y410890D01*
D11*
X294195Y383540D02*
X304800Y383540D01*
D16*
X243160Y379331D02*
X242944Y379867D01*
X242740Y380408D01*
X242550Y380954D01*
X242373Y381504D01*
X242209Y382058D01*
X242059Y382616D01*
X241922Y383177D01*
X241798Y383742D01*
X241688Y384309D01*
X241592Y384879D01*
X241509Y385451D01*
X241440Y386024D01*
X241385Y386600D01*
X241343Y387176D01*
X241316Y387753D01*
X241302Y388331D01*
X241302Y388909D01*
X241316Y389487D01*
X241343Y390064D01*
X241385Y390640D01*
X241440Y391216D01*
X241509Y391789D01*
X241592Y392361D01*
X241688Y392931D01*
X241798Y393498D01*
X241922Y394063D01*
X242059Y394624D01*
X242209Y395182D01*
X242373Y395736D01*
X242550Y396286D01*
X242740Y396832D01*
X242944Y397373D01*
X243160Y397909D01*
D11*
X236220Y388620D02*
X236229Y389337D01*
X236255Y390053D01*
X236299Y390769D01*
X236361Y391483D01*
X236440Y392196D01*
X236536Y392906D01*
X236650Y393614D01*
X236781Y394319D01*
X236930Y395020D01*
X237095Y395717D01*
X237278Y396411D01*
X237478Y397099D01*
X237694Y397783D01*
X237927Y398461D01*
X238177Y399133D01*
X238443Y399798D01*
X238726Y400457D01*
X239024Y401109D01*
X239339Y401753D01*
X239669Y402389D01*
X240015Y403018D01*
X240376Y403637D01*
X240752Y404247D01*
X241143Y404848D01*
X241548Y405439D01*
X241968Y406020D01*
X242402Y406591D01*
X242850Y407151D01*
X243312Y407699D01*
X243787Y408236D01*
X244275Y408761D01*
X244775Y409275D01*
X245289Y409775D01*
X245814Y410263D01*
X246351Y410738D01*
X246899Y411200D01*
X247459Y411648D01*
X248030Y412082D01*
X248611Y412502D01*
X249202Y412907D01*
X249803Y413298D01*
X250413Y413674D01*
X251032Y414035D01*
X251661Y414381D01*
X252297Y414711D01*
X252941Y415026D01*
X253593Y415324D01*
X254252Y415607D01*
X254917Y415873D01*
X255589Y416123D01*
X256267Y416356D01*
X256951Y416572D01*
X257639Y416772D01*
X258333Y416955D01*
X259030Y417120D01*
X259731Y417269D01*
X260436Y417400D01*
X261144Y417514D01*
X261854Y417610D01*
X262567Y417689D01*
X263281Y417751D01*
X263997Y417795D01*
X264713Y417821D01*
X265430Y417830D01*
X266147Y417821D01*
X266863Y417795D01*
X267579Y417751D01*
X268293Y417689D01*
X269006Y417610D01*
X269716Y417514D01*
X270424Y417400D01*
X271129Y417269D01*
X271830Y417120D01*
X272527Y416955D01*
X273221Y416772D01*
X273909Y416572D01*
X274593Y416356D01*
X275271Y416123D01*
X275943Y415873D01*
X276608Y415607D01*
X277267Y415324D01*
X277919Y415026D01*
X278563Y414711D01*
X279199Y414381D01*
X279828Y414035D01*
X280447Y413674D01*
X281057Y413298D01*
X281658Y412907D01*
X282249Y412502D01*
X282830Y412082D01*
X283401Y411648D01*
X283961Y411200D01*
X284509Y410738D01*
X285046Y410263D01*
X285571Y409775D01*
X286085Y409275D01*
X286585Y408761D01*
X287073Y408236D01*
X287548Y407699D01*
X288010Y407151D01*
X288458Y406591D01*
X288892Y406020D01*
X289312Y405439D01*
X289717Y404848D01*
X290108Y404247D01*
X290484Y403637D01*
X290845Y403018D01*
X291191Y402389D01*
X291521Y401753D01*
X291836Y401109D01*
X292134Y400457D01*
X292417Y399798D01*
X292683Y399133D01*
X292933Y398461D01*
X293166Y397783D01*
X293382Y397099D01*
X293582Y396411D01*
X293765Y395717D01*
X293930Y395020D01*
X294079Y394319D01*
X294210Y393614D01*
X294324Y392906D01*
X294420Y392196D01*
X294499Y391483D01*
X294561Y390769D01*
X294605Y390053D01*
X294631Y389337D01*
X294640Y388620D01*
X294631Y387903D01*
X294605Y387187D01*
X294561Y386471D01*
X294499Y385757D01*
X294420Y385044D01*
X294324Y384334D01*
X294210Y383626D01*
X294079Y382921D01*
X293930Y382220D01*
X293765Y381523D01*
X293582Y380829D01*
X293382Y380141D01*
X293166Y379457D01*
X292933Y378779D01*
X292683Y378107D01*
X292417Y377442D01*
X292134Y376783D01*
X291836Y376131D01*
X291521Y375487D01*
X291191Y374851D01*
X290845Y374222D01*
X290484Y373603D01*
X290108Y372993D01*
X289717Y372392D01*
X289312Y371801D01*
X288892Y371220D01*
X288458Y370649D01*
X288010Y370089D01*
X287548Y369541D01*
X287073Y369004D01*
X286585Y368479D01*
X286085Y367965D01*
X285571Y367465D01*
X285046Y366977D01*
X284509Y366502D01*
X283961Y366040D01*
X283401Y365592D01*
X282830Y365158D01*
X282249Y364738D01*
X281658Y364333D01*
X281057Y363942D01*
X280447Y363566D01*
X279828Y363205D01*
X279199Y362859D01*
X278563Y362529D01*
X277919Y362214D01*
X277267Y361916D01*
X276608Y361633D01*
X275943Y361367D01*
X275271Y361117D01*
X274593Y360884D01*
X273909Y360668D01*
X273221Y360468D01*
X272527Y360285D01*
X271830Y360120D01*
X271129Y359971D01*
X270424Y359840D01*
X269716Y359726D01*
X269006Y359630D01*
X268293Y359551D01*
X267579Y359489D01*
X266863Y359445D01*
X266147Y359419D01*
X265430Y359410D01*
X264713Y359419D01*
X263997Y359445D01*
X263281Y359489D01*
X262567Y359551D01*
X261854Y359630D01*
X261144Y359726D01*
X260436Y359840D01*
X259731Y359971D01*
X259030Y360120D01*
X258333Y360285D01*
X257639Y360468D01*
X256951Y360668D01*
X256267Y360884D01*
X255589Y361117D01*
X254917Y361367D01*
X254252Y361633D01*
X253593Y361916D01*
X252941Y362214D01*
X252297Y362529D01*
X251661Y362859D01*
X251032Y363205D01*
X250413Y363566D01*
X249803Y363942D01*
X249202Y364333D01*
X248611Y364738D01*
X248030Y365158D01*
X247459Y365592D01*
X246899Y366040D01*
X246351Y366502D01*
X245814Y366977D01*
X245289Y367465D01*
X244775Y367965D01*
X244275Y368479D01*
X243787Y369004D01*
X243312Y369541D01*
X242850Y370089D01*
X242402Y370649D01*
X241968Y371220D01*
X241548Y371801D01*
X241143Y372392D01*
X240752Y372993D01*
X240376Y373603D01*
X240015Y374222D01*
X239669Y374851D01*
X239339Y375487D01*
X239024Y376131D01*
X238726Y376783D01*
X238443Y377442D01*
X238177Y378107D01*
X237927Y378779D01*
X237694Y379457D01*
X237478Y380141D01*
X237278Y380829D01*
X237095Y381523D01*
X236930Y382220D01*
X236781Y382921D01*
X236650Y383626D01*
X236536Y384334D01*
X236440Y385044D01*
X236361Y385757D01*
X236299Y386471D01*
X236255Y387187D01*
X236229Y387903D01*
X236220Y388620D01*
X292862Y361315D02*
X292862Y349885D01*
X289687Y361315D02*
X296037Y361315D01*
X300355Y358775D02*
X303530Y361315D01*
X303530Y349885D01*
X300355Y349885D02*
X306705Y349885D01*
D10*
X267970Y322580D02*
X267968Y322480D01*
X267962Y322381D01*
X267952Y322281D01*
X267939Y322183D01*
X267921Y322084D01*
X267900Y321987D01*
X267875Y321891D01*
X267846Y321795D01*
X267813Y321701D01*
X267777Y321608D01*
X267737Y321517D01*
X267693Y321427D01*
X267646Y321339D01*
X267596Y321253D01*
X267542Y321169D01*
X267485Y321087D01*
X267425Y321008D01*
X267361Y320930D01*
X267295Y320856D01*
X267226Y320784D01*
X267154Y320715D01*
X267080Y320649D01*
X267002Y320585D01*
X266923Y320525D01*
X266841Y320468D01*
X266757Y320414D01*
X266671Y320364D01*
X266583Y320317D01*
X266493Y320273D01*
X266402Y320233D01*
X266309Y320197D01*
X266215Y320164D01*
X266119Y320135D01*
X266023Y320110D01*
X265926Y320089D01*
X265827Y320071D01*
X265729Y320058D01*
X265629Y320048D01*
X265530Y320042D01*
X265430Y320040D01*
X267970Y340360D02*
X267968Y340460D01*
X267962Y340559D01*
X267952Y340659D01*
X267939Y340757D01*
X267921Y340856D01*
X267900Y340953D01*
X267875Y341049D01*
X267846Y341145D01*
X267813Y341239D01*
X267777Y341332D01*
X267737Y341423D01*
X267693Y341513D01*
X267646Y341601D01*
X267596Y341687D01*
X267542Y341771D01*
X267485Y341853D01*
X267425Y341932D01*
X267361Y342010D01*
X267295Y342084D01*
X267226Y342156D01*
X267154Y342225D01*
X267080Y342291D01*
X267002Y342355D01*
X266923Y342415D01*
X266841Y342472D01*
X266757Y342526D01*
X266671Y342576D01*
X266583Y342623D01*
X266493Y342667D01*
X266402Y342707D01*
X266309Y342743D01*
X266215Y342776D01*
X266119Y342805D01*
X266023Y342830D01*
X265926Y342851D01*
X265827Y342869D01*
X265729Y342882D01*
X265629Y342892D01*
X265530Y342898D01*
X265430Y342900D01*
X207010Y342900D02*
X206910Y342898D01*
X206811Y342892D01*
X206711Y342882D01*
X206613Y342869D01*
X206514Y342851D01*
X206417Y342830D01*
X206321Y342805D01*
X206225Y342776D01*
X206131Y342743D01*
X206038Y342707D01*
X205947Y342667D01*
X205857Y342623D01*
X205769Y342576D01*
X205683Y342526D01*
X205599Y342472D01*
X205517Y342415D01*
X205438Y342355D01*
X205360Y342291D01*
X205286Y342225D01*
X205214Y342156D01*
X205145Y342084D01*
X205079Y342010D01*
X205015Y341932D01*
X204955Y341853D01*
X204898Y341771D01*
X204844Y341687D01*
X204794Y341601D01*
X204747Y341513D01*
X204703Y341423D01*
X204663Y341332D01*
X204627Y341239D01*
X204594Y341145D01*
X204565Y341049D01*
X204540Y340953D01*
X204519Y340856D01*
X204501Y340757D01*
X204488Y340659D01*
X204478Y340559D01*
X204472Y340460D01*
X204470Y340360D01*
X204470Y322580D02*
X204472Y322480D01*
X204478Y322381D01*
X204488Y322281D01*
X204501Y322183D01*
X204519Y322084D01*
X204540Y321987D01*
X204565Y321891D01*
X204594Y321795D01*
X204627Y321701D01*
X204663Y321608D01*
X204703Y321517D01*
X204747Y321427D01*
X204794Y321339D01*
X204844Y321253D01*
X204898Y321169D01*
X204955Y321087D01*
X205015Y321008D01*
X205079Y320930D01*
X205145Y320856D01*
X205214Y320784D01*
X205286Y320715D01*
X205360Y320649D01*
X205438Y320585D01*
X205517Y320525D01*
X205599Y320468D01*
X205683Y320414D01*
X205769Y320364D01*
X205857Y320317D01*
X205947Y320273D01*
X206038Y320233D01*
X206131Y320197D01*
X206225Y320164D01*
X206321Y320135D01*
X206417Y320110D01*
X206514Y320089D01*
X206613Y320071D01*
X206711Y320058D01*
X206811Y320048D01*
X206910Y320042D01*
X207010Y320040D01*
X267970Y322580D02*
X267970Y340360D01*
X265430Y320040D02*
X261620Y320040D01*
X260350Y321310D01*
X261620Y342900D02*
X265430Y342900D01*
X261620Y342900D02*
X260350Y341630D01*
X212090Y321310D02*
X210820Y320040D01*
X212090Y321310D02*
X260350Y321310D01*
X212090Y341630D02*
X210820Y342900D01*
X212090Y341630D02*
X260350Y341630D01*
X210820Y320040D02*
X207010Y320040D01*
X207010Y342900D02*
X210820Y342900D01*
X204470Y340360D02*
X204470Y322580D01*
D14*
X200152Y331470D03*
X272288Y331470D03*
D11*
X273768Y321945D02*
X273768Y310515D01*
X273768Y321945D02*
X276943Y321945D01*
X277054Y321943D01*
X277164Y321937D01*
X277275Y321928D01*
X277385Y321914D01*
X277494Y321897D01*
X277603Y321876D01*
X277711Y321851D01*
X277818Y321822D01*
X277924Y321790D01*
X278029Y321754D01*
X278132Y321714D01*
X278234Y321671D01*
X278335Y321624D01*
X278434Y321573D01*
X278531Y321520D01*
X278625Y321463D01*
X278718Y321402D01*
X278809Y321339D01*
X278898Y321272D01*
X278984Y321202D01*
X279067Y321129D01*
X279149Y321054D01*
X279227Y320976D01*
X279302Y320894D01*
X279375Y320811D01*
X279445Y320725D01*
X279512Y320636D01*
X279575Y320545D01*
X279636Y320452D01*
X279693Y320357D01*
X279746Y320261D01*
X279797Y320162D01*
X279844Y320061D01*
X279887Y319959D01*
X279927Y319856D01*
X279963Y319751D01*
X279995Y319645D01*
X280024Y319538D01*
X280049Y319430D01*
X280070Y319321D01*
X280087Y319212D01*
X280101Y319102D01*
X280110Y318991D01*
X280116Y318881D01*
X280118Y318770D01*
X280116Y318659D01*
X280110Y318549D01*
X280101Y318438D01*
X280087Y318328D01*
X280070Y318219D01*
X280049Y318110D01*
X280024Y318002D01*
X279995Y317895D01*
X279963Y317789D01*
X279927Y317684D01*
X279887Y317581D01*
X279844Y317479D01*
X279797Y317378D01*
X279746Y317279D01*
X279693Y317182D01*
X279636Y317088D01*
X279575Y316995D01*
X279512Y316904D01*
X279445Y316815D01*
X279375Y316729D01*
X279302Y316646D01*
X279227Y316564D01*
X279149Y316486D01*
X279067Y316411D01*
X278984Y316338D01*
X278898Y316268D01*
X278809Y316201D01*
X278718Y316138D01*
X278625Y316077D01*
X278531Y316020D01*
X278434Y315967D01*
X278335Y315916D01*
X278234Y315869D01*
X278132Y315826D01*
X278029Y315786D01*
X277924Y315750D01*
X277818Y315718D01*
X277711Y315689D01*
X277603Y315664D01*
X277494Y315643D01*
X277385Y315626D01*
X277275Y315612D01*
X277164Y315603D01*
X277054Y315597D01*
X276943Y315595D01*
X273768Y315595D01*
X277578Y315595D02*
X280118Y310515D01*
X291466Y319088D02*
X291464Y319192D01*
X291458Y319297D01*
X291449Y319401D01*
X291436Y319504D01*
X291418Y319607D01*
X291398Y319709D01*
X291373Y319811D01*
X291345Y319911D01*
X291313Y320011D01*
X291277Y320109D01*
X291238Y320206D01*
X291196Y320301D01*
X291150Y320395D01*
X291100Y320487D01*
X291048Y320577D01*
X290992Y320665D01*
X290932Y320751D01*
X290870Y320835D01*
X290805Y320916D01*
X290737Y320995D01*
X290665Y321072D01*
X290592Y321145D01*
X290515Y321217D01*
X290436Y321285D01*
X290355Y321350D01*
X290271Y321412D01*
X290185Y321472D01*
X290097Y321528D01*
X290007Y321580D01*
X289915Y321630D01*
X289821Y321676D01*
X289726Y321718D01*
X289629Y321757D01*
X289531Y321793D01*
X289431Y321825D01*
X289331Y321853D01*
X289229Y321878D01*
X289127Y321898D01*
X289024Y321916D01*
X288921Y321929D01*
X288817Y321938D01*
X288712Y321944D01*
X288608Y321946D01*
X288608Y321945D02*
X288490Y321943D01*
X288371Y321937D01*
X288253Y321928D01*
X288136Y321915D01*
X288019Y321897D01*
X287902Y321877D01*
X287786Y321852D01*
X287671Y321824D01*
X287558Y321791D01*
X287445Y321756D01*
X287333Y321716D01*
X287223Y321674D01*
X287114Y321627D01*
X287006Y321577D01*
X286901Y321524D01*
X286797Y321467D01*
X286695Y321407D01*
X286595Y321344D01*
X286497Y321277D01*
X286401Y321208D01*
X286308Y321135D01*
X286217Y321059D01*
X286128Y320981D01*
X286042Y320899D01*
X285959Y320815D01*
X285878Y320729D01*
X285801Y320639D01*
X285726Y320548D01*
X285654Y320454D01*
X285585Y320357D01*
X285520Y320259D01*
X285457Y320158D01*
X285398Y320055D01*
X285342Y319951D01*
X285290Y319845D01*
X285241Y319737D01*
X285196Y319628D01*
X285154Y319517D01*
X285116Y319405D01*
X290513Y316866D02*
X290589Y316941D01*
X290664Y317020D01*
X290735Y317101D01*
X290804Y317185D01*
X290869Y317271D01*
X290931Y317359D01*
X290991Y317449D01*
X291047Y317541D01*
X291100Y317636D01*
X291149Y317732D01*
X291195Y317830D01*
X291238Y317929D01*
X291277Y318030D01*
X291312Y318132D01*
X291344Y318235D01*
X291372Y318339D01*
X291397Y318444D01*
X291418Y318551D01*
X291435Y318657D01*
X291448Y318764D01*
X291457Y318872D01*
X291463Y318980D01*
X291465Y319088D01*
X290513Y316865D02*
X285115Y310515D01*
X291465Y310515D01*
D10*
X267970Y292100D02*
X267968Y292000D01*
X267962Y291901D01*
X267952Y291801D01*
X267939Y291703D01*
X267921Y291604D01*
X267900Y291507D01*
X267875Y291411D01*
X267846Y291315D01*
X267813Y291221D01*
X267777Y291128D01*
X267737Y291037D01*
X267693Y290947D01*
X267646Y290859D01*
X267596Y290773D01*
X267542Y290689D01*
X267485Y290607D01*
X267425Y290528D01*
X267361Y290450D01*
X267295Y290376D01*
X267226Y290304D01*
X267154Y290235D01*
X267080Y290169D01*
X267002Y290105D01*
X266923Y290045D01*
X266841Y289988D01*
X266757Y289934D01*
X266671Y289884D01*
X266583Y289837D01*
X266493Y289793D01*
X266402Y289753D01*
X266309Y289717D01*
X266215Y289684D01*
X266119Y289655D01*
X266023Y289630D01*
X265926Y289609D01*
X265827Y289591D01*
X265729Y289578D01*
X265629Y289568D01*
X265530Y289562D01*
X265430Y289560D01*
X267970Y309880D02*
X267968Y309980D01*
X267962Y310079D01*
X267952Y310179D01*
X267939Y310277D01*
X267921Y310376D01*
X267900Y310473D01*
X267875Y310569D01*
X267846Y310665D01*
X267813Y310759D01*
X267777Y310852D01*
X267737Y310943D01*
X267693Y311033D01*
X267646Y311121D01*
X267596Y311207D01*
X267542Y311291D01*
X267485Y311373D01*
X267425Y311452D01*
X267361Y311530D01*
X267295Y311604D01*
X267226Y311676D01*
X267154Y311745D01*
X267080Y311811D01*
X267002Y311875D01*
X266923Y311935D01*
X266841Y311992D01*
X266757Y312046D01*
X266671Y312096D01*
X266583Y312143D01*
X266493Y312187D01*
X266402Y312227D01*
X266309Y312263D01*
X266215Y312296D01*
X266119Y312325D01*
X266023Y312350D01*
X265926Y312371D01*
X265827Y312389D01*
X265729Y312402D01*
X265629Y312412D01*
X265530Y312418D01*
X265430Y312420D01*
X207010Y312420D02*
X206910Y312418D01*
X206811Y312412D01*
X206711Y312402D01*
X206613Y312389D01*
X206514Y312371D01*
X206417Y312350D01*
X206321Y312325D01*
X206225Y312296D01*
X206131Y312263D01*
X206038Y312227D01*
X205947Y312187D01*
X205857Y312143D01*
X205769Y312096D01*
X205683Y312046D01*
X205599Y311992D01*
X205517Y311935D01*
X205438Y311875D01*
X205360Y311811D01*
X205286Y311745D01*
X205214Y311676D01*
X205145Y311604D01*
X205079Y311530D01*
X205015Y311452D01*
X204955Y311373D01*
X204898Y311291D01*
X204844Y311207D01*
X204794Y311121D01*
X204747Y311033D01*
X204703Y310943D01*
X204663Y310852D01*
X204627Y310759D01*
X204594Y310665D01*
X204565Y310569D01*
X204540Y310473D01*
X204519Y310376D01*
X204501Y310277D01*
X204488Y310179D01*
X204478Y310079D01*
X204472Y309980D01*
X204470Y309880D01*
X204470Y292100D02*
X204472Y292000D01*
X204478Y291901D01*
X204488Y291801D01*
X204501Y291703D01*
X204519Y291604D01*
X204540Y291507D01*
X204565Y291411D01*
X204594Y291315D01*
X204627Y291221D01*
X204663Y291128D01*
X204703Y291037D01*
X204747Y290947D01*
X204794Y290859D01*
X204844Y290773D01*
X204898Y290689D01*
X204955Y290607D01*
X205015Y290528D01*
X205079Y290450D01*
X205145Y290376D01*
X205214Y290304D01*
X205286Y290235D01*
X205360Y290169D01*
X205438Y290105D01*
X205517Y290045D01*
X205599Y289988D01*
X205683Y289934D01*
X205769Y289884D01*
X205857Y289837D01*
X205947Y289793D01*
X206038Y289753D01*
X206131Y289717D01*
X206225Y289684D01*
X206321Y289655D01*
X206417Y289630D01*
X206514Y289609D01*
X206613Y289591D01*
X206711Y289578D01*
X206811Y289568D01*
X206910Y289562D01*
X207010Y289560D01*
X267970Y292100D02*
X267970Y309880D01*
X265430Y289560D02*
X261620Y289560D01*
X260350Y290830D01*
X261620Y312420D02*
X265430Y312420D01*
X261620Y312420D02*
X260350Y311150D01*
X212090Y290830D02*
X210820Y289560D01*
X212090Y290830D02*
X260350Y290830D01*
X212090Y311150D02*
X210820Y312420D01*
X212090Y311150D02*
X260350Y311150D01*
X210820Y289560D02*
X207010Y289560D01*
X207010Y312420D02*
X210820Y312420D01*
X204470Y309880D02*
X204470Y292100D01*
D14*
X200152Y300990D03*
X272288Y300990D03*
D11*
X275038Y291465D02*
X275038Y280035D01*
X275038Y291465D02*
X278213Y291465D01*
X278324Y291463D01*
X278434Y291457D01*
X278545Y291448D01*
X278655Y291434D01*
X278764Y291417D01*
X278873Y291396D01*
X278981Y291371D01*
X279088Y291342D01*
X279194Y291310D01*
X279299Y291274D01*
X279402Y291234D01*
X279504Y291191D01*
X279605Y291144D01*
X279704Y291093D01*
X279801Y291040D01*
X279895Y290983D01*
X279988Y290922D01*
X280079Y290859D01*
X280168Y290792D01*
X280254Y290722D01*
X280337Y290649D01*
X280419Y290574D01*
X280497Y290496D01*
X280572Y290414D01*
X280645Y290331D01*
X280715Y290245D01*
X280782Y290156D01*
X280845Y290065D01*
X280906Y289972D01*
X280963Y289877D01*
X281016Y289781D01*
X281067Y289682D01*
X281114Y289581D01*
X281157Y289479D01*
X281197Y289376D01*
X281233Y289271D01*
X281265Y289165D01*
X281294Y289058D01*
X281319Y288950D01*
X281340Y288841D01*
X281357Y288732D01*
X281371Y288622D01*
X281380Y288511D01*
X281386Y288401D01*
X281388Y288290D01*
X281386Y288179D01*
X281380Y288069D01*
X281371Y287958D01*
X281357Y287848D01*
X281340Y287739D01*
X281319Y287630D01*
X281294Y287522D01*
X281265Y287415D01*
X281233Y287309D01*
X281197Y287204D01*
X281157Y287101D01*
X281114Y286999D01*
X281067Y286898D01*
X281016Y286799D01*
X280963Y286702D01*
X280906Y286608D01*
X280845Y286515D01*
X280782Y286424D01*
X280715Y286335D01*
X280645Y286249D01*
X280572Y286166D01*
X280497Y286084D01*
X280419Y286006D01*
X280337Y285931D01*
X280254Y285858D01*
X280168Y285788D01*
X280079Y285721D01*
X279988Y285658D01*
X279895Y285597D01*
X279801Y285540D01*
X279704Y285487D01*
X279605Y285436D01*
X279504Y285389D01*
X279402Y285346D01*
X279299Y285306D01*
X279194Y285270D01*
X279088Y285238D01*
X278981Y285209D01*
X278873Y285184D01*
X278764Y285163D01*
X278655Y285146D01*
X278545Y285132D01*
X278434Y285123D01*
X278324Y285117D01*
X278213Y285115D01*
X275038Y285115D01*
X278848Y285115D02*
X281388Y280035D01*
X286385Y280035D02*
X289560Y280035D01*
X289671Y280037D01*
X289781Y280043D01*
X289892Y280052D01*
X290002Y280066D01*
X290111Y280083D01*
X290220Y280104D01*
X290328Y280129D01*
X290435Y280158D01*
X290541Y280190D01*
X290646Y280226D01*
X290749Y280266D01*
X290851Y280309D01*
X290952Y280356D01*
X291051Y280407D01*
X291148Y280460D01*
X291242Y280517D01*
X291335Y280578D01*
X291426Y280641D01*
X291515Y280708D01*
X291601Y280778D01*
X291684Y280851D01*
X291766Y280926D01*
X291844Y281004D01*
X291919Y281086D01*
X291992Y281169D01*
X292062Y281255D01*
X292129Y281344D01*
X292192Y281435D01*
X292253Y281528D01*
X292310Y281622D01*
X292363Y281719D01*
X292414Y281818D01*
X292461Y281919D01*
X292504Y282021D01*
X292544Y282124D01*
X292580Y282229D01*
X292612Y282335D01*
X292641Y282442D01*
X292666Y282550D01*
X292687Y282659D01*
X292704Y282768D01*
X292718Y282878D01*
X292727Y282989D01*
X292733Y283099D01*
X292735Y283210D01*
X292733Y283321D01*
X292727Y283431D01*
X292718Y283542D01*
X292704Y283652D01*
X292687Y283761D01*
X292666Y283870D01*
X292641Y283978D01*
X292612Y284085D01*
X292580Y284191D01*
X292544Y284296D01*
X292504Y284399D01*
X292461Y284501D01*
X292414Y284602D01*
X292363Y284701D01*
X292310Y284797D01*
X292253Y284892D01*
X292192Y284985D01*
X292129Y285076D01*
X292062Y285165D01*
X291992Y285251D01*
X291919Y285334D01*
X291844Y285416D01*
X291766Y285494D01*
X291684Y285569D01*
X291601Y285642D01*
X291515Y285712D01*
X291426Y285779D01*
X291335Y285842D01*
X291242Y285903D01*
X291148Y285960D01*
X291051Y286013D01*
X290952Y286064D01*
X290851Y286111D01*
X290749Y286154D01*
X290646Y286194D01*
X290541Y286230D01*
X290435Y286262D01*
X290328Y286291D01*
X290220Y286316D01*
X290111Y286337D01*
X290002Y286354D01*
X289892Y286368D01*
X289781Y286377D01*
X289671Y286383D01*
X289560Y286385D01*
X290195Y291465D02*
X286385Y291465D01*
X290195Y291465D02*
X290295Y291463D01*
X290394Y291457D01*
X290494Y291447D01*
X290592Y291434D01*
X290691Y291416D01*
X290788Y291395D01*
X290884Y291370D01*
X290980Y291341D01*
X291074Y291308D01*
X291167Y291272D01*
X291258Y291232D01*
X291348Y291188D01*
X291436Y291141D01*
X291522Y291091D01*
X291606Y291037D01*
X291688Y290980D01*
X291767Y290920D01*
X291845Y290856D01*
X291919Y290790D01*
X291991Y290721D01*
X292060Y290649D01*
X292126Y290575D01*
X292190Y290497D01*
X292250Y290418D01*
X292307Y290336D01*
X292361Y290252D01*
X292411Y290166D01*
X292458Y290078D01*
X292502Y289988D01*
X292542Y289897D01*
X292578Y289804D01*
X292611Y289710D01*
X292640Y289614D01*
X292665Y289518D01*
X292686Y289421D01*
X292704Y289322D01*
X292717Y289224D01*
X292727Y289124D01*
X292733Y289025D01*
X292735Y288925D01*
X292733Y288825D01*
X292727Y288726D01*
X292717Y288626D01*
X292704Y288528D01*
X292686Y288429D01*
X292665Y288332D01*
X292640Y288236D01*
X292611Y288140D01*
X292578Y288046D01*
X292542Y287953D01*
X292502Y287862D01*
X292458Y287772D01*
X292411Y287684D01*
X292361Y287598D01*
X292307Y287514D01*
X292250Y287432D01*
X292190Y287353D01*
X292126Y287275D01*
X292060Y287201D01*
X291991Y287129D01*
X291919Y287060D01*
X291845Y286994D01*
X291767Y286930D01*
X291688Y286870D01*
X291606Y286813D01*
X291522Y286759D01*
X291436Y286709D01*
X291348Y286662D01*
X291258Y286618D01*
X291167Y286578D01*
X291074Y286542D01*
X290980Y286509D01*
X290884Y286480D01*
X290788Y286455D01*
X290691Y286434D01*
X290592Y286416D01*
X290494Y286403D01*
X290394Y286393D01*
X290295Y286387D01*
X290195Y286385D01*
X287655Y286385D01*
D12*
X533400Y260350D02*
X533400Y222250D01*
D15*
X532926Y221634D01*
X532437Y221029D01*
X531933Y220437D01*
X531415Y219857D01*
X530883Y219290D01*
X530337Y218736D01*
X529778Y218196D01*
X529205Y217670D01*
X528620Y217157D01*
X528023Y216660D01*
X527414Y216177D01*
X526793Y215709D01*
X526160Y215256D01*
X525517Y214819D01*
X524863Y214398D01*
X524199Y213994D01*
X523526Y213605D01*
X522843Y213233D01*
X522151Y212878D01*
X521451Y212540D01*
X520743Y212219D01*
X520027Y211916D01*
X519303Y211630D01*
X518574Y211362D01*
X517837Y211112D01*
X517095Y210881D01*
X516347Y210667D01*
X515595Y210472D01*
X514837Y210295D01*
X514076Y210137D01*
X513311Y209997D01*
X512543Y209877D01*
X511772Y209775D01*
X510999Y209692D01*
X510224Y209628D01*
X509448Y209583D01*
X508671Y209557D01*
X507893Y209550D01*
X507116Y209562D01*
X506339Y209593D01*
X505563Y209644D01*
X504788Y209713D01*
X504016Y209801D01*
X503246Y209908D01*
X502478Y210034D01*
X501714Y210178D01*
X500954Y210342D01*
X500198Y210524D01*
X499447Y210724D01*
X498700Y210942D01*
X497960Y211179D01*
X497225Y211434D01*
X496497Y211707D01*
X495776Y211998D01*
X495062Y212306D01*
X494356Y212631D01*
X493658Y212974D01*
X492968Y213334D01*
X492288Y213710D01*
X491617Y214103D01*
X490956Y214513D01*
X490305Y214938D01*
X489665Y215379D01*
X489036Y215836D01*
X488418Y216308D01*
X487812Y216795D01*
X487218Y217297D01*
X486636Y217813D01*
X486067Y218343D01*
X485512Y218887D01*
X484969Y219445D01*
X484441Y220015D01*
X483927Y220598D01*
X483427Y221194D01*
X482942Y221802D01*
X482472Y222421D01*
X482018Y223052D01*
X481579Y223694D01*
X481155Y224346D01*
X480748Y225009D01*
X480357Y225681D01*
X479983Y226363D01*
X479626Y227053D01*
X479286Y227752D01*
X478962Y228460D01*
X478657Y229174D01*
X478368Y229897D01*
X478098Y230626D01*
X477846Y231361D01*
X477611Y232103D01*
X477395Y232850D01*
X477197Y233602D01*
X477018Y234358D01*
X476857Y235119D01*
X476715Y235883D01*
X476592Y236651D01*
X476488Y237422D01*
X476402Y238195D01*
X476336Y238969D01*
X476288Y239745D01*
X476260Y240522D01*
X476250Y241300D01*
X476260Y242078D01*
X476288Y242855D01*
X476336Y243631D01*
X476402Y244405D01*
X476488Y245178D01*
X476592Y245949D01*
X476715Y246717D01*
X476857Y247481D01*
X477018Y248242D01*
X477197Y248998D01*
X477395Y249750D01*
X477611Y250497D01*
X477846Y251239D01*
X478098Y251974D01*
X478368Y252703D01*
X478657Y253426D01*
X478962Y254140D01*
X479286Y254848D01*
X479626Y255547D01*
X479983Y256237D01*
X480357Y256919D01*
X480748Y257591D01*
X481155Y258254D01*
X481579Y258906D01*
X482018Y259548D01*
X482472Y260179D01*
X482942Y260798D01*
X483427Y261406D01*
X483927Y262002D01*
X484441Y262585D01*
X484969Y263155D01*
X485512Y263713D01*
X486067Y264257D01*
X486636Y264787D01*
X487218Y265303D01*
X487812Y265805D01*
X488418Y266292D01*
X489036Y266764D01*
X489665Y267221D01*
X490305Y267662D01*
X490956Y268087D01*
X491617Y268497D01*
X492288Y268890D01*
X492968Y269266D01*
X493658Y269626D01*
X494356Y269969D01*
X495062Y270294D01*
X495776Y270602D01*
X496497Y270893D01*
X497225Y271166D01*
X497960Y271421D01*
X498700Y271658D01*
X499447Y271876D01*
X500198Y272076D01*
X500954Y272258D01*
X501714Y272422D01*
X502478Y272566D01*
X503246Y272692D01*
X504016Y272799D01*
X504788Y272887D01*
X505563Y272956D01*
X506339Y273007D01*
X507116Y273038D01*
X507893Y273050D01*
X508671Y273043D01*
X509448Y273017D01*
X510224Y272972D01*
X510999Y272908D01*
X511772Y272825D01*
X512543Y272723D01*
X513311Y272603D01*
X514076Y272463D01*
X514837Y272305D01*
X515595Y272128D01*
X516347Y271933D01*
X517095Y271719D01*
X517837Y271488D01*
X518574Y271238D01*
X519303Y270970D01*
X520027Y270684D01*
X520743Y270381D01*
X521451Y270060D01*
X522151Y269722D01*
X522843Y269367D01*
X523526Y268995D01*
X524199Y268606D01*
X524863Y268202D01*
X525517Y267781D01*
X526160Y267344D01*
X526793Y266891D01*
X527414Y266423D01*
X528023Y265940D01*
X528620Y265443D01*
X529205Y264930D01*
X529778Y264404D01*
X530337Y263864D01*
X530883Y263310D01*
X531415Y262743D01*
X531933Y262163D01*
X532437Y261571D01*
X532926Y260966D01*
X533400Y260350D01*
D10*
X482600Y241300D02*
X482608Y241923D01*
X482631Y242546D01*
X482669Y243169D01*
X482722Y243790D01*
X482791Y244409D01*
X482875Y245027D01*
X482974Y245642D01*
X483088Y246255D01*
X483217Y246865D01*
X483361Y247472D01*
X483520Y248075D01*
X483694Y248673D01*
X483882Y249268D01*
X484085Y249857D01*
X484302Y250441D01*
X484533Y251020D01*
X484779Y251593D01*
X485039Y252160D01*
X485312Y252720D01*
X485599Y253273D01*
X485900Y253820D01*
X486214Y254358D01*
X486541Y254889D01*
X486881Y255411D01*
X487233Y255926D01*
X487599Y256431D01*
X487976Y256927D01*
X488366Y257414D01*
X488767Y257891D01*
X489180Y258358D01*
X489604Y258814D01*
X490039Y259261D01*
X490486Y259696D01*
X490942Y260120D01*
X491409Y260533D01*
X491886Y260934D01*
X492373Y261324D01*
X492869Y261701D01*
X493374Y262067D01*
X493889Y262419D01*
X494411Y262759D01*
X494942Y263086D01*
X495480Y263400D01*
X496027Y263701D01*
X496580Y263988D01*
X497140Y264261D01*
X497707Y264521D01*
X498280Y264767D01*
X498859Y264998D01*
X499443Y265215D01*
X500032Y265418D01*
X500627Y265606D01*
X501225Y265780D01*
X501828Y265939D01*
X502435Y266083D01*
X503045Y266212D01*
X503658Y266326D01*
X504273Y266425D01*
X504891Y266509D01*
X505510Y266578D01*
X506131Y266631D01*
X506754Y266669D01*
X507377Y266692D01*
X508000Y266700D01*
X508623Y266692D01*
X509246Y266669D01*
X509869Y266631D01*
X510490Y266578D01*
X511109Y266509D01*
X511727Y266425D01*
X512342Y266326D01*
X512955Y266212D01*
X513565Y266083D01*
X514172Y265939D01*
X514775Y265780D01*
X515373Y265606D01*
X515968Y265418D01*
X516557Y265215D01*
X517141Y264998D01*
X517720Y264767D01*
X518293Y264521D01*
X518860Y264261D01*
X519420Y263988D01*
X519973Y263701D01*
X520520Y263400D01*
X521058Y263086D01*
X521589Y262759D01*
X522111Y262419D01*
X522626Y262067D01*
X523131Y261701D01*
X523627Y261324D01*
X524114Y260934D01*
X524591Y260533D01*
X525058Y260120D01*
X525514Y259696D01*
X525961Y259261D01*
X526396Y258814D01*
X526820Y258358D01*
X527233Y257891D01*
X527634Y257414D01*
X528024Y256927D01*
X528401Y256431D01*
X528767Y255926D01*
X529119Y255411D01*
X529459Y254889D01*
X529786Y254358D01*
X530100Y253820D01*
X530401Y253273D01*
X530688Y252720D01*
X530961Y252160D01*
X531221Y251593D01*
X531467Y251020D01*
X531698Y250441D01*
X531915Y249857D01*
X532118Y249268D01*
X532306Y248673D01*
X532480Y248075D01*
X532639Y247472D01*
X532783Y246865D01*
X532912Y246255D01*
X533026Y245642D01*
X533125Y245027D01*
X533209Y244409D01*
X533278Y243790D01*
X533331Y243169D01*
X533369Y242546D01*
X533392Y241923D01*
X533400Y241300D01*
X533392Y240677D01*
X533369Y240054D01*
X533331Y239431D01*
X533278Y238810D01*
X533209Y238191D01*
X533125Y237573D01*
X533026Y236958D01*
X532912Y236345D01*
X532783Y235735D01*
X532639Y235128D01*
X532480Y234525D01*
X532306Y233927D01*
X532118Y233332D01*
X531915Y232743D01*
X531698Y232159D01*
X531467Y231580D01*
X531221Y231007D01*
X530961Y230440D01*
X530688Y229880D01*
X530401Y229327D01*
X530100Y228780D01*
X529786Y228242D01*
X529459Y227711D01*
X529119Y227189D01*
X528767Y226674D01*
X528401Y226169D01*
X528024Y225673D01*
X527634Y225186D01*
X527233Y224709D01*
X526820Y224242D01*
X526396Y223786D01*
X525961Y223339D01*
X525514Y222904D01*
X525058Y222480D01*
X524591Y222067D01*
X524114Y221666D01*
X523627Y221276D01*
X523131Y220899D01*
X522626Y220533D01*
X522111Y220181D01*
X521589Y219841D01*
X521058Y219514D01*
X520520Y219200D01*
X519973Y218899D01*
X519420Y218612D01*
X518860Y218339D01*
X518293Y218079D01*
X517720Y217833D01*
X517141Y217602D01*
X516557Y217385D01*
X515968Y217182D01*
X515373Y216994D01*
X514775Y216820D01*
X514172Y216661D01*
X513565Y216517D01*
X512955Y216388D01*
X512342Y216274D01*
X511727Y216175D01*
X511109Y216091D01*
X510490Y216022D01*
X509869Y215969D01*
X509246Y215931D01*
X508623Y215908D01*
X508000Y215900D01*
X507377Y215908D01*
X506754Y215931D01*
X506131Y215969D01*
X505510Y216022D01*
X504891Y216091D01*
X504273Y216175D01*
X503658Y216274D01*
X503045Y216388D01*
X502435Y216517D01*
X501828Y216661D01*
X501225Y216820D01*
X500627Y216994D01*
X500032Y217182D01*
X499443Y217385D01*
X498859Y217602D01*
X498280Y217833D01*
X497707Y218079D01*
X497140Y218339D01*
X496580Y218612D01*
X496027Y218899D01*
X495480Y219200D01*
X494942Y219514D01*
X494411Y219841D01*
X493889Y220181D01*
X493374Y220533D01*
X492869Y220899D01*
X492373Y221276D01*
X491886Y221666D01*
X491409Y222067D01*
X490942Y222480D01*
X490486Y222904D01*
X490039Y223339D01*
X489604Y223786D01*
X489180Y224242D01*
X488767Y224709D01*
X488366Y225186D01*
X487976Y225673D01*
X487599Y226169D01*
X487233Y226674D01*
X486881Y227189D01*
X486541Y227711D01*
X486214Y228242D01*
X485900Y228780D01*
X485599Y229327D01*
X485312Y229880D01*
X485039Y230440D01*
X484779Y231007D01*
X484533Y231580D01*
X484302Y232159D01*
X484085Y232743D01*
X483882Y233332D01*
X483694Y233927D01*
X483520Y234525D01*
X483361Y235128D01*
X483217Y235735D01*
X483088Y236345D01*
X482974Y236958D01*
X482875Y237573D01*
X482791Y238191D01*
X482722Y238810D01*
X482669Y239431D01*
X482631Y240054D01*
X482608Y240677D01*
X482600Y241300D01*
D11*
X540385Y247269D02*
X540385Y258699D01*
X540385Y247269D02*
X545465Y247269D01*
X550291Y247269D02*
X555371Y247269D01*
X550291Y247269D02*
X550291Y258699D01*
X555371Y258699D01*
X554101Y253619D02*
X550291Y253619D01*
X560172Y258699D02*
X560172Y247269D01*
X560172Y258699D02*
X563347Y258699D01*
X563458Y258697D01*
X563568Y258691D01*
X563679Y258682D01*
X563789Y258668D01*
X563898Y258651D01*
X564007Y258630D01*
X564115Y258605D01*
X564222Y258576D01*
X564328Y258544D01*
X564433Y258508D01*
X564536Y258468D01*
X564638Y258425D01*
X564739Y258378D01*
X564838Y258327D01*
X564935Y258274D01*
X565029Y258217D01*
X565122Y258156D01*
X565213Y258093D01*
X565302Y258026D01*
X565388Y257956D01*
X565471Y257883D01*
X565553Y257808D01*
X565631Y257730D01*
X565706Y257648D01*
X565779Y257565D01*
X565849Y257479D01*
X565916Y257390D01*
X565979Y257299D01*
X566040Y257206D01*
X566097Y257112D01*
X566150Y257015D01*
X566201Y256916D01*
X566248Y256815D01*
X566291Y256713D01*
X566331Y256610D01*
X566367Y256505D01*
X566399Y256399D01*
X566428Y256292D01*
X566453Y256184D01*
X566474Y256075D01*
X566491Y255966D01*
X566505Y255856D01*
X566514Y255745D01*
X566520Y255635D01*
X566522Y255524D01*
X566522Y250444D01*
X566520Y250333D01*
X566514Y250223D01*
X566505Y250112D01*
X566491Y250002D01*
X566474Y249893D01*
X566453Y249784D01*
X566428Y249676D01*
X566399Y249569D01*
X566367Y249463D01*
X566331Y249358D01*
X566291Y249255D01*
X566248Y249153D01*
X566201Y249052D01*
X566150Y248953D01*
X566097Y248856D01*
X566040Y248762D01*
X565979Y248669D01*
X565916Y248578D01*
X565849Y248489D01*
X565779Y248403D01*
X565706Y248320D01*
X565631Y248238D01*
X565553Y248160D01*
X565471Y248085D01*
X565388Y248012D01*
X565302Y247942D01*
X565213Y247875D01*
X565122Y247812D01*
X565029Y247751D01*
X564935Y247694D01*
X564838Y247641D01*
X564739Y247590D01*
X564638Y247543D01*
X564536Y247500D01*
X564433Y247460D01*
X564328Y247424D01*
X564222Y247392D01*
X564115Y247363D01*
X564007Y247338D01*
X563898Y247317D01*
X563789Y247300D01*
X563679Y247286D01*
X563568Y247277D01*
X563458Y247271D01*
X563347Y247269D01*
X560172Y247269D01*
X571983Y256159D02*
X575158Y258699D01*
X575158Y247269D01*
X571983Y247269D02*
X578333Y247269D01*
D10*
X511810Y311150D02*
X511710Y311152D01*
X511611Y311158D01*
X511511Y311168D01*
X511413Y311181D01*
X511314Y311199D01*
X511217Y311220D01*
X511121Y311245D01*
X511025Y311274D01*
X510931Y311307D01*
X510838Y311343D01*
X510747Y311383D01*
X510657Y311427D01*
X510569Y311474D01*
X510483Y311524D01*
X510399Y311578D01*
X510317Y311635D01*
X510238Y311695D01*
X510160Y311759D01*
X510086Y311825D01*
X510014Y311894D01*
X509945Y311966D01*
X509879Y312040D01*
X509815Y312118D01*
X509755Y312197D01*
X509698Y312279D01*
X509644Y312363D01*
X509594Y312449D01*
X509547Y312537D01*
X509503Y312627D01*
X509463Y312718D01*
X509427Y312811D01*
X509394Y312905D01*
X509365Y313001D01*
X509340Y313097D01*
X509319Y313194D01*
X509301Y313293D01*
X509288Y313391D01*
X509278Y313491D01*
X509272Y313590D01*
X509270Y313690D01*
X529590Y311150D02*
X529690Y311152D01*
X529789Y311158D01*
X529889Y311168D01*
X529987Y311181D01*
X530086Y311199D01*
X530183Y311220D01*
X530279Y311245D01*
X530375Y311274D01*
X530469Y311307D01*
X530562Y311343D01*
X530653Y311383D01*
X530743Y311427D01*
X530831Y311474D01*
X530917Y311524D01*
X531001Y311578D01*
X531083Y311635D01*
X531162Y311695D01*
X531240Y311759D01*
X531314Y311825D01*
X531386Y311894D01*
X531455Y311966D01*
X531521Y312040D01*
X531585Y312118D01*
X531645Y312197D01*
X531702Y312279D01*
X531756Y312363D01*
X531806Y312449D01*
X531853Y312537D01*
X531897Y312627D01*
X531937Y312718D01*
X531973Y312811D01*
X532006Y312905D01*
X532035Y313001D01*
X532060Y313097D01*
X532081Y313194D01*
X532099Y313293D01*
X532112Y313391D01*
X532122Y313491D01*
X532128Y313590D01*
X532130Y313690D01*
X532130Y372110D02*
X532128Y372210D01*
X532122Y372309D01*
X532112Y372409D01*
X532099Y372507D01*
X532081Y372606D01*
X532060Y372703D01*
X532035Y372799D01*
X532006Y372895D01*
X531973Y372989D01*
X531937Y373082D01*
X531897Y373173D01*
X531853Y373263D01*
X531806Y373351D01*
X531756Y373437D01*
X531702Y373521D01*
X531645Y373603D01*
X531585Y373682D01*
X531521Y373760D01*
X531455Y373834D01*
X531386Y373906D01*
X531314Y373975D01*
X531240Y374041D01*
X531162Y374105D01*
X531083Y374165D01*
X531001Y374222D01*
X530917Y374276D01*
X530831Y374326D01*
X530743Y374373D01*
X530653Y374417D01*
X530562Y374457D01*
X530469Y374493D01*
X530375Y374526D01*
X530279Y374555D01*
X530183Y374580D01*
X530086Y374601D01*
X529987Y374619D01*
X529889Y374632D01*
X529789Y374642D01*
X529690Y374648D01*
X529590Y374650D01*
X511810Y374650D02*
X511710Y374648D01*
X511611Y374642D01*
X511511Y374632D01*
X511413Y374619D01*
X511314Y374601D01*
X511217Y374580D01*
X511121Y374555D01*
X511025Y374526D01*
X510931Y374493D01*
X510838Y374457D01*
X510747Y374417D01*
X510657Y374373D01*
X510569Y374326D01*
X510483Y374276D01*
X510399Y374222D01*
X510317Y374165D01*
X510238Y374105D01*
X510160Y374041D01*
X510086Y373975D01*
X510014Y373906D01*
X509945Y373834D01*
X509879Y373760D01*
X509815Y373682D01*
X509755Y373603D01*
X509698Y373521D01*
X509644Y373437D01*
X509594Y373351D01*
X509547Y373263D01*
X509503Y373173D01*
X509463Y373082D01*
X509427Y372989D01*
X509394Y372895D01*
X509365Y372799D01*
X509340Y372703D01*
X509319Y372606D01*
X509301Y372507D01*
X509288Y372409D01*
X509278Y372309D01*
X509272Y372210D01*
X509270Y372110D01*
X511810Y311150D02*
X529590Y311150D01*
X509270Y313690D02*
X509270Y317500D01*
X510540Y318770D01*
X532130Y317500D02*
X532130Y313690D01*
X532130Y317500D02*
X530860Y318770D01*
X510540Y367030D02*
X509270Y368300D01*
X510540Y367030D02*
X510540Y318770D01*
X530860Y367030D02*
X532130Y368300D01*
X530860Y367030D02*
X530860Y318770D01*
X509270Y368300D02*
X509270Y372110D01*
X532130Y372110D02*
X532130Y368300D01*
X529590Y374650D02*
X511810Y374650D01*
D11*
X504825Y313055D02*
X493395Y313055D01*
X493395Y316230D01*
X493397Y316341D01*
X493403Y316451D01*
X493412Y316562D01*
X493426Y316672D01*
X493443Y316781D01*
X493464Y316890D01*
X493489Y316998D01*
X493518Y317105D01*
X493550Y317211D01*
X493586Y317316D01*
X493626Y317419D01*
X493669Y317521D01*
X493716Y317622D01*
X493767Y317721D01*
X493820Y317818D01*
X493877Y317912D01*
X493938Y318005D01*
X494001Y318096D01*
X494068Y318185D01*
X494138Y318271D01*
X494211Y318354D01*
X494286Y318436D01*
X494364Y318514D01*
X494446Y318589D01*
X494529Y318662D01*
X494615Y318732D01*
X494704Y318799D01*
X494795Y318862D01*
X494888Y318923D01*
X494983Y318980D01*
X495079Y319033D01*
X495178Y319084D01*
X495279Y319131D01*
X495381Y319174D01*
X495484Y319214D01*
X495589Y319250D01*
X495695Y319282D01*
X495802Y319311D01*
X495910Y319336D01*
X496019Y319357D01*
X496128Y319374D01*
X496238Y319388D01*
X496349Y319397D01*
X496459Y319403D01*
X496570Y319405D01*
X496681Y319403D01*
X496791Y319397D01*
X496902Y319388D01*
X497012Y319374D01*
X497121Y319357D01*
X497230Y319336D01*
X497338Y319311D01*
X497445Y319282D01*
X497551Y319250D01*
X497656Y319214D01*
X497759Y319174D01*
X497861Y319131D01*
X497962Y319084D01*
X498061Y319033D01*
X498158Y318980D01*
X498252Y318923D01*
X498345Y318862D01*
X498436Y318799D01*
X498525Y318732D01*
X498611Y318662D01*
X498694Y318589D01*
X498776Y318514D01*
X498854Y318436D01*
X498929Y318354D01*
X499002Y318271D01*
X499072Y318185D01*
X499139Y318096D01*
X499202Y318005D01*
X499263Y317912D01*
X499320Y317818D01*
X499373Y317721D01*
X499424Y317622D01*
X499471Y317521D01*
X499514Y317419D01*
X499554Y317316D01*
X499590Y317211D01*
X499622Y317105D01*
X499651Y316998D01*
X499676Y316890D01*
X499697Y316781D01*
X499714Y316672D01*
X499728Y316562D01*
X499737Y316451D01*
X499743Y316341D01*
X499745Y316230D01*
X499745Y313055D01*
X499745Y316865D02*
X504825Y319405D01*
X502285Y324402D02*
X493395Y326942D01*
X502285Y324402D02*
X502285Y330752D01*
X499745Y328847D02*
X504825Y328847D01*
D17*
X520700Y378968D03*
X520700Y306832D03*
M02*
