G04 EAGLE Gerber X2 export*
%TF.Part,Single*%
%TF.FileFunction,Soldermask,Top,1*%
%TF.FilePolarity,Negative*%
%TF.GenerationSoftware,Autodesk,EAGLE,8.6.0*%
%TF.CreationDate,2018-11-01T12:35:15Z*%
G75*
%MOMM*%
%FSLAX34Y34*%
%LPD*%
%AMOC8*
5,1,8,0,0,1.08239X$1,22.5*%
G01*
%ADD10C,3.149600*%
%ADD11C,3.124200*%
%ADD12P,1.539592X8X292.500000*%
%ADD13C,1.422400*%
%ADD14P,1.649562X8X112.500000*%
%ADD15C,2.203200*%
%ADD16R,2.108200X8.458200*%
%ADD17C,1.524000*%
%ADD18P,1.649562X8X22.500000*%
%ADD19C,1.733200*%
%ADD20R,1.733200X1.733200*%
%ADD21C,3.203200*%
%ADD22P,1.649562X8X202.500000*%
%ADD23C,1.503200*%
%ADD24C,0.959600*%


D10*
X48260Y198120D03*
D11*
X529590Y452120D03*
D12*
X99060Y241300D03*
D13*
X99060Y259080D03*
D14*
X99060Y323850D03*
X80010Y311150D03*
X99060Y298450D03*
D15*
X142400Y390640D02*
X162400Y390640D01*
X162400Y451640D02*
X142400Y451640D01*
X104400Y431640D02*
X104400Y411640D01*
D16*
X385318Y48260D03*
X345694Y48260D03*
X306070Y48260D03*
X266446Y48260D03*
X226822Y48260D03*
X187198Y48260D03*
D17*
X318516Y295910D02*
X331724Y295910D01*
X331724Y270510D02*
X318516Y270510D01*
X394716Y270510D02*
X407924Y270510D01*
X407924Y295910D02*
X394716Y295910D01*
D18*
X185420Y266700D03*
X287020Y266700D03*
D19*
X391400Y426700D03*
X391400Y396700D03*
X421400Y426700D03*
X421400Y396700D03*
D20*
X361400Y426700D03*
D19*
X451400Y426700D03*
X361400Y396700D03*
X451400Y396700D03*
D21*
X382900Y469900D03*
X429900Y469900D03*
D22*
X278130Y401320D03*
X252730Y401320D03*
X252730Y375920D03*
X287020Y331470D03*
X185420Y331470D03*
X287020Y300990D03*
X185420Y300990D03*
D18*
X495300Y241300D03*
X520700Y241300D03*
D14*
X520700Y292100D03*
X520700Y393700D03*
D23*
X226822Y177800D03*
X306070Y177800D03*
D24*
X483870Y373380D03*
D23*
X345694Y177800D03*
X385318Y177800D03*
X190500Y177800D03*
X266446Y177800D03*
D24*
X406256Y373380D03*
M02*
