  0
SECTION
  2
HEADER
  9
$ACADVER
  1
AC1009
  9
$INSBASE
 10
0.0
 20
0.0
 30
0.0
  9
$EXTMIN
 10
0.0
 20
0.0
 30
0.0
  9
$EXTMAX
 10
10.12
 20
15.5
 30
0.0
  9
$LIMMIN
 10
0.0
 20
0.0
  9
$LIMMAX
 10
75.0
 20
50.0
  9
$ORTHOMODE
 70
     1
  9
$REGENMODE
 70
     1
  9
$FILLMODE
 70
     1
  9
$QTEXTMODE
 70
     0
  9
$MIRRTEXT
 70
     0
  9
$DRAGMODE
 70
     2
  9
$LTSCALE
 40
0.25
  9
$OSMODE
 70
     0
  9
$ATTMODE
 70
     1
  9
$TEXTSIZE
 40
0.125
  9
$TRACEWID
 40
0.05
  9
$TEXTSTYLE
  7
TXT
  9
$CLAYER
  8
OBJECT
  9
$CELTYPE
  6
BYLAYER
  9
$CECOLOR
 62
   256
  9
$DIMSCALE
 40
1.0
  9
$DIMASZ
 40
0.18
  9
$DIMEXO
 40
0.063
  9
$DIMDLI
 40
0.281
  9
$DIMRND
 40
0.0
  9
$DIMDLE
 40
0.0
  9
$DIMEXE
 40
0.093
  9
$DIMTP
 40
0.0
  9
$DIMTM
 40
0.0
  9
$DIMTXT
 40
0.125
  9
$DIMCEN
 40
0.09
  9
$DIMTSZ
 40
0.0
  9
$DIMTOL
 70
     0
  9
$DIMLIM
 70
     0
  9
$DIMTIH
 70
     1
  9
$DIMTOH
 70
     1
  9
$DIMSE1
 70
     0
  9
$DIMSE2
 70
     0
  9
$DIMTAD
 70
     0
  9
$DIMZIN
 70
     0
  9
$DIMBLK
  1

  9
$DIMASO
 70
     1
  9
$DIMSHO
 70
     1
  9
$DIMPOST
  1

  9
$DIMAPOST
  1

  9
$DIMALT
 70
     0
  9
$DIMALTD
 70
     2
  9
$DIMALTF
 40
25.4
  9
$DIMLFAC
 40
1.0
  9
$DIMTOFL
 70
     0
  9
$DIMTVP
 40
0.0
  9
$DIMTIX
 70
     0
  9
$DIMSOXD
 70
     0
  9
$DIMSAH
 70
     0
  9
$DIMBLK1
  1

  9
$DIMBLK2
  1

  9
$DIMSTYLE
  2
23NSTD
  9
$DIMCLRD
 70
     0
  9
$DIMCLRE
 70
     0
  9
$DIMCLRT
 70
     0
  9
$DIMTFAC
 40
1.0
  9
$DIMGAP
 40
0.09
  9
$LUNITS
 70
     2
  9
$LUPREC
 70
     3
  9
$SKETCHINC
 40
0.1
  9
$FILLETRAD
 40
0.0
  9
$AUNITS
 70
     0
  9
$AUPREC
 70
     0
  9
$MENU
  1
acad
  9
$ELEVATION
 40
0.0
  9
$PELEVATION
 40
0.0
  9
$THICKNESS
 40
0.0
  9
$LIMCHECK
 70
     0
  9
$BLIPMODE
 70
     1
  9
$CHAMFERA
 40
0.0
  9
$CHAMFERB
 40
0.0
  9
$SKPOLY
 70
     0
  9
$TDCREATE
 40
2451186.638646759
  9
$TDUPDATE
 40
2451193.605057060
  9
$TDINDWG
 40
0.0894456019
  9
$TDUSRTIMER
 40
0.0894456019
  9
$USRTIMER
 70
     1
  9
$ANGBASE
 50
0.0
  9
$ANGDIR
 70
     0
  9
$PDMODE
 70
     0
  9
$PDSIZE
 40
0.0
  9
$PLINEWID
 40
0.0
  9
$COORDS
 70
     0
  9
$SPLFRAME
 70
     0
  9
$SPLINETYPE
 70
     6
  9
$SPLINESEGS
 70
     8
  9
$ATTDIA
 70
     0
  9
$ATTREQ
 70
     1
  9
$HANDLING
 70
     0
  9
$HANDSEED
  5
0
  9
$SURFTAB1
 70
     6
  9
$SURFTAB2
 70
     6
  9
$SURFTYPE
 70
     6
  9
$SURFU
 70
     6
  9
$SURFV
 70
     6
  9
$UCSNAME
  2

  9
$UCSORG
 10
0.0
 20
0.0
 30
0.0
  9
$UCSXDIR
 10
1.0
 20
0.0
 30
0.0
  9
$UCSYDIR
 10
0.0
 20
1.0
 30
0.0
  9
$PUCSNAME
  2

  9
$PUCSORG
 10
0.0
 20
0.0
 30
0.0
  9
$PUCSXDIR
 10
1.0
 20
0.0
 30
0.0
  9
$PUCSYDIR
 10
0.0
 20
1.0
 30
0.0
  9
$USERI1
 70
     0
  9
$USERI2
 70
     0
  9
$USERI3
 70
     0
  9
$USERI4
 70
     0
  9
$USERI5
 70
     0
  9
$USERR1
 40
0.0
  9
$USERR2
 40
0.0
  9
$USERR3
 40
0.0
  9
$USERR4
 40
0.0
  9
$USERR5
 40
0.0
  9
$WORLDVIEW
 70
     1
  9
$SHADEDGE
 70
     3
  9
$SHADEDIF
 70
    70
  9
$TILEMODE
 70
     1
  9
$MAXACTVP
 70
    16
  9
$PINSBASE
 10
0.0
 20
0.0
 30
0.0
  9
$PLIMCHECK
 70
     0
  9
$PEXTMIN
 10
1.000000E+20
 20
1.000000E+20
 30
1.000000E+20
  9
$PEXTMAX
 10
-1.000000E+20
 20
-1.000000E+20
 30
-1.000000E+20
  9
$PLIMMIN
 10
0.0
 20
0.0
  9
$PLIMMAX
 10
12.0
 20
9.0
  9
$UNITMODE
 70
     0
  9
$VISRETAIN
 70
     0
  9
$PLINEGEN
 70
     0
  9
$PSLTSCALE
 70
     1
  9
$TREEDEPTH
 70
  3020
  9
$DWGCODEPAGE
  3
ascii
  0
ENDSEC
  0
SECTION
  2
TABLES
  0
TABLE
  2
VPORT
 70
     2
  0
VPORT
  2
*ACTIVE
 70
     0
 10
0.0
 20
0.0
 11
1.0
 21
1.0
 12
10.558131
 22
7.75
 13
0.0
 23
0.0
 14
1.0
 24
1.0
 15
0.0
 25
0.0
 16
0.0
 26
0.0
 36
1.0
 17
0.0
 27
0.0
 37
0.0
 40
15.5
 41
1.36234
 42
50.0
 43
0.0
 44
0.0
 50
0.0
 51
0.0
 71
     0
 72
   100
 73
     1
 74
     0
 75
     0
 76
     0
 77
     0
 78
     0
  0
ENDTAB
  0
TABLE
  2
LTYPE
 70
     7
  0
LTYPE
  2
CONTINUOUS
 70
    64
  3
Solid line
 72
    65
 73
     0
 40
0.0
  0
LTYPE
  2
HIDDEN
 70
    64
  3
_ _ _ _ _ _ _ _ _ _ _ _ _ _ _ _ _ _ _ _ _ _ _
 72
    65
 73
     2
 40
0.375
 49
0.25
 49
-0.125
  0
LTYPE
  2
PHANTOM
 70
    64
  3
_____ _ _ _____ _ _ _____ _ _ _____ _ _ ____
 72
    65
 73
     6
 40
2.5
 49
1.25
 49
-0.25
 49
0.25
 49
-0.25
 49
0.25
 49
-0.25
  0
LTYPE
  2
CENTER
 70
    64
  3
____ _ ____ _ ____ _ ____ _ ____ _ ____ _ ____
 72
    65
 73
     4
 40
2.0
 49
1.25
 49
-0.25
 49
0.25
 49
-0.25
  0
LTYPE
  2
HIDDEN2
 70
     0
  3
Hidden (.5x) _ _ _ _ _ _ _ _ _ _ _ _ _ _ _ _ _
 72
    65
 73
     2
 40
0.1875
 49
0.125
 49
-0.0625
  0
LTYPE
  2
PHANTOM2
 70
     0
  3
___ _ _ ___ _ _ ___ _ _ ___ _ _ ___ _ _ ___ _ _
 72
    65
 73
     6
 40
1.25
 49
0.625
 49
-0.125
 49
0.125
 49
-0.125
 49
0.125
 49
-0.125
  0
LTYPE
  2
CENTER2
 70
     0
  3
Center (.5x) ___ _ ___ _ ___ _ ___ _ ___ _ ___
 72
    65
 73
     4
 40
1.125
 49
0.75
 49
-0.125
 49
0.125
 49
-0.125
  0
ENDTAB
  0
TABLE
  2
LAYER
 70
     9
  0
LAYER
  2
0
 70
    64
 62
     7
  6
CONTINUOUS
  0
LAYER
  2
OBJECT
 70
    64
 62
     7
  6
CONTINUOUS
  0
LAYER
  2
DIM
 70
    64
 62
     7
  6
CONTINUOUS
  0
LAYER
  2
HIDDEN
 70
    64
 62
     7
  6
HIDDEN
  0
LAYER
  2
BEND
 70
    64
 62
     7
  6
PHANTOM
  0
LAYER
  2
TEXT
 70
    64
 62
     7
  6
CONTINUOUS
  0
LAYER
  2
TITLE
 70
    64
 62
     7
  6
CONTINUOUS
  0
LAYER
  2
CENTER
 70
    64
 62
     7
  6
CENTER
  0
LAYER
  2
DEFPOINTS
 70
    64
 62
     7
  6
CONTINUOUS
  0
ENDTAB
  0
TABLE
  2
STYLE
 70
     2
  0
STYLE
  2
STANDARD
 70
    64
 40
0.0
 41
1.0
 50
0.0
 71
     0
 42
0.2
  3
txt
  4

  0
STYLE
  2
TXT
 70
    64
 40
0.0
 41
0.75
 50
0.0
 71
     0
 42
0.125
  3
TXT.shx
  4

  0
ENDTAB
  0
TABLE
  2
VIEW
 70
     0
  0
ENDTAB
  0
TABLE
  2
UCS
 70
     0
  0
ENDTAB
  0
TABLE
  2
APPID
 70
     1
  0
APPID
  2
ACAD
 70
    64
  0
ENDTAB
  0
TABLE
  2
DIMSTYLE
 70
     2
  0
DIMSTYLE
  2
23NSTD
 70
    64
  3

  4

  5

  6

  7

 40
1.0
 41
0.18
 42
0.063
 43
0.281
 44
0.093
 45
0.0
 46
0.0
 47
0.0
 48
0.0
140
0.125
141
0.09
142
0.0
143
25.4
144
1.0
145
0.0
146
1.0
147
0.09
 71
     0
 72
     0
 73
     1
 74
     1
 75
     0
 76
     0
 77
     0
 78
     0
170
     0
171
     2
172
     0
173
     0
174
     0
175
     0
176
     0
177
     0
178
     0
  0
DIMSTYLE
  2
23NSTDI
 70
    64
  3

  4

  5

  6

  7

 40
1.0
 41
0.18
 42
0.063
 43
0.281
 44
0.093
 45
0.0
 46
0.0
 47
0.0
 48
0.0
140
0.125
141
0.09
142
0.0
143
25.4
144
1.0
145
0.0
146
1.0
147
0.09
 71
     0
 72
     0
 73
     1
 74
     1
 75
     0
 76
     0
 77
     0
 78
     0
170
     0
171
     2
172
     0
173
     0
174
     1
175
     0
176
     0
177
     0
178
     0
  0
ENDTAB
  0
ENDSEC
  0
SECTION
  2
BLOCKS
  0
BLOCK
  8
0
  2
HB
 70
    64
 10
0.0
 20
0.0
 30
0.0
  3
HB
  0
TEXT
  8
TEXT
 10
0.207833
 20
15.060079
 30
0.0
 40
0.125
  1
NAME
  7
TXT
 72
     1
 11
0.437
 21
15.060079
 31
0.0
  0
TEXT
  8
TEXT
 10
0.207833
 20
15.268413
 30
0.0
 40
0.125
  1
PART
  7
TXT
 72
     1
 11
0.437
 21
15.268413
 31
0.0
  0
TEXT
  8
TEXT
 10
5.372
 20
15.060079
 30
0.0
 40
0.125
  1
No.
  7
TXT
 72
     1
 11
5.497
 21
15.060079
 31
0.0
  0
TEXT
  8
TEXT
 10
5.267833
 20
15.268413
 30
0.0
 40
0.125
  1
PART
  7
TXT
 72
     1
 11
5.497
 21
15.268413
 31
0.0
  0
LINE
  8
TITLE
 10
5.872
 20
15.438
 30
0.0
 11
5.872
 21
15.02
 31
0.0
  0
LINE
  8
TITLE
 10
5.122
 20
15.438
 30
0.0
 11
5.122
 21
15.02
 31
0.0
  0
LINE
  8
TITLE
 10
5.06
 20
15.438
 30
0.0
 11
5.06
 21
15.02
 31
0.0
  0
LINE
  8
TITLE
 10
0.812
 20
15.02
 30
0.0
 11
0.812
 21
15.438
 31
0.0
  0
LINE
  8
TITLE
 10
0.062
 20
15.02
 30
0.0
 11
10.058
 21
15.02
 31
0.0
  0
LINE
  8
TITLE
 10
10.058
 20
0.062
 30
0.0
 11
0.062
 21
0.062
 31
0.0
  0
LINE
  8
TITLE
 10
10.058
 20
15.438
 30
0.0
 11
10.058
 21
0.062
 31
0.0
  0
LINE
  8
TITLE
 10
0.062
 20
15.438
 30
0.0
 11
10.058
 21
15.438
 31
0.0
  0
LINE
  8
TITLE
 10
0.062
 20
0.062
 30
0.0
 11
0.062
 21
15.438
 31
0.0
  0
LINE
  8
TITLE
 10
0.0
 20
0.0
 30
0.0
 11
0.0
 21
15.5
 31
0.0
  0
LINE
  8
TITLE
 10
10.12
 20
0.0
 30
0.0
 11
0.0
 21
0.0
 31
0.0
  0
LINE
  8
TITLE
 10
10.12
 20
15.5
 30
0.0
 11
10.12
 21
0.0
 31
0.0
  0
LINE
  8
TITLE
 10
0.0
 20
15.5
 30
0.0
 11
10.12
 21
15.5
 31
0.0
  0
ENDBLK
  8
0
  0
BLOCK
  8
0
  2
*D1
 70
    65
 10
0.0
 20
0.0
 30
0.0
  3
*D
  0
LINE
  8
0
  6
BYBLOCK
 62
     0
 10
17.829474
 20
7.62897
 30
0.0
 11
17.829474
 21
7.577043
 31
0.0
  0
LINE
  8
0
  6
BYBLOCK
 62
     0
 10
17.922474
 20
7.62897
 30
0.0
 11
17.922474
 21
7.577043
 31
0.0
  0
LINE
  8
0
  6
BYBLOCK
 62
     0
 10
17.649474
 20
7.670043
 30
0.0
 11
17.469474
 21
7.670043
 31
0.0
  0
LINE
  8
0
  6
BYBLOCK
 62
     0
 10
18.102474
 20
7.670043
 30
0.0
 11
18.282474
 21
7.670043
 31
0.0
  0
SOLID
  8
0
  6
BYBLOCK
 62
     0
 10
17.649474
 20
7.700043
 30
0.0
 11
17.649474
 21
7.640043
 31
0.0
 12
17.829474
 22
7.670043
 32
0.0
 13
17.829474
 23
7.670043
 33
0.0
  0
SOLID
  8
0
  6
BYBLOCK
 62
     0
 10
18.102474
 20
7.700043
 30
0.0
 11
18.102474
 21
7.640043
 31
0.0
 12
17.922474
 22
7.670043
 32
0.0
 13
17.922474
 23
7.670043
 33
0.0
  0
TEXT
  8
0
  6
BYBLOCK
 62
     0
 10
18.747474
 20
7.607543
 30
0.0
 40
0.125
  1
 TYP.
 41
0.75
  7
TXT
 72
     1
 11
18.934974
 21
7.670043
 31
0.0
 73
     2
  0
TEXT
  8
0
  6
BYBLOCK
 62
     0
 10
18.372474
 20
7.607543
 30
0.0
 40
0.125
  1
0.093
 41
0.75
  7
TXT
 72
     1
 11
18.544349
 21
7.670043
 31
0.0
 73
     2
  0
POINT
  8
DEFPOINTS
  6
BYBLOCK
 62
     0
 10
17.829474
 20
7.69197
 30
0.0
  0
POINT
  8
DEFPOINTS
  6
BYBLOCK
 62
     0
 10
17.922474
 20
7.69197
 30
0.0
  0
POINT
  8
DEFPOINTS
  6
BYBLOCK
 62
     0
 10
17.922474
 20
7.670043
 30
0.0
  0
ENDBLK
  8
0
  0
BLOCK
  8
0
  2
*D2
 70
    65
 10
0.0
 20
0.0
 30
0.0
  3
*D
  0
LINE
  8
0
  6
BYBLOCK
 62
     0
 10
4.700429
 20
3.957221
 30
0.0
 11
4.700429
 21
4.4042
 31
0.0
  0
LINE
  8
0
  6
BYBLOCK
 62
     0
 10
5.500429
 20
3.997847
 30
0.0
 11
5.500429
 21
4.4042
 31
0.0
  0
LINE
  8
0
  6
BYBLOCK
 62
     0
 10
4.520429
 20
4.3112
 30
0.0
 11
4.340429
 21
4.3112
 31
0.0
  0
LINE
  8
0
  6
BYBLOCK
 62
     0
 10
5.680429
 20
4.3112
 30
0.0
 11
5.860429
 21
4.3112
 31
0.0
  0
SOLID
  8
0
  6
BYBLOCK
 62
     0
 10
4.520429
 20
4.3412
 30
0.0
 11
4.520429
 21
4.2812
 31
0.0
 12
4.700429
 22
4.3112
 32
0.0
 13
4.700429
 23
4.3112
 33
0.0
  0
SOLID
  8
0
  6
BYBLOCK
 62
     0
 10
5.680429
 20
4.3412
 30
0.0
 11
5.680429
 21
4.2812
 31
0.0
 12
5.500429
 22
4.3112
 32
0.0
 13
5.500429
 23
4.3112
 33
0.0
  0
TEXT
  8
0
  6
BYBLOCK
 62
     0
 10
4.936367
 20
4.2487
 30
0.0
 40
0.125
  1
0.800
 41
0.75
  7
TXT
 72
     1
 11
5.100429
 21
4.3112
 31
0.0
 73
     2
  0
POINT
  8
DEFPOINTS
  6
BYBLOCK
 62
     0
 10
4.700429
 20
3.894221
 30
0.0
  0
POINT
  8
DEFPOINTS
  6
BYBLOCK
 62
     0
 10
5.500429
 20
3.934847
 30
0.0
  0
POINT
  8
DEFPOINTS
  6
BYBLOCK
 62
     0
 10
5.500429
 20
4.3112
 30
0.0
  0
ENDBLK
  8
0
  0
BLOCK
  8
0
  2
*D3
 70
    65
 10
0.0
 20
0.0
 30
0.0
  3
*D
  0
LINE
  8
0
  6
BYBLOCK
 62
     0
 10
4.700429
 20
11.635959
 30
0.0
 11
4.700429
 21
12.101439
 31
0.0
  0
LINE
  8
0
  6
BYBLOCK
 62
     0
 10
5.500429
 20
11.676584
 30
0.0
 11
5.500429
 21
12.101439
 31
0.0
  0
LINE
  8
0
  6
BYBLOCK
 62
     0
 10
4.520429
 20
12.008439
 30
0.0
 11
4.340429
 21
12.008439
 31
0.0
  0
LINE
  8
0
  6
BYBLOCK
 62
     0
 10
5.680429
 20
12.008439
 30
0.0
 11
5.860429
 21
12.008439
 31
0.0
  0
SOLID
  8
0
  6
BYBLOCK
 62
     0
 10
4.520429
 20
12.038439
 30
0.0
 11
4.520429
 21
11.978439
 31
0.0
 12
4.700429
 22
12.008439
 32
0.0
 13
4.700429
 23
12.008439
 33
0.0
  0
SOLID
  8
0
  6
BYBLOCK
 62
     0
 10
5.680429
 20
12.038439
 30
0.0
 11
5.680429
 21
11.978439
 31
0.0
 12
5.500429
 22
12.008439
 32
0.0
 13
5.500429
 23
12.008439
 33
0.0
  0
TEXT
  8
0
  6
BYBLOCK
 62
     0
 10
4.936367
 20
11.945939
 30
0.0
 40
0.125
  1
0.800
 41
0.75
  7
TXT
 72
     1
 11
5.100429
 21
12.008439
 31
0.0
 73
     2
  0
POINT
  8
DEFPOINTS
  6
BYBLOCK
 62
     0
 10
4.700429
 20
11.572959
 30
0.0
  0
POINT
  8
DEFPOINTS
  6
BYBLOCK
 62
     0
 10
5.500429
 20
11.613584
 30
0.0
  0
POINT
  8
DEFPOINTS
  6
BYBLOCK
 62
     0
 10
5.500429
 20
12.008439
 30
0.0
  0
ENDBLK
  8
0
  0
BLOCK
  8
0
  2
*D4
 70
    65
 10
0.0
 20
0.0
 30
0.0
  3
*D
  0
LINE
  8
0
  6
BYBLOCK
 62
     0
 10
2.082615
 20
1.563322
 30
0.0
 11
1.126075
 21
1.563322
 31
0.0
  0
LINE
  8
0
  6
BYBLOCK
 62
     0
 10
2.082615
 20
4.063322
 30
0.0
 11
1.126075
 21
4.063322
 31
0.0
  0
LINE
  8
0
  6
BYBLOCK
 62
     0
 10
1.219075
 20
1.743322
 30
0.0
 11
1.219075
 21
2.660822
 31
0.0
  0
LINE
  8
0
  6
BYBLOCK
 62
     0
 10
1.219075
 20
3.883322
 30
0.0
 11
1.219075
 21
2.965822
 31
0.0
  0
SOLID
  8
0
  6
BYBLOCK
 62
     0
 10
1.189075
 20
1.743322
 30
0.0
 11
1.249075
 21
1.743322
 31
0.0
 12
1.219075
 22
1.563322
 32
0.0
 13
1.219075
 23
1.563322
 33
0.0
  0
SOLID
  8
0
  6
BYBLOCK
 62
     0
 10
1.189075
 20
3.883322
 30
0.0
 11
1.249075
 21
3.883322
 31
0.0
 12
1.219075
 22
4.063322
 32
0.0
 13
1.219075
 23
4.063322
 33
0.0
  0
TEXT
  8
0
  6
BYBLOCK
 62
     0
 10
1.187825
 20
2.750822
 30
0.0
 40
0.125
  1
E
 41
0.75
  7
TXT
 72
     1
 11
1.219075
 21
2.813322
 31
0.0
 73
     2
  0
POINT
  8
DEFPOINTS
  6
BYBLOCK
 62
     0
 10
2.145615
 20
1.563322
 30
0.0
  0
POINT
  8
DEFPOINTS
  6
BYBLOCK
 62
     0
 10
2.145615
 20
4.063322
 30
0.0
  0
POINT
  8
DEFPOINTS
  6
BYBLOCK
 62
     0
 10
1.219075
 20
4.063322
 30
0.0
  0
ENDBLK
  8
0
  0
BLOCK
  8
0
  2
*D5
 70
    65
 10
0.0
 20
0.0
 30
0.0
  3
*D
  0
LINE
  8
0
  6
BYBLOCK
 62
     0
 10
1.917615
 20
11.57706
 30
0.0
 11
1.917615
 21
12.366482
 31
0.0
  0
LINE
  8
0
  6
BYBLOCK
 62
     0
 10
3.547615
 20
11.57706
 30
0.0
 11
3.547615
 21
12.366482
 31
0.0
  0
LINE
  8
0
  6
BYBLOCK
 62
     0
 10
2.097615
 20
12.273482
 30
0.0
 11
2.611365
 21
12.273482
 31
0.0
  0
LINE
  8
0
  6
BYBLOCK
 62
     0
 10
3.367615
 20
12.273482
 30
0.0
 11
2.853865
 21
12.273482
 31
0.0
  0
SOLID
  8
0
  6
BYBLOCK
 62
     0
 10
2.097615
 20
12.303482
 30
0.0
 11
2.097615
 21
12.243482
 31
0.0
 12
1.917615
 22
12.273482
 32
0.0
 13
1.917615
 23
12.273482
 33
0.0
  0
SOLID
  8
0
  6
BYBLOCK
 62
     0
 10
3.367615
 20
12.303482
 30
0.0
 11
3.367615
 21
12.243482
 31
0.0
 12
3.547615
 22
12.273482
 32
0.0
 13
3.547615
 23
12.273482
 33
0.0
  0
TEXT
  8
0
  6
BYBLOCK
 62
     0
 10
2.701365
 20
12.210982
 30
0.0
 40
0.125
  1
A
 41
0.75
  7
TXT
 72
     1
 11
2.732615
 21
12.273482
 31
0.0
 73
     2
  0
POINT
  8
DEFPOINTS
  6
BYBLOCK
 62
     0
 10
1.917615
 20
11.51406
 30
0.0
  0
POINT
  8
DEFPOINTS
  6
BYBLOCK
 62
     0
 10
3.547615
 20
11.51406
 30
0.0
  0
POINT
  8
DEFPOINTS
  6
BYBLOCK
 62
     0
 10
3.547615
 20
12.273482
 30
0.0
  0
ENDBLK
  8
0
  0
BLOCK
  8
0
  2
*D6
 70
    65
 10
0.0
 20
0.0
 30
0.0
  3
*D
  0
LINE
  8
0
  6
BYBLOCK
 62
     0
 10
2.017829
 20
9.24206
 30
0.0
 11
1.06129
 21
9.24206
 31
0.0
  0
LINE
  8
0
  6
BYBLOCK
 62
     0
 10
2.017829
 20
11.74206
 30
0.0
 11
1.06129
 21
11.74206
 31
0.0
  0
LINE
  8
0
  6
BYBLOCK
 62
     0
 10
1.15429
 20
9.42206
 30
0.0
 11
1.15429
 21
10.33956
 31
0.0
  0
LINE
  8
0
  6
BYBLOCK
 62
     0
 10
1.15429
 20
11.56206
 30
0.0
 11
1.15429
 21
10.64456
 31
0.0
  0
SOLID
  8
0
  6
BYBLOCK
 62
     0
 10
1.12429
 20
9.42206
 30
0.0
 11
1.18429
 21
9.42206
 31
0.0
 12
1.15429
 22
9.24206
 32
0.0
 13
1.15429
 23
9.24206
 33
0.0
  0
SOLID
  8
0
  6
BYBLOCK
 62
     0
 10
1.12429
 20
11.56206
 30
0.0
 11
1.18429
 21
11.56206
 31
0.0
 12
1.15429
 22
11.74206
 32
0.0
 13
1.15429
 23
11.74206
 33
0.0
  0
TEXT
  8
0
  6
BYBLOCK
 62
     0
 10
1.12304
 20
10.42956
 30
0.0
 40
0.125
  1
D
 41
0.75
  7
TXT
 72
     1
 11
1.15429
 21
10.49206
 31
0.0
 73
     2
  0
POINT
  8
DEFPOINTS
  6
BYBLOCK
 62
     0
 10
2.080829
 20
9.24206
 30
0.0
  0
POINT
  8
DEFPOINTS
  6
BYBLOCK
 62
     0
 10
2.080829
 20
11.74206
 30
0.0
  0
POINT
  8
DEFPOINTS
  6
BYBLOCK
 62
     0
 10
1.15429
 20
11.74206
 30
0.0
  0
ENDBLK
  8
0
  0
BLOCK
  8
0
  2
*D7
 70
    65
 10
0.0
 20
0.0
 30
0.0
  3
*D
  0
LINE
  8
0
  6
BYBLOCK
 62
     0
 10
1.945829
 20
11.57706
 30
0.0
 11
1.945829
 21
12.101439
 31
0.0
  0
LINE
  8
0
  6
BYBLOCK
 62
     0
 10
3.389829
 20
11.57706
 30
0.0
 11
3.389829
 21
12.101439
 31
0.0
  0
LINE
  8
0
  6
BYBLOCK
 62
     0
 10
2.125829
 20
12.008439
 30
0.0
 11
2.546579
 21
12.008439
 31
0.0
  0
LINE
  8
0
  6
BYBLOCK
 62
     0
 10
3.209829
 20
12.008439
 30
0.0
 11
2.789079
 21
12.008439
 31
0.0
  0
SOLID
  8
0
  6
BYBLOCK
 62
     0
 10
2.125829
 20
12.038439
 30
0.0
 11
2.125829
 21
11.978439
 31
0.0
 12
1.945829
 22
12.008439
 32
0.0
 13
1.945829
 23
12.008439
 33
0.0
  0
SOLID
  8
0
  6
BYBLOCK
 62
     0
 10
3.209829
 20
12.038439
 30
0.0
 11
3.209829
 21
11.978439
 31
0.0
 12
3.389829
 22
12.008439
 32
0.0
 13
3.389829
 23
12.008439
 33
0.0
  0
TEXT
  8
0
  6
BYBLOCK
 62
     0
 10
2.636579
 20
11.945939
 30
0.0
 40
0.125
  1
B
 41
0.75
  7
TXT
 72
     1
 11
2.667829
 21
12.008439
 31
0.0
 73
     2
  0
POINT
  8
DEFPOINTS
  6
BYBLOCK
 62
     0
 10
1.945829
 20
11.51406
 30
0.0
  0
POINT
  8
DEFPOINTS
  6
BYBLOCK
 62
     0
 10
3.389829
 20
11.51406
 30
0.0
  0
POINT
  8
DEFPOINTS
  6
BYBLOCK
 62
     0
 10
3.389829
 20
12.008439
 30
0.0
  0
ENDBLK
  8
0
  0
BLOCK
  8
0
  2
*D8
 70
    65
 10
0.0
 20
0.0
 30
0.0
  3
*D
  0
LINE
  8
0
  6
BYBLOCK
 62
     0
 10
2.017829
 20
9.33506
 30
0.0
 11
1.427039
 21
9.33506
 31
0.0
  0
LINE
  8
0
  6
BYBLOCK
 62
     0
 10
2.017829
 20
11.64906
 30
0.0
 11
1.427039
 21
11.64906
 31
0.0
  0
LINE
  8
0
  6
BYBLOCK
 62
     0
 10
1.520039
 20
9.51506
 30
0.0
 11
1.520039
 21
10.33956
 31
0.0
  0
LINE
  8
0
  6
BYBLOCK
 62
     0
 10
1.520039
 20
11.46906
 30
0.0
 11
1.520039
 21
10.64456
 31
0.0
  0
SOLID
  8
0
  6
BYBLOCK
 62
     0
 10
1.490039
 20
9.51506
 30
0.0
 11
1.550039
 21
9.51506
 31
0.0
 12
1.520039
 22
9.33506
 32
0.0
 13
1.520039
 23
9.33506
 33
0.0
  0
SOLID
  8
0
  6
BYBLOCK
 62
     0
 10
1.490039
 20
11.46906
 30
0.0
 11
1.550039
 21
11.46906
 31
0.0
 12
1.520039
 22
11.64906
 32
0.0
 13
1.520039
 23
11.64906
 33
0.0
  0
TEXT
  8
0
  6
BYBLOCK
 62
     0
 10
1.488789
 20
10.42956
 30
0.0
 40
0.125
  1
E
 41
0.75
  7
TXT
 72
     1
 11
1.520039
 21
10.49206
 31
0.0
 73
     2
  0
POINT
  8
DEFPOINTS
  6
BYBLOCK
 62
     0
 10
2.080829
 20
9.33506
 30
0.0
  0
POINT
  8
DEFPOINTS
  6
BYBLOCK
 62
     0
 10
2.080829
 20
11.64906
 30
0.0
  0
POINT
  8
DEFPOINTS
  6
BYBLOCK
 62
     0
 10
1.520039
 20
11.64906
 30
0.0
  0
ENDBLK
  8
0
  0
BLOCK
  8
0
  2
*D9
 70
    65
 10
0.0
 20
0.0
 30
0.0
  3
*D
  0
LINE
  8
0
  6
BYBLOCK
 62
     0
 10
4.512692
 20
10.867689
 30
0.0
 11
4.512692
 21
10.905708
 31
0.0
  0
LINE
  8
0
  6
BYBLOCK
 62
     0
 10
5.126692
 20
10.867689
 30
0.0
 11
5.126692
 21
10.905708
 31
0.0
  0
LINE
  8
0
  6
BYBLOCK
 62
     0
 10
4.332692
 20
10.812708
 30
0.0
 11
4.152692
 21
10.812708
 31
0.0
  0
LINE
  8
0
  6
BYBLOCK
 62
     0
 10
5.306692
 20
10.812708
 30
0.0
 11
5.486692
 21
10.812708
 31
0.0
  0
SOLID
  8
0
  6
BYBLOCK
 62
     0
 10
4.332692
 20
10.842708
 30
0.0
 11
4.332692
 21
10.782708
 31
0.0
 12
4.512692
 22
10.812708
 32
0.0
 13
4.512692
 23
10.812708
 33
0.0
  0
SOLID
  8
0
  6
BYBLOCK
 62
     0
 10
5.306692
 20
10.842708
 30
0.0
 11
5.306692
 21
10.782708
 31
0.0
 12
5.126692
 22
10.812708
 32
0.0
 13
5.126692
 23
10.812708
 33
0.0
  0
TEXT
  8
0
  6
BYBLOCK
 62
     0
 10
5.576692
 20
10.750208
 30
0.0
 40
0.125
  1
0.614
 41
0.75
  7
TXT
 72
     1
 11
5.740754
 21
10.812708
 31
0.0
 73
     2
  0
POINT
  8
DEFPOINTS
  6
BYBLOCK
 62
     0
 10
4.512692
 20
10.804689
 30
0.0
  0
POINT
  8
DEFPOINTS
  6
BYBLOCK
 62
     0
 10
5.126692
 20
10.804689
 30
0.0
  0
POINT
  8
DEFPOINTS
  6
BYBLOCK
 62
     0
 10
5.126692
 20
10.812708
 30
0.0
  0
ENDBLK
  8
0
  0
BLOCK
  8
0
  2
*D10
 70
    65
 10
0.0
 20
0.0
 30
0.0
  3
*D
  0
LINE
  8
0
  6
BYBLOCK
 62
     0
 10
4.868692
 20
9.17906
 30
0.0
 11
4.868692
 21
8.88706
 31
0.0
  0
LINE
  8
0
  6
BYBLOCK
 62
     0
 10
5.219692
 20
9.307535
 30
0.0
 11
5.219692
 21
8.88706
 31
0.0
  0
LINE
  8
0
  6
BYBLOCK
 62
     0
 10
4.688692
 20
8.98006
 30
0.0
 11
4.508692
 21
8.98006
 31
0.0
  0
LINE
  8
0
  6
BYBLOCK
 62
     0
 10
5.399692
 20
8.98006
 30
0.0
 11
5.579692
 21
8.98006
 31
0.0
  0
SOLID
  8
0
  6
BYBLOCK
 62
     0
 10
4.688692
 20
9.01006
 30
0.0
 11
4.688692
 21
8.95006
 31
0.0
 12
4.868692
 22
8.98006
 32
0.0
 13
4.868692
 23
8.98006
 33
0.0
  0
SOLID
  8
0
  6
BYBLOCK
 62
     0
 10
5.399692
 20
9.01006
 30
0.0
 11
5.399692
 21
8.95006
 31
0.0
 12
5.219692
 22
8.98006
 32
0.0
 13
5.219692
 23
8.98006
 33
0.0
  0
TEXT
  8
0
  6
BYBLOCK
 62
     0
 10
5.669692
 20
8.91756
 30
0.0
 40
0.125
  1
0.351
 41
0.75
  7
TXT
 72
     1
 11
5.833754
 21
8.98006
 31
0.0
 73
     2
  0
POINT
  8
DEFPOINTS
  6
BYBLOCK
 62
     0
 10
4.868692
 20
9.24206
 30
0.0
  0
POINT
  8
DEFPOINTS
  6
BYBLOCK
 62
     0
 10
5.219692
 20
9.370535
 30
0.0
  0
POINT
  8
DEFPOINTS
  6
BYBLOCK
 62
     0
 10
5.219692
 20
8.98006
 30
0.0
  0
ENDBLK
  8
0
  0
BLOCK
  8
0
  2
*D11
 70
    65
 10
0.0
 20
0.0
 30
0.0
  3
*D
  0
LINE
  8
0
  6
BYBLOCK
 62
     0
 10
8.333198
 20
9.91806
 30
0.0
 11
8.333198
 21
8.88706
 31
0.0
  0
LINE
  8
0
  6
BYBLOCK
 62
     0
 10
7.303198
 20
9.91806
 30
0.0
 11
7.303198
 21
8.88706
 31
0.0
  0
LINE
  8
0
  6
BYBLOCK
 62
     0
 10
8.513198
 20
8.98006
 30
0.0
 11
8.693198
 21
8.98006
 31
0.0
  0
LINE
  8
0
  6
BYBLOCK
 62
     0
 10
7.123198
 20
8.98006
 30
0.0
 11
6.943198
 21
8.98006
 31
0.0
  0
SOLID
  8
0
  6
BYBLOCK
 62
     0
 10
8.513198
 20
9.01006
 30
0.0
 11
8.513198
 21
8.95006
 31
0.0
 12
8.333198
 22
8.98006
 32
0.0
 13
8.333198
 23
8.98006
 33
0.0
  0
SOLID
  8
0
  6
BYBLOCK
 62
     0
 10
7.123198
 20
9.01006
 30
0.0
 11
7.123198
 21
8.95006
 31
0.0
 12
7.303198
 22
8.98006
 32
0.0
 13
7.303198
 23
8.98006
 33
0.0
  0
TEXT
  8
0
  6
BYBLOCK
 62
     0
 10
7.661948
 20
8.91756
 30
0.0
 40
0.125
  1
1.030
 41
0.75
  7
TXT
 72
     1
 11
7.818198
 21
8.98006
 31
0.0
 73
     2
  0
POINT
  8
DEFPOINTS
  6
BYBLOCK
 62
     0
 10
8.333198
 20
9.98106
 30
0.0
  0
POINT
  8
DEFPOINTS
  6
BYBLOCK
 62
     0
 10
7.303198
 20
9.98106
 30
0.0
  0
POINT
  8
DEFPOINTS
  6
BYBLOCK
 62
     0
 10
7.303198
 20
8.98006
 30
0.0
  0
ENDBLK
  8
0
  0
BLOCK
  8
0
  2
*D12
 70
    65
 10
0.0
 20
0.0
 30
0.0
  3
*D
  0
LINE
  8
0
  6
BYBLOCK
 62
     0
 10
7.255198
 20
9.55706
 30
0.0
 11
6.550491
 21
9.55706
 31
0.0
  0
LINE
  8
0
  6
BYBLOCK
 62
     0
 10
8.255198
 20
11.42706
 30
0.0
 11
6.550491
 21
11.42706
 31
0.0
  0
LINE
  8
0
  6
BYBLOCK
 62
     0
 10
6.643491
 20
9.73706
 30
0.0
 11
6.643491
 21
10.33956
 31
0.0
  0
LINE
  8
0
  6
BYBLOCK
 62
     0
 10
6.643491
 20
11.24706
 30
0.0
 11
6.643491
 21
10.64456
 31
0.0
  0
SOLID
  8
0
  6
BYBLOCK
 62
     0
 10
6.613491
 20
9.73706
 30
0.0
 11
6.673491
 21
9.73706
 31
0.0
 12
6.643491
 22
9.55706
 32
0.0
 13
6.643491
 23
9.55706
 33
0.0
  0
SOLID
  8
0
  6
BYBLOCK
 62
     0
 10
6.613491
 20
11.24706
 30
0.0
 11
6.673491
 21
11.24706
 31
0.0
 12
6.643491
 22
11.42706
 32
0.0
 13
6.643491
 23
11.42706
 33
0.0
  0
TEXT
  8
0
  6
BYBLOCK
 62
     0
 10
6.612241
 20
10.42956
 30
0.0
 40
0.125
  1
F
 41
0.75
  7
TXT
 72
     1
 11
6.643491
 21
10.49206
 31
0.0
 73
     2
  0
POINT
  8
DEFPOINTS
  6
BYBLOCK
 62
     0
 10
7.318198
 20
9.55706
 30
0.0
  0
POINT
  8
DEFPOINTS
  6
BYBLOCK
 62
     0
 10
8.318198
 20
11.42706
 30
0.0
  0
POINT
  8
DEFPOINTS
  6
BYBLOCK
 62
     0
 10
6.643491
 20
11.42706
 30
0.0
  0
ENDBLK
  8
0
  0
BLOCK
  8
0
  2
*D13
 70
    65
 10
0.0
 20
0.0
 30
0.0
  3
*D
  0
LINE
  8
0
  6
BYBLOCK
 62
     0
 10
7.318198
 20
9.62006
 30
0.0
 11
7.318198
 21
12.082937
 31
0.0
  0
LINE
  8
0
  6
BYBLOCK
 62
     0
 10
8.318198
 20
11.49006
 30
0.0
 11
8.318198
 21
12.082937
 31
0.0
  0
LINE
  8
0
  6
BYBLOCK
 62
     0
 10
7.498198
 20
11.989937
 30
0.0
 11
7.696948
 21
11.989937
 31
0.0
  0
LINE
  8
0
  6
BYBLOCK
 62
     0
 10
8.138198
 20
11.989937
 30
0.0
 11
7.939448
 21
11.989937
 31
0.0
  0
SOLID
  8
0
  6
BYBLOCK
 62
     0
 10
7.498198
 20
12.019937
 30
0.0
 11
7.498198
 21
11.959937
 31
0.0
 12
7.318198
 22
11.989937
 32
0.0
 13
7.318198
 23
11.989937
 33
0.0
  0
SOLID
  8
0
  6
BYBLOCK
 62
     0
 10
8.138198
 20
12.019937
 30
0.0
 11
8.138198
 21
11.959937
 31
0.0
 12
8.318198
 22
11.989937
 32
0.0
 13
8.318198
 23
11.989937
 33
0.0
  0
TEXT
  8
0
  6
BYBLOCK
 62
     0
 10
7.786948
 20
11.927437
 30
0.0
 40
0.125
  1
C
 41
0.75
  7
TXT
 72
     1
 11
7.818198
 21
11.989937
 31
0.0
 73
     2
  0
POINT
  8
DEFPOINTS
  6
BYBLOCK
 62
     0
 10
7.318198
 20
9.55706
 30
0.0
  0
POINT
  8
DEFPOINTS
  6
BYBLOCK
 62
     0
 10
8.318198
 20
11.42706
 30
0.0
  0
POINT
  8
DEFPOINTS
  6
BYBLOCK
 62
     0
 10
8.318198
 20
11.989937
 30
0.0
  0
ENDBLK
  8
0
  0
BLOCK
  8
0
  2
*D14
 70
    65
 10
0.0
 20
0.0
 30
0.0
  3
*D
  0
LINE
  8
0
  6
BYBLOCK
 62
     0
 10
8.396198
 20
11.26106
 30
0.0
 11
9.054838
 21
11.26106
 31
0.0
  0
LINE
  8
0
  6
BYBLOCK
 62
     0
 10
8.468198
 20
11.74206
 30
0.0
 11
9.054838
 21
11.74206
 31
0.0
  0
LINE
  8
0
  6
BYBLOCK
 62
     0
 10
8.961838
 20
11.08106
 30
0.0
 11
8.961838
 21
10.90106
 31
0.0
  0
LINE
  8
0
  6
BYBLOCK
 62
     0
 10
8.961838
 20
11.92206
 30
0.0
 11
8.961838
 21
12.10206
 31
0.0
  0
SOLID
  8
0
  6
BYBLOCK
 62
     0
 10
8.931838
 20
11.08106
 30
0.0
 11
8.991838
 21
11.08106
 31
0.0
 12
8.961838
 22
11.26106
 32
0.0
 13
8.961838
 23
11.26106
 33
0.0
  0
SOLID
  8
0
  6
BYBLOCK
 62
     0
 10
8.931838
 20
11.92206
 30
0.0
 11
8.991838
 21
11.92206
 31
0.0
 12
8.961838
 22
11.74206
 32
0.0
 13
8.961838
 23
11.74206
 33
0.0
  0
TEXT
  8
0
  6
BYBLOCK
 62
     0
 10
8.930588
 20
11.43906
 30
0.0
 40
0.125
  1
G
 41
0.75
  7
TXT
 72
     1
 11
8.961838
 21
11.50156
 31
0.0
 73
     2
  0
POINT
  8
DEFPOINTS
  6
BYBLOCK
 62
     0
 10
8.333198
 20
11.26106
 30
0.0
  0
POINT
  8
DEFPOINTS
  6
BYBLOCK
 62
     0
 10
8.405198
 20
11.74206
 30
0.0
  0
POINT
  8
DEFPOINTS
  6
BYBLOCK
 62
     0
 10
8.961838
 20
11.74206
 30
0.0
  0
ENDBLK
  8
0
  0
BLOCK
  8
0
  2
*D15
 70
    65
 10
0.0
 20
0.0
 30
0.0
  3
*D
  0
LINE
  8
0
  6
BYBLOCK
 62
     0
 10
8.396198
 20
11.26106
 30
0.0
 11
9.054838
 21
11.26106
 31
0.0
  0
LINE
  8
0
  6
BYBLOCK
 62
     0
 10
8.396198
 20
9.98106
 30
0.0
 11
9.054838
 21
9.98106
 31
0.0
  0
LINE
  8
0
  6
BYBLOCK
 62
     0
 10
8.961838
 20
11.08106
 30
0.0
 11
8.961838
 21
10.77356
 31
0.0
  0
LINE
  8
0
  6
BYBLOCK
 62
     0
 10
8.961838
 20
10.16106
 30
0.0
 11
8.961838
 21
10.46856
 31
0.0
  0
SOLID
  8
0
  6
BYBLOCK
 62
     0
 10
8.931838
 20
11.08106
 30
0.0
 11
8.991838
 21
11.08106
 31
0.0
 12
8.961838
 22
11.26106
 32
0.0
 13
8.961838
 23
11.26106
 33
0.0
  0
SOLID
  8
0
  6
BYBLOCK
 62
     0
 10
8.931838
 20
10.16106
 30
0.0
 11
8.991838
 21
10.16106
 31
0.0
 12
8.961838
 22
9.98106
 32
0.0
 13
8.961838
 23
9.98106
 33
0.0
  0
TEXT
  8
0
  6
BYBLOCK
 62
     0
 10
8.797776
 20
10.55856
 30
0.0
 40
0.125
  1
1.280
 41
0.75
  7
TXT
 72
     1
 11
8.961838
 21
10.62106
 31
0.0
 73
     2
  0
POINT
  8
DEFPOINTS
  6
BYBLOCK
 62
     0
 10
8.333198
 20
11.26106
 30
0.0
  0
POINT
  8
DEFPOINTS
  6
BYBLOCK
 62
     0
 10
8.333198
 20
9.98106
 30
0.0
  0
POINT
  8
DEFPOINTS
  6
BYBLOCK
 62
     0
 10
8.961838
 20
9.98106
 30
0.0
  0
ENDBLK
  8
0
  0
BLOCK
  8
0
  2
*D16
 70
    65
 10
0.0
 20
0.0
 30
0.0
  3
*D
  0
LINE
  8
0
  6
BYBLOCK
 62
     0
 10
7.318198
 20
1.941322
 30
0.0
 11
7.318198
 21
4.4042
 31
0.0
  0
LINE
  8
0
  6
BYBLOCK
 62
     0
 10
8.318198
 20
3.811322
 30
0.0
 11
8.318198
 21
4.4042
 31
0.0
  0
LINE
  8
0
  6
BYBLOCK
 62
     0
 10
7.498198
 20
4.3112
 30
0.0
 11
7.696948
 21
4.3112
 31
0.0
  0
LINE
  8
0
  6
BYBLOCK
 62
     0
 10
8.138198
 20
4.3112
 30
0.0
 11
7.939448
 21
4.3112
 31
0.0
  0
SOLID
  8
0
  6
BYBLOCK
 62
     0
 10
7.498198
 20
4.3412
 30
0.0
 11
7.498198
 21
4.2812
 31
0.0
 12
7.318198
 22
4.3112
 32
0.0
 13
7.318198
 23
4.3112
 33
0.0
  0
SOLID
  8
0
  6
BYBLOCK
 62
     0
 10
8.138198
 20
4.3412
 30
0.0
 11
8.138198
 21
4.2812
 31
0.0
 12
8.318198
 22
4.3112
 32
0.0
 13
8.318198
 23
4.3112
 33
0.0
  0
TEXT
  8
0
  6
BYBLOCK
 62
     0
 10
7.786948
 20
4.2487
 30
0.0
 40
0.125
  1
D
 41
0.75
  7
TXT
 72
     1
 11
7.818198
 21
4.3112
 31
0.0
 73
     2
  0
POINT
  8
DEFPOINTS
  6
BYBLOCK
 62
     0
 10
7.318198
 20
1.878322
 30
0.0
  0
POINT
  8
DEFPOINTS
  6
BYBLOCK
 62
     0
 10
8.318198
 20
3.748322
 30
0.0
  0
POINT
  8
DEFPOINTS
  6
BYBLOCK
 62
     0
 10
8.318198
 20
4.3112
 30
0.0
  0
ENDBLK
  8
0
  0
BLOCK
  8
0
  2
*D17
 70
    65
 10
0.0
 20
0.0
 30
0.0
  3
*D
  0
LINE
  8
0
  6
BYBLOCK
 62
     0
 10
8.396198
 20
3.582322
 30
0.0
 11
9.054838
 21
3.582322
 31
0.0
  0
LINE
  8
0
  6
BYBLOCK
 62
     0
 10
8.468198
 20
4.063322
 30
0.0
 11
9.054838
 21
4.063322
 31
0.0
  0
LINE
  8
0
  6
BYBLOCK
 62
     0
 10
8.961838
 20
3.402322
 30
0.0
 11
8.961838
 21
3.222322
 31
0.0
  0
LINE
  8
0
  6
BYBLOCK
 62
     0
 10
8.961838
 20
4.243322
 30
0.0
 11
8.961838
 21
4.423322
 31
0.0
  0
SOLID
  8
0
  6
BYBLOCK
 62
     0
 10
8.931838
 20
3.402322
 30
0.0
 11
8.991838
 21
3.402322
 31
0.0
 12
8.961838
 22
3.582322
 32
0.0
 13
8.961838
 23
3.582322
 33
0.0
  0
SOLID
  8
0
  6
BYBLOCK
 62
     0
 10
8.931838
 20
4.243322
 30
0.0
 11
8.991838
 21
4.243322
 31
0.0
 12
8.961838
 22
4.063322
 32
0.0
 13
8.961838
 23
4.063322
 33
0.0
  0
TEXT
  8
0
  6
BYBLOCK
 62
     0
 10
8.930588
 20
3.760322
 30
0.0
 40
0.125
  1
J
 41
0.75
  7
TXT
 72
     1
 11
8.961838
 21
3.822822
 31
0.0
 73
     2
  0
POINT
  8
DEFPOINTS
  6
BYBLOCK
 62
     0
 10
8.333198
 20
3.582322
 30
0.0
  0
POINT
  8
DEFPOINTS
  6
BYBLOCK
 62
     0
 10
8.405198
 20
4.063322
 30
0.0
  0
POINT
  8
DEFPOINTS
  6
BYBLOCK
 62
     0
 10
8.961838
 20
4.063322
 30
0.0
  0
ENDBLK
  8
0
  0
BLOCK
  8
0
  2
*D18
 70
    65
 10
0.0
 20
0.0
 30
0.0
  3
*D
  0
LINE
  8
0
  6
BYBLOCK
 62
     0
 10
8.396198
 20
3.582322
 30
0.0
 11
9.054838
 21
3.582322
 31
0.0
  0
LINE
  8
0
  6
BYBLOCK
 62
     0
 10
8.396198
 20
2.302322
 30
0.0
 11
9.054838
 21
2.302322
 31
0.0
  0
LINE
  8
0
  6
BYBLOCK
 62
     0
 10
8.961838
 20
3.402322
 30
0.0
 11
8.961838
 21
3.094822
 31
0.0
  0
LINE
  8
0
  6
BYBLOCK
 62
     0
 10
8.961838
 20
2.482322
 30
0.0
 11
8.961838
 21
2.789822
 31
0.0
  0
SOLID
  8
0
  6
BYBLOCK
 62
     0
 10
8.931838
 20
3.402322
 30
0.0
 11
8.991838
 21
3.402322
 31
0.0
 12
8.961838
 22
3.582322
 32
0.0
 13
8.961838
 23
3.582322
 33
0.0
  0
SOLID
  8
0
  6
BYBLOCK
 62
     0
 10
8.931838
 20
2.482322
 30
0.0
 11
8.991838
 21
2.482322
 31
0.0
 12
8.961838
 22
2.302322
 32
0.0
 13
8.961838
 23
2.302322
 33
0.0
  0
TEXT
  8
0
  6
BYBLOCK
 62
     0
 10
8.797776
 20
2.879822
 30
0.0
 40
0.125
  1
1.280
 41
0.75
  7
TXT
 72
     1
 11
8.961838
 21
2.942322
 31
0.0
 73
     2
  0
POINT
  8
DEFPOINTS
  6
BYBLOCK
 62
     0
 10
8.333198
 20
3.582322
 30
0.0
  0
POINT
  8
DEFPOINTS
  6
BYBLOCK
 62
     0
 10
8.333198
 20
2.302322
 30
0.0
  0
POINT
  8
DEFPOINTS
  6
BYBLOCK
 62
     0
 10
8.961838
 20
2.302322
 30
0.0
  0
ENDBLK
  8
0
  0
BLOCK
  8
0
  2
*D19
 70
    65
 10
0.0
 20
0.0
 30
0.0
  3
*D
  0
LINE
  8
0
  6
BYBLOCK
 62
     0
 10
7.255198
 20
1.878322
 30
0.0
 11
6.550491
 21
1.878322
 31
0.0
  0
LINE
  8
0
  6
BYBLOCK
 62
     0
 10
8.255198
 20
3.748322
 30
0.0
 11
6.550491
 21
3.748322
 31
0.0
  0
LINE
  8
0
  6
BYBLOCK
 62
     0
 10
6.643491
 20
2.058322
 30
0.0
 11
6.643491
 21
2.660822
 31
0.0
  0
LINE
  8
0
  6
BYBLOCK
 62
     0
 10
6.643491
 20
3.568322
 30
0.0
 11
6.643491
 21
2.965822
 31
0.0
  0
SOLID
  8
0
  6
BYBLOCK
 62
     0
 10
6.613491
 20
2.058322
 30
0.0
 11
6.673491
 21
2.058322
 31
0.0
 12
6.643491
 22
1.878322
 32
0.0
 13
6.643491
 23
1.878322
 33
0.0
  0
SOLID
  8
0
  6
BYBLOCK
 62
     0
 10
6.613491
 20
3.568322
 30
0.0
 11
6.673491
 21
3.568322
 31
0.0
 12
6.643491
 22
3.748322
 32
0.0
 13
6.643491
 23
3.748322
 33
0.0
  0
TEXT
  8
0
  6
BYBLOCK
 62
     0
 10
6.612241
 20
2.750822
 30
0.0
 40
0.125
  1
H
 41
0.75
  7
TXT
 72
     1
 11
6.643491
 21
2.813322
 31
0.0
 73
     2
  0
POINT
  8
DEFPOINTS
  6
BYBLOCK
 62
     0
 10
7.318198
 20
1.878322
 30
0.0
  0
POINT
  8
DEFPOINTS
  6
BYBLOCK
 62
     0
 10
8.318198
 20
3.748322
 30
0.0
  0
POINT
  8
DEFPOINTS
  6
BYBLOCK
 62
     0
 10
6.643491
 20
3.748322
 30
0.0
  0
ENDBLK
  8
0
  0
BLOCK
  8
0
  2
*D20
 70
    65
 10
0.0
 20
0.0
 30
0.0
  3
*D
  0
LINE
  8
0
  6
BYBLOCK
 62
     0
 10
8.333198
 20
2.239322
 30
0.0
 11
8.333198
 21
1.208323
 31
0.0
  0
LINE
  8
0
  6
BYBLOCK
 62
     0
 10
7.303198
 20
2.239322
 30
0.0
 11
7.303198
 21
1.208323
 31
0.0
  0
LINE
  8
0
  6
BYBLOCK
 62
     0
 10
8.513198
 20
1.301323
 30
0.0
 11
8.693198
 21
1.301323
 31
0.0
  0
LINE
  8
0
  6
BYBLOCK
 62
     0
 10
7.123198
 20
1.301323
 30
0.0
 11
6.943198
 21
1.301323
 31
0.0
  0
SOLID
  8
0
  6
BYBLOCK
 62
     0
 10
8.513198
 20
1.331323
 30
0.0
 11
8.513198
 21
1.271323
 31
0.0
 12
8.333198
 22
1.301323
 32
0.0
 13
8.333198
 23
1.301323
 33
0.0
  0
SOLID
  8
0
  6
BYBLOCK
 62
     0
 10
7.123198
 20
1.331323
 30
0.0
 11
7.123198
 21
1.271323
 31
0.0
 12
7.303198
 22
1.301323
 32
0.0
 13
7.303198
 23
1.301323
 33
0.0
  0
TEXT
  8
0
  6
BYBLOCK
 62
     0
 10
7.661948
 20
1.238823
 30
0.0
 40
0.125
  1
1.030
 41
0.75
  7
TXT
 72
     1
 11
7.818198
 21
1.301323
 31
0.0
 73
     2
  0
POINT
  8
DEFPOINTS
  6
BYBLOCK
 62
     0
 10
8.333198
 20
2.302322
 30
0.0
  0
POINT
  8
DEFPOINTS
  6
BYBLOCK
 62
     0
 10
7.303198
 20
2.302322
 30
0.0
  0
POINT
  8
DEFPOINTS
  6
BYBLOCK
 62
     0
 10
7.303198
 20
1.301323
 30
0.0
  0
ENDBLK
  8
0
  0
BLOCK
  8
0
  2
*D21
 70
    65
 10
0.0
 20
0.0
 30
0.0
  3
*D
  0
LINE
  8
0
  6
BYBLOCK
 62
     0
 10
4.868692
 20
1.500322
 30
0.0
 11
4.868692
 21
1.208323
 31
0.0
  0
LINE
  8
0
  6
BYBLOCK
 62
     0
 10
5.219692
 20
1.628797
 30
0.0
 11
5.219692
 21
1.208323
 31
0.0
  0
LINE
  8
0
  6
BYBLOCK
 62
     0
 10
4.688692
 20
1.301323
 30
0.0
 11
4.508692
 21
1.301323
 31
0.0
  0
LINE
  8
0
  6
BYBLOCK
 62
     0
 10
5.399692
 20
1.301323
 30
0.0
 11
5.579692
 21
1.301323
 31
0.0
  0
SOLID
  8
0
  6
BYBLOCK
 62
     0
 10
4.688692
 20
1.331323
 30
0.0
 11
4.688692
 21
1.271323
 31
0.0
 12
4.868692
 22
1.301323
 32
0.0
 13
4.868692
 23
1.301323
 33
0.0
  0
SOLID
  8
0
  6
BYBLOCK
 62
     0
 10
5.399692
 20
1.331323
 30
0.0
 11
5.399692
 21
1.271323
 31
0.0
 12
5.219692
 22
1.301323
 32
0.0
 13
5.219692
 23
1.301323
 33
0.0
  0
TEXT
  8
0
  6
BYBLOCK
 62
     0
 10
5.669692
 20
1.238823
 30
0.0
 40
0.125
  1
0.351
 41
0.75
  7
TXT
 72
     1
 11
5.833754
 21
1.301323
 31
0.0
 73
     2
  0
POINT
  8
DEFPOINTS
  6
BYBLOCK
 62
     0
 10
4.868692
 20
1.563322
 30
0.0
  0
POINT
  8
DEFPOINTS
  6
BYBLOCK
 62
     0
 10
5.219692
 20
1.691797
 30
0.0
  0
POINT
  8
DEFPOINTS
  6
BYBLOCK
 62
     0
 10
5.219692
 20
1.301323
 30
0.0
  0
ENDBLK
  8
0
  0
BLOCK
  8
0
  2
*D22
 70
    65
 10
0.0
 20
0.0
 30
0.0
  3
*D
  0
LINE
  8
0
  6
BYBLOCK
 62
     0
 10
4.512692
 20
3.188951
 30
0.0
 11
4.512692
 21
3.22697
 31
0.0
  0
LINE
  8
0
  6
BYBLOCK
 62
     0
 10
5.126692
 20
3.188951
 30
0.0
 11
5.126692
 21
3.22697
 31
0.0
  0
LINE
  8
0
  6
BYBLOCK
 62
     0
 10
4.332692
 20
3.13397
 30
0.0
 11
4.152692
 21
3.13397
 31
0.0
  0
LINE
  8
0
  6
BYBLOCK
 62
     0
 10
5.306692
 20
3.13397
 30
0.0
 11
5.486692
 21
3.13397
 31
0.0
  0
SOLID
  8
0
  6
BYBLOCK
 62
     0
 10
4.332692
 20
3.16397
 30
0.0
 11
4.332692
 21
3.10397
 31
0.0
 12
4.512692
 22
3.13397
 32
0.0
 13
4.512692
 23
3.13397
 33
0.0
  0
SOLID
  8
0
  6
BYBLOCK
 62
     0
 10
5.306692
 20
3.16397
 30
0.0
 11
5.306692
 21
3.10397
 31
0.0
 12
5.126692
 22
3.13397
 32
0.0
 13
5.126692
 23
3.13397
 33
0.0
  0
TEXT
  8
0
  6
BYBLOCK
 62
     0
 10
5.576692
 20
3.07147
 30
0.0
 40
0.125
  1
0.614
 41
0.75
  7
TXT
 72
     1
 11
5.740754
 21
3.13397
 31
0.0
 73
     2
  0
POINT
  8
DEFPOINTS
  6
BYBLOCK
 62
     0
 10
4.512692
 20
3.125951
 30
0.0
  0
POINT
  8
DEFPOINTS
  6
BYBLOCK
 62
     0
 10
5.126692
 20
3.125951
 30
0.0
  0
POINT
  8
DEFPOINTS
  6
BYBLOCK
 62
     0
 10
5.126692
 20
3.13397
 30
0.0
  0
ENDBLK
  8
0
  0
BLOCK
  8
0
  2
*D23
 70
    65
 10
0.0
 20
0.0
 30
0.0
  3
*D
  0
LINE
  8
0
  6
BYBLOCK
 62
     0
 10
3.370829
 20
3.578322
 30
0.0
 11
3.898801
 21
3.578322
 31
0.0
  0
LINE
  8
0
  6
BYBLOCK
 62
     0
 10
3.370829
 20
2.048322
 30
0.0
 11
3.898801
 21
2.048322
 31
0.0
  0
LINE
  8
0
  6
BYBLOCK
 62
     0
 10
3.805801
 20
3.398322
 30
0.0
 11
3.805801
 21
2.965822
 31
0.0
  0
LINE
  8
0
  6
BYBLOCK
 62
     0
 10
3.805801
 20
2.228322
 30
0.0
 11
3.805801
 21
2.660822
 31
0.0
  0
SOLID
  8
0
  6
BYBLOCK
 62
     0
 10
3.775801
 20
3.398322
 30
0.0
 11
3.835801
 21
3.398322
 31
0.0
 12
3.805801
 22
3.578322
 32
0.0
 13
3.805801
 23
3.578322
 33
0.0
  0
SOLID
  8
0
  6
BYBLOCK
 62
     0
 10
3.775801
 20
2.228322
 30
0.0
 11
3.835801
 21
2.228322
 31
0.0
 12
3.805801
 22
2.048322
 32
0.0
 13
3.805801
 23
2.048322
 33
0.0
  0
TEXT
  8
0
  6
BYBLOCK
 62
     0
 10
3.774551
 20
2.750822
 30
0.0
 40
0.125
  1
G
 41
0.75
  7
TXT
 72
     1
 11
3.805801
 21
2.813322
 31
0.0
 73
     2
  0
POINT
  8
DEFPOINTS
  6
BYBLOCK
 62
     0
 10
3.307829
 20
3.578322
 30
0.0
  0
POINT
  8
DEFPOINTS
  6
BYBLOCK
 62
     0
 10
3.307829
 20
2.048322
 30
0.0
  0
POINT
  8
DEFPOINTS
  6
BYBLOCK
 62
     0
 10
3.805801
 20
2.048322
 30
0.0
  0
ENDBLK
  8
0
  0
BLOCK
  8
0
  2
*D24
 70
    65
 10
0.0
 20
0.0
 30
0.0
  3
*D
  0
LINE
  8
0
  6
BYBLOCK
 62
     0
 10
2.027829
 20
1.985322
 30
0.0
 11
2.027829
 21
1.208323
 31
0.0
  0
LINE
  8
0
  6
BYBLOCK
 62
     0
 10
3.307829
 20
1.985322
 30
0.0
 11
3.307829
 21
1.208323
 31
0.0
  0
LINE
  8
0
  6
BYBLOCK
 62
     0
 10
2.207829
 20
1.301323
 30
0.0
 11
2.546579
 21
1.301323
 31
0.0
  0
LINE
  8
0
  6
BYBLOCK
 62
     0
 10
3.127829
 20
1.301323
 30
0.0
 11
2.789079
 21
1.301323
 31
0.0
  0
SOLID
  8
0
  6
BYBLOCK
 62
     0
 10
2.207829
 20
1.331323
 30
0.0
 11
2.207829
 21
1.271323
 31
0.0
 12
2.027829
 22
1.301323
 32
0.0
 13
2.027829
 23
1.301323
 33
0.0
  0
SOLID
  8
0
  6
BYBLOCK
 62
     0
 10
3.127829
 20
1.331323
 30
0.0
 11
3.127829
 21
1.271323
 31
0.0
 12
3.307829
 22
1.301323
 32
0.0
 13
3.307829
 23
1.301323
 33
0.0
  0
TEXT
  8
0
  6
BYBLOCK
 62
     0
 10
2.636579
 20
1.238823
 30
0.0
 40
0.125
  1
C
 41
0.75
  7
TXT
 72
     1
 11
2.667829
 21
1.301323
 31
0.0
 73
     2
  0
POINT
  8
DEFPOINTS
  6
BYBLOCK
 62
     0
 10
2.027829
 20
2.048322
 30
0.0
  0
POINT
  8
DEFPOINTS
  6
BYBLOCK
 62
     0
 10
3.307829
 20
2.048322
 30
0.0
  0
POINT
  8
DEFPOINTS
  6
BYBLOCK
 62
     0
 10
3.307829
 20
1.301323
 30
0.0
  0
ENDBLK
  8
0
  0
BLOCK
  8
0
  2
*D25
 70
    65
 10
0.0
 20
0.0
 30
0.0
  3
*D
  0
LINE
  8
0
  6
BYBLOCK
 62
     0
 10
2.017829
 20
1.656322
 30
0.0
 11
1.427039
 21
1.656322
 31
0.0
  0
LINE
  8
0
  6
BYBLOCK
 62
     0
 10
2.017829
 20
3.970322
 30
0.0
 11
1.427039
 21
3.970322
 31
0.0
  0
LINE
  8
0
  6
BYBLOCK
 62
     0
 10
1.520039
 20
1.836322
 30
0.0
 11
1.520039
 21
2.660822
 31
0.0
  0
LINE
  8
0
  6
BYBLOCK
 62
     0
 10
1.520039
 20
3.790322
 30
0.0
 11
1.520039
 21
2.965822
 31
0.0
  0
SOLID
  8
0
  6
BYBLOCK
 62
     0
 10
1.490039
 20
1.836322
 30
0.0
 11
1.550039
 21
1.836322
 31
0.0
 12
1.520039
 22
1.656322
 32
0.0
 13
1.520039
 23
1.656322
 33
0.0
  0
SOLID
  8
0
  6
BYBLOCK
 62
     0
 10
1.490039
 20
3.790322
 30
0.0
 11
1.550039
 21
3.790322
 31
0.0
 12
1.520039
 22
3.970322
 32
0.0
 13
1.520039
 23
3.970322
 33
0.0
  0
TEXT
  8
0
  6
BYBLOCK
 62
     0
 10
1.488789
 20
2.750822
 30
0.0
 40
0.125
  1
F
 41
0.75
  7
TXT
 72
     1
 11
1.520039
 21
2.813322
 31
0.0
 73
     2
  0
POINT
  8
DEFPOINTS
  6
BYBLOCK
 62
     0
 10
2.080829
 20
1.656322
 30
0.0
  0
POINT
  8
DEFPOINTS
  6
BYBLOCK
 62
     0
 10
2.080829
 20
3.970322
 30
0.0
  0
POINT
  8
DEFPOINTS
  6
BYBLOCK
 62
     0
 10
1.520039
 20
3.970322
 30
0.0
  0
ENDBLK
  8
0
  0
BLOCK
  8
0
  2
*D26
 70
    65
 10
0.0
 20
0.0
 30
0.0
  3
*D
  0
LINE
  8
0
  6
BYBLOCK
 62
     0
 10
3.389829
 20
3.898322
 30
0.0
 11
3.389829
 21
4.4042
 31
0.0
  0
LINE
  8
0
  6
BYBLOCK
 62
     0
 10
1.945829
 20
3.898322
 30
0.0
 11
1.945829
 21
4.4042
 31
0.0
  0
LINE
  8
0
  6
BYBLOCK
 62
     0
 10
3.209829
 20
4.3112
 30
0.0
 11
2.789079
 21
4.3112
 31
0.0
  0
LINE
  8
0
  6
BYBLOCK
 62
     0
 10
2.125829
 20
4.3112
 30
0.0
 11
2.546579
 21
4.3112
 31
0.0
  0
SOLID
  8
0
  6
BYBLOCK
 62
     0
 10
3.209829
 20
4.3412
 30
0.0
 11
3.209829
 21
4.2812
 31
0.0
 12
3.389829
 22
4.3112
 32
0.0
 13
3.389829
 23
4.3112
 33
0.0
  0
SOLID
  8
0
  6
BYBLOCK
 62
     0
 10
2.125829
 20
4.3412
 30
0.0
 11
2.125829
 21
4.2812
 31
0.0
 12
1.945829
 22
4.3112
 32
0.0
 13
1.945829
 23
4.3112
 33
0.0
  0
TEXT
  8
0
  6
BYBLOCK
 62
     0
 10
2.636579
 20
4.2487
 30
0.0
 40
0.125
  1
B
 41
0.75
  7
TXT
 72
     1
 11
2.667829
 21
4.3112
 31
0.0
 73
     2
  0
POINT
  8
DEFPOINTS
  6
BYBLOCK
 62
     0
 10
3.389829
 20
3.835322
 30
0.0
  0
POINT
  8
DEFPOINTS
  6
BYBLOCK
 62
     0
 10
1.945829
 20
3.835322
 30
0.0
  0
POINT
  8
DEFPOINTS
  6
BYBLOCK
 62
     0
 10
1.945829
 20
4.3112
 30
0.0
  0
ENDBLK
  8
0
  0
BLOCK
  8
0
  2
*D27
 70
    65
 10
0.0
 20
0.0
 30
0.0
  3
*D
  0
LINE
  8
0
  6
BYBLOCK
 62
     0
 10
1.852829
 20
3.898322
 30
0.0
 11
1.852829
 21
4.682193
 31
0.0
  0
LINE
  8
0
  6
BYBLOCK
 62
     0
 10
3.482829
 20
3.898322
 30
0.0
 11
3.482829
 21
4.682193
 31
0.0
  0
LINE
  8
0
  6
BYBLOCK
 62
     0
 10
2.032829
 20
4.589193
 30
0.0
 11
2.546579
 21
4.589193
 31
0.0
  0
LINE
  8
0
  6
BYBLOCK
 62
     0
 10
3.302829
 20
4.589193
 30
0.0
 11
2.789079
 21
4.589193
 31
0.0
  0
SOLID
  8
0
  6
BYBLOCK
 62
     0
 10
2.032829
 20
4.619193
 30
0.0
 11
2.032829
 21
4.559193
 31
0.0
 12
1.852829
 22
4.589193
 32
0.0
 13
1.852829
 23
4.589193
 33
0.0
  0
SOLID
  8
0
  6
BYBLOCK
 62
     0
 10
3.302829
 20
4.619193
 30
0.0
 11
3.302829
 21
4.559193
 31
0.0
 12
3.482829
 22
4.589193
 32
0.0
 13
3.482829
 23
4.589193
 33
0.0
  0
TEXT
  8
0
  6
BYBLOCK
 62
     0
 10
2.636579
 20
4.526693
 30
0.0
 40
0.125
  1
A
 41
0.75
  7
TXT
 72
     1
 11
2.667829
 21
4.589193
 31
0.0
 73
     2
  0
POINT
  8
DEFPOINTS
  6
BYBLOCK
 62
     0
 10
1.852829
 20
3.835322
 30
0.0
  0
POINT
  8
DEFPOINTS
  6
BYBLOCK
 62
     0
 10
3.482829
 20
3.835322
 30
0.0
  0
POINT
  8
DEFPOINTS
  6
BYBLOCK
 62
     0
 10
3.482829
 20
4.589193
 30
0.0
  0
ENDBLK
  8
0
  0
BLOCK
  8
0
  2
*X28
 70
    65
 10
0.0
 20
0.0
 30
0.0
  3
*X
  0
LINE
  8
0
 62
     0
 10
4.450692
 20
3.124866
 30
0.0
 11
4.512692
 21
3.186866
 31
0.0
  0
LINE
  8
0
 62
     0
 10
4.450692
 20
3.390032
 30
0.0
 11
4.512692
 21
3.452032
 31
0.0
  0
LINE
  8
0
 62
     0
 10
4.84383
 20
3.78317
 30
0.0
 11
4.882692
 21
3.822032
 31
0.0
  0
LINE
  8
0
 62
     0
 10
4.450692
 20
3.655197
 30
0.0
 11
4.512692
 21
3.717197
 31
0.0
  0
LINE
  8
0
 62
     0
 10
4.898287
 20
4.102792
 30
0.0
 11
4.902692
 21
4.107197
 31
0.0
  0
LINE
  8
0
 62
     0
 10
4.573955
 20
3.778459
 30
0.0
 11
4.632707
 21
3.837212
 31
0.0
  0
LINE
  8
0
 62
     0
 10
4.715424
 20
3.919929
 30
0.0
 11
4.769322
 21
3.973827
 31
0.0
  0
LINE
  8
0
 62
     0
 10
4.419692
 20
3.889362
 30
0.0
 11
4.512692
 21
3.982362
 31
0.0
  0
LINE
  8
0
 62
     0
 10
4.618457
 20
4.088126
 30
0.0
 11
4.716735
 21
4.186405
 31
0.0
  0
LINE
  8
0
 62
     0
 10
4.450692
 20
2.859701
 30
0.0
 11
4.512692
 21
2.921701
 31
0.0
  0
LINE
  8
0
 62
     0
 10
4.450692
 20
2.594536
 30
0.0
 11
4.512692
 21
2.656536
 31
0.0
  0
LINE
  8
0
 62
     0
 10
4.450692
 20
2.329371
 30
0.0
 11
4.512692
 21
2.391371
 31
0.0
  0
LINE
  8
0
 62
     0
 10
4.450692
 20
3.158012
 30
0.0
 11
4.512692
 21
3.220012
 31
0.0
  0
LINE
  8
0
 62
     0
 10
4.450692
 20
3.423177
 30
0.0
 11
4.512692
 21
3.485177
 31
0.0
  0
LINE
  8
0
 62
     0
 10
4.810096
 20
3.782581
 30
0.0
 11
4.860746
 21
3.833232
 31
0.0
  0
LINE
  8
0
 62
     0
 10
4.450692
 20
3.688342
 30
0.0
 11
4.512692
 21
3.750342
 31
0.0
  0
LINE
  8
0
 62
     0
 10
4.863308
 20
4.100959
 30
0.0
 11
4.902692
 21
4.140342
 31
0.0
  0
LINE
  8
0
 62
     0
 10
4.54022
 20
3.777871
 30
0.0
 11
4.60013
 21
3.837781
 31
0.0
  0
LINE
  8
0
 62
     0
 10
4.681689
 20
3.91934
 30
0.0
 11
4.736745
 21
3.974396
 31
0.0
  0
LINE
  8
0
 62
     0
 10
4.419692
 20
3.922507
 30
0.0
 11
4.512692
 21
4.015507
 31
0.0
  0
LINE
  8
0
 62
     0
 10
4.583478
 20
4.086293
 30
0.0
 11
4.681756
 21
4.184571
 31
0.0
  0
LINE
  8
0
 62
     0
 10
4.450692
 20
2.892847
 30
0.0
 11
4.512692
 21
2.954847
 31
0.0
  0
LINE
  8
0
 62
     0
 10
4.450692
 20
2.627682
 30
0.0
 11
4.512692
 21
2.689682
 31
0.0
  0
LINE
  8
0
 62
     0
 10
4.450692
 20
2.362517
 30
0.0
 11
4.512692
 21
2.424517
 31
0.0
  0
LINE
  8
0
 62
     0
 10
4.450692
 20
3.191158
 30
0.0
 11
4.512692
 21
3.253158
 31
0.0
  0
LINE
  8
0
 62
     0
 10
4.450692
 20
3.456323
 30
0.0
 11
4.512692
 21
3.518323
 31
0.0
  0
LINE
  8
0
 62
     0
 10
4.776361
 20
3.781992
 30
0.0
 11
4.828169
 21
3.8338
 31
0.0
  0
LINE
  8
0
 62
     0
 10
4.437052
 20
3.707848
 30
0.0
 11
4.567553
 21
3.838349
 31
0.0
  0
LINE
  8
0
 62
     0
 10
4.828329
 20
4.099125
 30
0.0
 11
4.878536
 21
4.149333
 31
0.0
  0
LINE
  8
0
 62
     0
 10
4.647955
 20
3.918751
 30
0.0
 11
4.704169
 21
3.974965
 31
0.0
  0
LINE
  8
0
 62
     0
 10
4.419692
 20
3.955653
 30
0.0
 11
4.525419
 21
4.06138
 31
0.0
  0
LINE
  8
0
 62
     0
 10
4.537059
 20
4.07302
 30
0.0
 11
4.646777
 21
4.182738
 31
0.0
  0
LINE
  8
0
 62
     0
 10
4.450692
 20
2.925993
 30
0.0
 11
4.512692
 21
2.987993
 31
0.0
  0
LINE
  8
0
 62
     0
 10
4.450692
 20
2.660828
 30
0.0
 11
4.512692
 21
2.722828
 31
0.0
  0
LINE
  8
0
 62
     0
 10
4.450692
 20
2.395663
 30
0.0
 11
4.512692
 21
2.457663
 31
0.0
  0
LINE
  8
0
 62
     0
 10
4.450692
 20
3.290595
 30
0.0
 11
4.512692
 21
3.352595
 31
0.0
  0
LINE
  8
0
 62
     0
 10
4.450692
 20
3.55576
 30
0.0
 11
4.512692
 21
3.61776
 31
0.0
  0
LINE
  8
0
 62
     0
 10
4.816627
 20
3.921695
 30
0.0
 11
4.867053
 21
3.972121
 31
0.0
  0
LINE
  8
0
 62
     0
 10
4.675158
 20
3.780226
 30
0.0
 11
4.730438
 21
3.835506
 31
0.0
  0
LINE
  8
0
 62
     0
 10
4.419692
 20
3.789925
 30
0.0
 11
4.512692
 21
3.882925
 31
0.0
  0
LINE
  8
0
 62
     0
 10
4.723393
 20
4.093626
 30
0.0
 11
4.821671
 21
4.191904
 31
0.0
  0
LINE
  8
0
 62
     0
 10
4.546752
 20
3.916985
 30
0.0
 11
4.606438
 21
3.976671
 31
0.0
  0
LINE
  8
0
 62
     0
 10
4.4238
 20
4.059198
 30
0.0
 11
4.539241
 21
4.174639
 31
0.0
  0
LINE
  8
0
 62
     0
 10
4.450692
 20
3.02543
 30
0.0
 11
4.512692
 21
3.08743
 31
0.0
  0
LINE
  8
0
 62
     0
 10
4.450692
 20
2.760265
 30
0.0
 11
4.512692
 21
2.822265
 31
0.0
  0
LINE
  8
0
 62
     0
 10
4.450692
 20
2.4951
 30
0.0
 11
4.512692
 21
2.5571
 31
0.0
  0
ENDBLK
  8
0
  0
BLOCK
  8
0
  2
*X29
 70
    65
 10
0.0
 20
0.0
 30
0.0
  3
*X
  0
LINE
  8
0
 62
     0
 10
5.209692
 20
3.010425
 30
0.0
 11
5.126692
 21
3.093425
 31
0.0
  0
LINE
  8
0
 62
     0
 10
5.209692
 20
2.74526
 30
0.0
 11
5.126692
 21
2.82826
 31
0.0
  0
LINE
  8
0
 62
     0
 10
5.209692
 20
2.480095
 30
0.0
 11
5.126692
 21
2.563095
 31
0.0
  0
LINE
  8
0
 62
     0
 10
5.127573
 20
2.297048
 30
0.0
 11
5.126692
 21
2.297929
 31
0.0
  0
LINE
  8
0
 62
     0
 10
5.209692
 20
3.27559
 30
0.0
 11
5.126692
 21
3.35859
 31
0.0
  0
LINE
  8
0
 62
     0
 10
5.209692
 20
3.540755
 30
0.0
 11
5.126692
 21
3.623755
 31
0.0
  0
LINE
  8
0
 62
     0
 10
4.966952
 20
3.783495
 30
0.0
 11
4.946692
 21
3.803755
 31
0.0
  0
LINE
  8
0
 62
     0
 10
5.078954
 20
3.936657
 30
0.0
 11
5.042098
 21
3.973514
 31
0.0
  0
LINE
  8
0
 62
     0
 10
4.918501
 20
4.09711
 30
0.0
 11
4.902692
 21
4.11292
 31
0.0
  0
LINE
  8
0
 62
     0
 10
5.219692
 20
4.061085
 30
0.0
 11
5.100053
 21
4.180723
 31
0.0
  0
LINE
  8
0
 62
     0
 10
5.209692
 20
2.977279
 30
0.0
 11
5.126692
 21
3.060279
 31
0.0
  0
LINE
  8
0
 62
     0
 10
5.209692
 20
2.712114
 30
0.0
 11
5.126692
 21
2.795114
 31
0.0
  0
LINE
  8
0
 62
     0
 10
5.209692
 20
2.446949
 30
0.0
 11
5.126692
 21
2.529949
 31
0.0
  0
LINE
  8
0
 62
     0
 10
5.209692
 20
3.242444
 30
0.0
 11
5.126692
 21
3.325444
 31
0.0
  0
LINE
  8
0
 62
     0
 10
5.209692
 20
3.507609
 30
0.0
 11
5.126692
 21
3.590609
 31
0.0
  0
LINE
  8
0
 62
     0
 10
5.219692
 20
3.762774
 30
0.0
 11
5.219617
 21
3.762848
 31
0.0
  0
LINE
  8
0
 62
     0
 10
5.046377
 20
3.936089
 30
0.0
 11
5.009521
 21
3.972945
 31
0.0
  0
LINE
  8
0
 62
     0
 10
5.219692
 20
4.027939
 30
0.0
 11
5.065074
 21
4.182557
 31
0.0
  0
LINE
  8
0
 62
     0
 10
5.209692
 20
2.944133
 30
0.0
 11
5.126692
 21
3.027133
 31
0.0
  0
LINE
  8
0
 62
     0
 10
5.209692
 20
2.678968
 30
0.0
 11
5.126692
 21
2.761968
 31
0.0
  0
LINE
  8
0
 62
     0
 10
5.219692
 20
2.403803
 30
0.0
 11
5.126692
 21
2.496803
 31
0.0
  0
LINE
  8
0
 62
     0
 10
5.209692
 20
3.209298
 30
0.0
 11
5.126692
 21
3.292298
 31
0.0
  0
LINE
  8
0
 62
     0
 10
5.209692
 20
3.474463
 30
0.0
 11
5.126692
 21
3.557463
 31
0.0
  0
LINE
  8
0
 62
     0
 10
5.219692
 20
3.729628
 30
0.0
 11
5.186472
 21
3.762848
 31
0.0
  0
LINE
  8
0
 62
     0
 10
5.0138
 20
3.93552
 30
0.0
 11
4.976944
 21
3.972377
 31
0.0
  0
LINE
  8
0
 62
     0
 10
5.219692
 20
3.994794
 30
0.0
 11
5.030096
 21
4.18439
 31
0.0
  0
LINE
  8
0
 62
     0
 10
5.209692
 20
2.844696
 30
0.0
 11
5.126692
 21
2.927696
 31
0.0
  0
LINE
  8
0
 62
     0
 10
5.209692
 20
2.579531
 30
0.0
 11
5.126692
 21
2.662531
 31
0.0
  0
LINE
  8
0
 62
     0
 10
5.217437
 20
2.306621
 30
0.0
 11
5.126692
 21
2.397366
 31
0.0
  0
LINE
  8
0
 62
     0
 10
5.209692
 20
3.109862
 30
0.0
 11
5.126692
 21
3.192862
 31
0.0
  0
LINE
  8
0
 62
     0
 10
5.209692
 20
3.375027
 30
0.0
 11
5.126692
 21
3.458027
 31
0.0
  0
LINE
  8
0
 62
     0
 10
5.209692
 20
3.640192
 30
0.0
 11
5.126692
 21
3.723192
 31
0.0
  0
LINE
  8
0
 62
     0
 10
5.072051
 20
3.777832
 30
0.0
 11
5.029989
 21
3.819895
 31
0.0
  0
LINE
  8
0
 62
     0
 10
5.147076
 20
3.967973
 30
0.0
 11
5.109662
 21
4.005387
 31
0.0
  0
LINE
  8
0
 62
     0
 10
5.023437
 20
4.091611
 30
0.0
 11
4.925159
 21
4.189889
 31
0.0
  0
ENDBLK
  8
0
  0
BLOCK
  8
0
  2
*D30
 70
    65
 10
0.0
 20
0.0
 30
0.0
  3
*D
  0
LINE
  8
0
  6
BYBLOCK
 62
     0
 10
4.882692
 20
3.720848
 30
0.0
 11
4.882692
 21
3.4395
 31
0.0
  0
LINE
  8
0
  6
BYBLOCK
 62
     0
 10
4.946692
 20
3.720848
 30
0.0
 11
4.946692
 21
3.4395
 31
0.0
  0
LINE
  8
0
  6
BYBLOCK
 62
     0
 10
4.702692
 20
3.5325
 30
0.0
 11
4.522692
 21
3.5325
 31
0.0
  0
LINE
  8
0
  6
BYBLOCK
 62
     0
 10
5.126692
 20
3.5325
 30
0.0
 11
5.306692
 21
3.5325
 31
0.0
  0
SOLID
  8
0
  6
BYBLOCK
 62
     0
 10
4.702692
 20
3.5625
 30
0.0
 11
4.702692
 21
3.5025
 31
0.0
 12
4.882692
 22
3.5325
 32
0.0
 13
4.882692
 23
3.5325
 33
0.0
  0
SOLID
  8
0
  6
BYBLOCK
 62
     0
 10
5.126692
 20
3.5625
 30
0.0
 11
5.126692
 21
3.5025
 31
0.0
 12
4.946692
 22
3.5325
 32
0.0
 13
4.946692
 23
3.5325
 33
0.0
  0
TEXT
  8
0
  6
BYBLOCK
 62
     0
 10
5.396692
 20
3.47
 30
0.0
 40
0.125
  1
0.064
 41
0.75
  7
TXT
 72
     1
 11
5.568567
 21
3.5325
 31
0.0
 73
     2
  0
POINT
  8
DEFPOINTS
  6
BYBLOCK
 62
     0
 10
4.882692
 20
3.783848
 30
0.0
  0
POINT
  8
DEFPOINTS
  6
BYBLOCK
 62
     0
 10
4.946692
 20
3.783848
 30
0.0
  0
POINT
  8
DEFPOINTS
  6
BYBLOCK
 62
     0
 10
4.946692
 20
3.5325
 30
0.0
  0
ENDBLK
  8
0
  0
BLOCK
  8
0
  2
*D32
 70
    65
 10
0.0
 20
0.0
 30
0.0
  3
*D
  0
LINE
  8
0
  6
BYBLOCK
 62
     0
 10
4.882692
 20
11.399586
 30
0.0
 11
4.882692
 21
11.126208
 31
0.0
  0
LINE
  8
0
  6
BYBLOCK
 62
     0
 10
4.946692
 20
11.399586
 30
0.0
 11
4.946692
 21
11.126208
 31
0.0
  0
LINE
  8
0
  6
BYBLOCK
 62
     0
 10
4.702692
 20
11.219208
 30
0.0
 11
4.522692
 21
11.219208
 31
0.0
  0
LINE
  8
0
  6
BYBLOCK
 62
     0
 10
5.126692
 20
11.219208
 30
0.0
 11
5.306692
 21
11.219208
 31
0.0
  0
SOLID
  8
0
  6
BYBLOCK
 62
     0
 10
4.702692
 20
11.249208
 30
0.0
 11
4.702692
 21
11.189208
 31
0.0
 12
4.882692
 22
11.219208
 32
0.0
 13
4.882692
 23
11.219208
 33
0.0
  0
SOLID
  8
0
  6
BYBLOCK
 62
     0
 10
5.126692
 20
11.249208
 30
0.0
 11
5.126692
 21
11.189208
 31
0.0
 12
4.946692
 22
11.219208
 32
0.0
 13
4.946692
 23
11.219208
 33
0.0
  0
TEXT
  8
0
  6
BYBLOCK
 62
     0
 10
5.396692
 20
11.156708
 30
0.0
 40
0.125
  1
0.064
 41
0.75
  7
TXT
 72
     1
 11
5.568567
 21
11.219208
 31
0.0
 73
     2
  0
POINT
  8
DEFPOINTS
  6
BYBLOCK
 62
     0
 10
4.882692
 20
11.462586
 30
0.0
  0
POINT
  8
DEFPOINTS
  6
BYBLOCK
 62
     0
 10
4.946692
 20
11.462586
 30
0.0
  0
POINT
  8
DEFPOINTS
  6
BYBLOCK
 62
     0
 10
4.946692
 20
11.219208
 30
0.0
  0
ENDBLK
  8
0
  0
BLOCK
  8
0
  2
*X33
 70
    65
 10
0.0
 20
0.0
 30
0.0
  3
*X
  0
LINE
  8
0
 62
     0
 10
4.419692
 20
10.518488
 30
0.0
 11
4.512692
 21
10.611488
 31
0.0
  0
LINE
  8
0
 62
     0
 10
4.419692
 20
10.783653
 30
0.0
 11
4.512692
 21
10.876653
 31
0.0
  0
LINE
  8
0
 62
     0
 10
4.419692
 20
11.048818
 30
0.0
 11
4.512692
 21
11.141818
 31
0.0
  0
LINE
  8
0
 62
     0
 10
4.832585
 20
11.461711
 30
0.0
 11
4.882464
 21
11.51159
 31
0.0
  0
LINE
  8
0
 62
     0
 10
4.419692
 20
11.313983
 30
0.0
 11
4.512692
 21
11.406983
 31
0.0
  0
LINE
  8
0
 62
     0
 10
4.886627
 20
11.780918
 30
0.0
 11
4.902692
 21
11.796983
 31
0.0
  0
LINE
  8
0
 62
     0
 10
4.56271
 20
11.457001
 30
0.0
 11
4.621848
 21
11.516139
 31
0.0
  0
LINE
  8
0
 62
     0
 10
4.704179
 20
11.59847
 30
0.0
 11
4.758463
 21
11.652754
 31
0.0
  0
LINE
  8
0
 62
     0
 10
4.419692
 20
11.579148
 30
0.0
 11
4.512692
 21
11.672148
 31
0.0
  0
LINE
  8
0
 62
     0
 10
4.606797
 20
11.766253
 30
0.0
 11
4.705075
 21
11.864531
 31
0.0
  0
LINE
  8
0
 62
     0
 10
4.419692
 20
10.253323
 30
0.0
 11
4.512692
 21
10.346323
 31
0.0
  0
LINE
  8
0
 62
     0
 10
4.419692
 20
9.988158
 30
0.0
 11
4.512692
 21
10.081158
 31
0.0
  0
LINE
  8
0
 62
     0
 10
4.419692
 20
10.551633
 30
0.0
 11
4.512692
 21
10.644633
 31
0.0
  0
LINE
  8
0
 62
     0
 10
4.419692
 20
10.816798
 30
0.0
 11
4.512692
 21
10.909798
 31
0.0
  0
LINE
  8
0
 62
     0
 10
4.419692
 20
11.081963
 30
0.0
 11
4.512692
 21
11.174963
 31
0.0
  0
LINE
  8
0
 62
     0
 10
4.798851
 20
11.461123
 30
0.0
 11
4.849887
 21
11.512159
 31
0.0
  0
LINE
  8
0
 62
     0
 10
4.419692
 20
11.347128
 30
0.0
 11
4.512692
 21
11.440128
 31
0.0
  0
LINE
  8
0
 62
     0
 10
4.851648
 20
11.779085
 30
0.0
 11
4.899533
 21
11.82697
 31
0.0
  0
LINE
  8
0
 62
     0
 10
4.528975
 20
11.456412
 30
0.0
 11
4.589271
 21
11.516708
 31
0.0
  0
LINE
  8
0
 62
     0
 10
4.670444
 20
11.597881
 30
0.0
 11
4.725886
 21
11.653323
 31
0.0
  0
LINE
  8
0
 62
     0
 10
4.419692
 20
11.612294
 30
0.0
 11
4.512758
 21
11.70536
 31
0.0
  0
LINE
  8
0
 62
     0
 10
4.571818
 20
11.76442
 30
0.0
 11
4.670096
 21
11.862698
 31
0.0
  0
LINE
  8
0
 62
     0
 10
4.419692
 20
10.286468
 30
0.0
 11
4.512692
 21
10.379468
 31
0.0
  0
LINE
  8
0
 62
     0
 10
4.419692
 20
10.021303
 30
0.0
 11
4.512692
 21
10.114303
 31
0.0
  0
LINE
  8
0
 62
     0
 10
4.419692
 20
10.584779
 30
0.0
 11
4.512692
 21
10.677779
 31
0.0
  0
LINE
  8
0
 62
     0
 10
4.419692
 20
10.849944
 30
0.0
 11
4.512692
 21
10.942944
 31
0.0
  0
LINE
  8
0
 62
     0
 10
4.419692
 20
11.115109
 30
0.0
 11
4.512692
 21
11.208109
 31
0.0
  0
LINE
  8
0
 62
     0
 10
4.765116
 20
11.460534
 30
0.0
 11
4.81731
 21
11.512727
 31
0.0
  0
LINE
  8
0
 62
     0
 10
4.419692
 20
11.380274
 30
0.0
 11
4.556694
 21
11.517276
 31
0.0
  0
LINE
  8
0
 62
     0
 10
4.816669
 20
11.777252
 30
0.0
 11
4.868692
 21
11.829274
 31
0.0
  0
LINE
  8
0
 62
     0
 10
4.63671
 20
11.597292
 30
0.0
 11
4.693309
 21
11.653892
 31
0.0
  0
LINE
  8
0
 62
     0
 10
4.419692
 20
11.645439
 30
0.0
 11
4.635117
 21
11.860865
 31
0.0
  0
LINE
  8
0
 62
     0
 10
4.419692
 20
10.319614
 30
0.0
 11
4.512692
 21
10.412614
 31
0.0
  0
LINE
  8
0
 62
     0
 10
4.419692
 20
10.054449
 30
0.0
 11
4.512692
 21
10.147449
 31
0.0
  0
LINE
  8
0
 62
     0
 10
4.419692
 20
10.419051
 30
0.0
 11
4.512692
 21
10.512051
 31
0.0
  0
LINE
  8
0
 62
     0
 10
4.419692
 20
10.684216
 30
0.0
 11
4.512692
 21
10.777216
 31
0.0
  0
LINE
  8
0
 62
     0
 10
4.419692
 20
10.949381
 30
0.0
 11
4.512692
 21
11.042381
 31
0.0
  0
LINE
  8
0
 62
     0
 10
4.419692
 20
11.214546
 30
0.0
 11
4.512692
 21
11.307546
 31
0.0
  0
LINE
  8
0
 62
     0
 10
4.805382
 20
11.600237
 30
0.0
 11
4.856194
 21
11.651048
 31
0.0
  0
LINE
  8
0
 62
     0
 10
4.663913
 20
11.458767
 30
0.0
 11
4.719579
 21
11.514433
 31
0.0
  0
LINE
  8
0
 62
     0
 10
4.419692
 20
11.479711
 30
0.0
 11
4.512692
 21
11.572711
 31
0.0
  0
LINE
  8
0
 62
     0
 10
4.711733
 20
11.771752
 30
0.0
 11
4.810011
 21
11.87003
 31
0.0
  0
LINE
  8
0
 62
     0
 10
4.535507
 20
11.595526
 30
0.0
 11
4.595578
 21
11.655598
 31
0.0
  0
LINE
  8
0
 62
     0
 10
4.428334
 20
11.753518
 30
0.0
 11
4.523659
 21
11.848843
 31
0.0
  0
LINE
  8
0
 62
     0
 10
4.419692
 20
10.153886
 30
0.0
 11
4.512692
 21
10.246886
 31
0.0
  0
ENDBLK
  8
0
  0
BLOCK
  8
0
  2
*X34
 70
    65
 10
0.0
 20
0.0
 30
0.0
  3
*X
  0
LINE
  8
0
 62
     0
 10
5.209692
 20
10.700211
 30
0.0
 11
5.126692
 21
10.783211
 31
0.0
  0
LINE
  8
0
 62
     0
 10
5.209692
 20
10.435046
 30
0.0
 11
5.126692
 21
10.518046
 31
0.0
  0
LINE
  8
0
 62
     0
 10
5.209692
 20
10.169881
 30
0.0
 11
5.126692
 21
10.252881
 31
0.0
  0
LINE
  8
0
 62
     0
 10
5.164861
 20
9.949546
 30
0.0
 11
5.126692
 21
9.987716
 31
0.0
  0
LINE
  8
0
 62
     0
 10
5.209692
 20
10.965376
 30
0.0
 11
5.126692
 21
11.048376
 31
0.0
  0
LINE
  8
0
 62
     0
 10
5.209692
 20
11.230541
 30
0.0
 11
5.126692
 21
11.313541
 31
0.0
  0
LINE
  8
0
 62
     0
 10
4.978197
 20
11.462036
 30
0.0
 11
4.946692
 21
11.493541
 31
0.0
  0
LINE
  8
0
 62
     0
 10
5.089814
 20
11.615584
 30
0.0
 11
5.052957
 21
11.652441
 31
0.0
  0
LINE
  8
0
 62
     0
 10
4.877261
 20
11.828137
 30
0.0
 11
4.868692
 21
11.836706
 31
0.0
  0
LINE
  8
0
 62
     0
 10
4.930161
 20
11.775237
 30
0.0
 11
4.902692
 21
11.802706
 31
0.0
  0
LINE
  8
0
 62
     0
 10
5.219413
 20
11.75115
 30
0.0
 11
5.111731
 21
11.858832
 31
0.0
  0
LINE
  8
0
 62
     0
 10
5.209692
 20
10.667065
 30
0.0
 11
5.126692
 21
10.750065
 31
0.0
  0
LINE
  8
0
 62
     0
 10
5.209692
 20
10.4019
 30
0.0
 11
5.126692
 21
10.4849
 31
0.0
  0
LINE
  8
0
 62
     0
 10
5.209692
 20
10.136735
 30
0.0
 11
5.126692
 21
10.219735
 31
0.0
  0
LINE
  8
0
 62
     0
 10
5.13377
 20
9.947492
 30
0.0
 11
5.126692
 21
9.95457
 31
0.0
  0
LINE
  8
0
 62
     0
 10
5.209692
 20
10.93223
 30
0.0
 11
5.126692
 21
11.01523
 31
0.0
  0
LINE
  8
0
 62
     0
 10
5.209692
 20
11.197395
 30
0.0
 11
5.126692
 21
11.280395
 31
0.0
  0
LINE
  8
0
 62
     0
 10
5.057237
 20
11.615016
 30
0.0
 11
5.02038
 21
11.651872
 31
0.0
  0
LINE
  8
0
 62
     0
 10
5.219692
 20
11.717725
 30
0.0
 11
5.076734
 21
11.860683
 31
0.0
  0
LINE
  8
0
 62
     0
 10
5.209692
 20
10.63392
 30
0.0
 11
5.126692
 21
10.71692
 31
0.0
  0
LINE
  8
0
 62
     0
 10
5.209692
 20
10.368755
 30
0.0
 11
5.126692
 21
10.451755
 31
0.0
  0
LINE
  8
0
 62
     0
 10
5.219692
 20
10.09359
 30
0.0
 11
5.126692
 21
10.18659
 31
0.0
  0
LINE
  8
0
 62
     0
 10
5.209692
 20
10.899085
 30
0.0
 11
5.126692
 21
10.982085
 31
0.0
  0
LINE
  8
0
 62
     0
 10
5.209692
 20
11.16425
 30
0.0
 11
5.126692
 21
11.24725
 31
0.0
  0
LINE
  8
0
 62
     0
 10
5.219692
 20
11.419415
 30
0.0
 11
5.19752
 21
11.441586
 31
0.0
  0
LINE
  8
0
 62
     0
 10
5.02466
 20
11.614447
 30
0.0
 11
4.987803
 21
11.651304
 31
0.0
  0
LINE
  8
0
 62
     0
 10
5.219692
 20
11.68458
 30
0.0
 11
5.041755
 21
11.862516
 31
0.0
  0
LINE
  8
0
 62
     0
 10
5.209692
 20
10.534483
 30
0.0
 11
5.126692
 21
10.617483
 31
0.0
  0
LINE
  8
0
 62
     0
 10
5.209692
 20
10.269318
 30
0.0
 11
5.126692
 21
10.352318
 31
0.0
  0
LINE
  8
0
 62
     0
 10
5.219692
 20
9.994153
 30
0.0
 11
5.126692
 21
10.087153
 31
0.0
  0
LINE
  8
0
 62
     0
 10
5.209692
 20
10.799648
 30
0.0
 11
5.126692
 21
10.882648
 31
0.0
  0
LINE
  8
0
 62
     0
 10
5.209692
 20
11.064813
 30
0.0
 11
5.126692
 21
11.147813
 31
0.0
  0
LINE
  8
0
 62
     0
 10
5.209692
 20
11.329978
 30
0.0
 11
5.126692
 21
11.412978
 31
0.0
  0
LINE
  8
0
 62
     0
 10
5.113241
 20
11.426429
 30
0.0
 11
5.041234
 21
11.498436
 31
0.0
  0
LINE
  8
0
 62
     0
 10
5.152986
 20
11.651848
 30
0.0
 11
5.116042
 21
11.688793
 31
0.0
  0
LINE
  8
0
 62
     0
 10
5.035097
 20
11.769737
 30
0.0
 11
4.936819
 21
11.868016
 31
0.0
  0
ENDBLK
  8
0
  0
ENDSEC
  0
SECTION
  2
ENTITIES
  0
INSERT
  8
OBJECT
  2
HB
 10
0.0
 20
0.0
 30
0.0
  0
TEXT
  8
0
 10
21.2885
 20
15.842093
 30
0.0
 40
0.125
  1

  0
TEXT
  8
0
 10
21.2885
 20
15.641292
 30
0.0
 40
0.125
  1

  0
TEXT
  8
0
 10
21.33169
 20
25.750868
 30
0.0
 40
0.125
  1

  0
TEXT
  8
0
 10
21.33169
 20
25.550066
 30
0.0
 40
0.125
  1

  0
TEXT
  8
TEXT
 10
0.227614
 20
0.521772
 30
0.0
 40
0.125
  1
PART NO.
 41
0.75
  7
TXT
 72
     1
 11
0.555739
 21
0.521772
 31
0.0
  0
TEXT
  8
TEXT
 10
0.243239
 20
0.313439
 30
0.0
 40
0.125
  1
HH-3466
 41
0.75
  7
TXT
 72
     1
 11
0.555739
 21
0.313439
 31
0.0
  0
TEXT
  8
TEXT
 10
0.243239
 20
0.105106
 30
0.0
 40
0.125
  1
HH-3469
 41
0.75
  7
TXT
 72
     1
 11
0.555739
 21
0.105106
 31
0.0
  0
LINE
  8
TITLE
 10
0.062
 20
0.478
 30
0.0
 11
10.058
 21
0.478
 31
0.0
  0
LINE
  8
TITLE
 10
0.062
 20
0.27
 30
0.0
 11
10.058
 21
0.27
 31
0.0
  0
LINE
  8
TITLE
 10
0.062
 20
0.686
 30
0.0
 11
10.058
 21
0.686
 31
0.0
  0
TEXT
  8
TEXT
 10
1.831861
 20
15.129358
 30
0.0
 40
0.156
  1
GRABBER  (STYLE D)
 41
0.75
  7
TXT
 72
     1
 11
2.826361
 21
15.129358
 31
0.0
  0
TEXT
  8
TEXT
 10
6.424577
 20
14.69046
 30
0.0
 40
0.125
  1
TWO (2) #4 x 0.500" LG. SCREWS (BLACK)
 41
0.75
  7
TXT
  0
TEXT
  8
TEXT
 10
6.424577
 20
14.482126
 30
0.0
 40
0.125
  1
SUPPLIED FOR ASSEMBLING COVER TO BODY
 41
0.75
  7
TXT
  0
TEXT
  8
TEXT
 10
6.436335
 20
13.929916
 30
0.0
 40
0.125
  1
NOTE: ALL DIMENSIONS HAVE %%P0.010
 41
0.75
  7
TXT
  0
TEXT
  8
TEXT
 10
6.436335
 20
13.721582
 30
0.0
 40
0.125
  1
TOLERANCE UNLESS OTHERWISE
 41
0.75
  7
TXT
  0
TEXT
  8
TEXT
 10
6.436335
 20
13.519207
 30
0.0
 40
0.125
  1
SPECIFIED
 41
0.75
  7
TXT
  0
DIMENSION
  8
DIM
  2
*D2
 10
5.219692
 20
4.364959
 30
0.0
 11
4.819692
 21
4.364959
 31
0.0
 12
-0.280738
 22
0.053759
 32
0.0
 13
4.419692
 23
3.94798
 33
0.0
 14
5.219692
 24
3.988606
 34
0.0
  3
23NSTDI
  0
LINE
  8
HIDDEN
 10
4.902692
 20
1.706907
 30
0.0
 11
4.571447
 21
1.724267
 31
0.0
  0
LINE
  8
HIDDEN
 10
4.512692
 20
1.893539
 30
0.0
 11
4.882692
 21
1.887081
 31
0.0
  0
LINE
  8
HIDDEN
 10
4.512692
 20
1.831623
 30
0.0
 11
4.882692
 21
1.838081
 31
0.0
  0
LINE
  8
HIDDEN
 10
4.512692
 20
2.032539
 30
0.0
 11
4.882692
 21
2.026081
 31
0.0
  0
LINE
  8
HIDDEN
 10
4.512692
 20
1.970623
 30
0.0
 11
4.882692
 21
1.977081
 31
0.0
  0
LINE
  8
OBJECT
 10
4.512692
 20
3.701623
 30
0.0
 11
4.882692
 21
3.708081
 31
0.0
  0
LINE
  8
OBJECT
 10
4.902692
 20
4.027255
 30
0.0
 11
4.571447
 21
4.009895
 31
0.0
  0
LINE
  8
OBJECT
 10
4.512692
 20
3.902539
 30
0.0
 11
4.882692
 21
3.896081
 31
0.0
  0
LINE
  8
OBJECT
 10
4.512692
 20
3.763539
 30
0.0
 11
4.882692
 21
3.757081
 31
0.0
  0
LINE
  8
OBJECT
 10
4.512692
 20
3.840623
 30
0.0
 11
4.882692
 21
3.847081
 31
0.0
  0
DIMENSION
  8
DIM
  2
*D27
 10
3.482829
 20
4.642952
 30
0.0
 11
2.667829
 21
4.642952
 31
0.0
 12
0.0
 22
0.053759
 32
0.0
  1
A
 13
1.852829
 23
3.889081
 33
0.0
 14
3.482829
 24
3.889081
 34
0.0
  3
23NSTD
  0
POLYLINE
  8
HIDDEN
 66
     1
 10
0.0
 20
0.0
 30
0.0
 70
     1
  0
VERTEX
  8
HIDDEN
 10
3.254829
 20
1.710081
 30
0.0
 42
0.414214
  0
VERTEX
  8
HIDDEN
 10
3.389829
 20
1.845081
 30
0.0
  0
VERTEX
  8
HIDDEN
 10
3.389829
 20
3.889081
 30
0.0
 42
0.414214
  0
VERTEX
  8
HIDDEN
 10
3.254829
 20
4.024081
 30
0.0
  0
VERTEX
  8
HIDDEN
 10
2.080829
 20
4.024081
 30
0.0
 42
0.414214
  0
VERTEX
  8
HIDDEN
 10
1.945829
 20
3.889081
 30
0.0
  0
VERTEX
  8
HIDDEN
 10
1.945829
 20
1.845081
 30
0.0
 42
0.414214
  0
VERTEX
  8
HIDDEN
 10
2.080829
 20
1.710081
 30
0.0
  0
SEQEND
  8
HIDDEN
  0
POLYLINE
  8
OBJECT
 66
     1
 10
0.0
 20
0.0
 30
0.0
 70
     1
  0
VERTEX
  8
OBJECT
 10
3.482829
 20
1.845081
 30
0.0
  0
VERTEX
  8
OBJECT
 10
3.482829
 20
3.889081
 30
0.0
 42
0.414214
  0
VERTEX
  8
OBJECT
 10
3.254829
 20
4.117081
 30
0.0
  0
VERTEX
  8
OBJECT
 10
2.080829
 20
4.117081
 30
0.0
 42
0.414214
  0
VERTEX
  8
OBJECT
 10
1.852829
 20
3.889081
 30
0.0
  0
VERTEX
  8
OBJECT
 10
1.852829
 20
1.845081
 30
0.0
 42
0.414214
  0
VERTEX
  8
OBJECT
 10
2.080829
 20
1.617081
 30
0.0
  0
VERTEX
  8
OBJECT
 10
3.254829
 20
1.617081
 30
0.0
 42
0.414214
  0
SEQEND
  8
OBJECT
  0
POLYLINE
  8
OBJECT
 66
     1
 10
0.0
 20
0.0
 30
0.0
 70
     1
  0
VERTEX
  8
OBJECT
 10
3.307829
 20
3.632081
 30
0.0
  0
VERTEX
  8
OBJECT
 10
3.307829
 20
2.102081
 30
0.0
  0
VERTEX
  8
OBJECT
 10
2.027829
 20
2.102081
 30
0.0
  0
VERTEX
  8
OBJECT
 10
2.027829
 20
3.632081
 30
0.0
  0
SEQEND
  8
OBJECT
  0
DIMENSION
  8
DIM
  2
*D4
 10
1.15429
 20
4.117081
 30
0.0
 11
1.15429
 21
2.867081
 31
0.0
 12
-0.064786
 22
0.053759
 32
0.0
  1
E
 13
2.080829
 23
1.617081
 33
0.0
 14
2.080829
 24
4.117081
 34
0.0
 50
90.0
  3
23NSTD
  0
LINE
  8
HIDDEN
 10
4.512692
 20
1.786182
 30
0.0
 11
4.512692
 21
2.235882
 31
0.0
  0
ARC
  8
HIDDEN
 10
4.574692
 20
1.786182
 30
0.0
 40
0.062
 50
180.0
 51
267.0
  0
ARC
  8
OBJECT
 10
4.574692
 20
3.94798
 30
0.0
 40
0.062
 50
93.0
 51
180.0
  0
LINE
  8
OBJECT
 10
2.02193
 20
4.995294
 30
0.0
 11
3.313729
 21
4.995294
 31
0.0
  0
LINE
  8
OBJECT
 10
1.981304
 20
5.795294
 30
0.0
 11
3.354354
 21
5.795294
 31
0.0
  0
LINE
  8
HIDDEN
 10
1.981304
 20
5.702294
 30
0.0
 11
3.354354
 21
5.702294
 31
0.0
  0
LINE
  8
HIDDEN
 10
1.897611
 20
5.478294
 30
0.0
 11
3.438048
 21
5.478294
 31
0.0
  0
LINE
  8
OBJECT
 10
1.852829
 20
5.444294
 30
0.0
 11
3.482829
 21
5.444294
 31
0.0
  0
LINE
  8
HIDDEN
 10
2.02193
 20
5.088294
 30
0.0
 11
3.313729
 21
5.088294
 31
0.0
  0
LINE
  8
OBJECT
 10
1.852829
 20
5.415294
 30
0.0
 11
3.482829
 21
5.415294
 31
0.0
  0
ARC
  8
OBJECT
 10
2.02193
 20
5.150294
 30
0.0
 40
0.155
 50
183.0
 51
270.0
  0
ARC
  8
OBJECT
 10
1.981304
 20
5.679294
 30
0.0
 40
0.116
 50
90.0
 51
177.0
  0
LINE
  8
OBJECT
 10
1.852829
 20
5.415294
 30
0.0
 11
1.867143
 21
5.142182
 31
0.0
  0
LINE
  8
OBJECT
 10
1.852829
 20
5.444294
 30
0.0
 11
1.865463
 21
5.685365
 31
0.0
  0
LINE
  8
HIDDEN
 10
1.895829
 20
5.444294
 30
0.0
 11
1.897611
 21
5.478294
 31
0.0
  0
LINE
  8
OBJECT
 10
1.895048
 20
5.444294
 30
0.0
 11
1.893528
 21
5.415294
 31
0.0
  0
LINE
  8
HIDDEN
 10
2.052829
 20
5.795294
 30
0.0
 11
2.052829
 21
5.751294
 31
0.0
  0
LINE
  8
HIDDEN
 10
2.282829
 20
5.795294
 30
0.0
 11
2.282829
 21
5.751294
 31
0.0
  0
LINE
  8
HIDDEN
 10
1.942655
 20
5.478294
 30
0.0
 11
1.960015
 21
5.147049
 31
0.0
  0
LINE
  8
HIDDEN
 10
2.067371
 20
5.088294
 30
0.0
 11
2.073829
 21
5.458294
 31
0.0
  0
LINE
  8
HIDDEN
 10
2.268288
 20
5.088294
 30
0.0
 11
2.261829
 21
5.458294
 31
0.0
  0
LINE
  8
HIDDEN
 10
2.206371
 20
5.088294
 30
0.0
 11
2.212829
 21
5.458294
 31
0.0
  0
LINE
  8
HIDDEN
 10
2.129288
 20
5.088294
 30
0.0
 11
2.122829
 21
5.458294
 31
0.0
  0
ARC
  8
HIDDEN
 10
2.02193
 20
5.150294
 30
0.0
 40
0.062
 50
183.0
 51
270.0
  0
LINE
  8
HIDDEN
 10
2.108449
 20
5.687311
 30
0.0
 11
2.22721
 21
5.687311
 31
0.0
  0
LINE
  8
HIDDEN
 10
2.073829
 20
5.522294
 30
0.0
 11
2.261829
 21
5.522294
 31
0.0
  0
LINE
  8
HIDDEN
 10
2.073829
 20
5.458294
 30
0.0
 11
2.261829
 21
5.458294
 31
0.0
  0
LINE
  8
HIDDEN
 10
2.263924
 20
5.642294
 30
0.0
 11
2.071735
 21
5.642294
 31
0.0
  0
LINE
  8
HIDDEN
 10
2.052829
 20
5.751294
 30
0.0
 11
2.282829
 21
5.751294
 31
0.0
  0
LINE
  8
HIDDEN
 10
2.111329
 20
5.522294
 30
0.0
 11
2.108449
 21
5.687311
 31
0.0
  0
LINE
  8
HIDDEN
 10
2.073829
 20
5.522294
 30
0.0
 11
2.071735
 21
5.642294
 31
0.0
  0
LINE
  8
HIDDEN
 10
1.947739
 20
5.478294
 30
0.0
 11
1.958336
 21
5.680497
 31
0.0
  0
LINE
  8
HIDDEN
 10
2.071735
 20
5.642294
 30
0.0
 11
2.027829
 21
5.702294
 31
0.0
  0
ARC
  8
HIDDEN
 10
1.981304
 20
5.679294
 30
0.0
 40
0.023
 50
90.0
 51
177.0
  0
POINT
  8
HIDDEN
 10
1.981304
 20
5.702294
 30
0.0
  0
POINT
  8
HIDDEN
 10
1.981304
 20
5.702294
 30
0.0
  0
LINE
  8
HIDDEN
 10
2.108449
 20
5.687311
 30
0.0
 11
2.052829
 21
5.751294
 31
0.0
  0
LINE
  8
HIDDEN
 10
2.261829
 20
5.522294
 30
0.0
 11
2.263924
 21
5.642294
 31
0.0
  0
LINE
  8
HIDDEN
 10
2.224329
 20
5.522294
 30
0.0
 11
2.22721
 21
5.687311
 31
0.0
  0
LINE
  8
HIDDEN
 10
2.263924
 20
5.642294
 30
0.0
 11
2.307829
 21
5.702294
 31
0.0
  0
LINE
  8
HIDDEN
 10
2.22721
 20
5.687311
 30
0.0
 11
2.282829
 21
5.751294
 31
0.0
  0
LINE
  8
HIDDEN
 10
3.052829
 20
5.795294
 30
0.0
 11
3.052829
 21
5.751294
 31
0.0
  0
LINE
  8
HIDDEN
 10
3.282829
 20
5.795294
 30
0.0
 11
3.282829
 21
5.751294
 31
0.0
  0
ARC
  8
OBJECT
 10
3.354354
 20
5.679294
 30
0.0
 40
0.116
 50
3.0
 51
90.0
  0
ARC
  8
OBJECT
 10
3.313729
 20
5.150294
 30
0.0
 40
0.155
 50
270.0
 51
357.0
  0
LINE
  8
HIDDEN
 10
3.268288
 20
5.088294
 30
0.0
 11
3.261829
 21
5.458294
 31
0.0
  0
LINE
  8
HIDDEN
 10
3.393003
 20
5.478294
 30
0.0
 11
3.375644
 21
5.147049
 31
0.0
  0
LINE
  8
HIDDEN
 10
3.206371
 20
5.088294
 30
0.0
 11
3.212829
 21
5.458294
 31
0.0
  0
LINE
  8
HIDDEN
 10
3.129288
 20
5.088294
 30
0.0
 11
3.122829
 21
5.458294
 31
0.0
  0
LINE
  8
HIDDEN
 10
3.067371
 20
5.088294
 30
0.0
 11
3.073829
 21
5.458294
 31
0.0
  0
ARC
  8
HIDDEN
 10
3.313729
 20
5.150294
 30
0.0
 40
0.062
 50
270.0
 51
357.0
  0
POINT
  8
HIDDEN
 10
3.273729
 20
5.088294
 30
0.0
  0
LINE
  8
HIDDEN
 10
3.22721
 20
5.687311
 30
0.0
 11
3.108449
 21
5.687311
 31
0.0
  0
LINE
  8
HIDDEN
 10
3.261829
 20
5.522294
 30
0.0
 11
3.073829
 21
5.522294
 31
0.0
  0
LINE
  8
HIDDEN
 10
3.261829
 20
5.458294
 30
0.0
 11
3.073829
 21
5.458294
 31
0.0
  0
LINE
  8
HIDDEN
 10
3.263924
 20
5.642294
 30
0.0
 11
3.071735
 21
5.642294
 31
0.0
  0
LINE
  8
HIDDEN
 10
3.282829
 20
5.751294
 30
0.0
 11
3.052829
 21
5.751294
 31
0.0
  0
LINE
  8
HIDDEN
 10
3.111329
 20
5.522294
 30
0.0
 11
3.108449
 21
5.687311
 31
0.0
  0
LINE
  8
HIDDEN
 10
3.073829
 20
5.522294
 30
0.0
 11
3.071735
 21
5.642294
 31
0.0
  0
LINE
  8
HIDDEN
 10
3.071735
 20
5.642294
 30
0.0
 11
3.027829
 21
5.702294
 31
0.0
  0
LINE
  8
HIDDEN
 10
3.108449
 20
5.687311
 30
0.0
 11
3.052829
 21
5.751294
 31
0.0
  0
LINE
  8
HIDDEN
 10
3.38792
 20
5.478294
 30
0.0
 11
3.377323
 21
5.680497
 31
0.0
  0
LINE
  8
HIDDEN
 10
3.261829
 20
5.522294
 30
0.0
 11
3.263924
 21
5.642294
 31
0.0
  0
LINE
  8
HIDDEN
 10
3.263924
 20
5.642294
 30
0.0
 11
3.307829
 21
5.702294
 31
0.0
  0
ARC
  8
HIDDEN
 10
3.354354
 20
5.679294
 30
0.0
 40
0.023
 50
3.0
 51
90.0
  0
LINE
  8
HIDDEN
 10
3.224329
 20
5.522294
 30
0.0
 11
3.22721
 21
5.687311
 31
0.0
  0
LINE
  8
HIDDEN
 10
3.22721
 20
5.687311
 30
0.0
 11
3.282829
 21
5.751294
 31
0.0
  0
LINE
  8
OBJECT
 10
3.482829
 20
5.415294
 30
0.0
 11
3.468516
 21
5.142182
 31
0.0
  0
LINE
  8
OBJECT
 10
3.482829
 20
5.444294
 30
0.0
 11
3.470195
 21
5.685365
 31
0.0
  0
LINE
  8
HIDDEN
 10
3.439829
 20
5.444294
 30
0.0
 11
3.438048
 21
5.478294
 31
0.0
  0
LINE
  8
OBJECT
 10
3.440611
 20
5.444294
 30
0.0
 11
3.442131
 21
5.415294
 31
0.0
  0
POLYLINE
  8
OBJECT
 66
     1
 10
0.0
 20
0.0
 30
0.0
 70
     1
  0
VERTEX
  8
OBJECT
 10
7.003198
 20
1.845081
 30
0.0
  0
VERTEX
  8
OBJECT
 10
7.003198
 20
3.889081
 30
0.0
 42
-0.414214
  0
VERTEX
  8
OBJECT
 10
7.231198
 20
4.117081
 30
0.0
  0
VERTEX
  8
OBJECT
 10
8.405198
 20
4.117081
 30
0.0
 42
-0.414214
  0
VERTEX
  8
OBJECT
 10
8.633198
 20
3.889081
 30
0.0
  0
VERTEX
  8
OBJECT
 10
8.633198
 20
1.845081
 30
0.0
 42
-0.414214
  0
VERTEX
  8
OBJECT
 10
8.405198
 20
1.617081
 30
0.0
  0
VERTEX
  8
OBJECT
 10
7.231198
 20
1.617081
 30
0.0
 42
-0.414214
  0
SEQEND
  8
OBJECT
  0
DIMENSION
  8
DIM
  2
*D1
 10
5.219692
 20
2.486544
 30
0.0
 11
6.044692
 21
2.486544
 31
0.0
 12
-12.702782
 22
-5.183498
 32
0.0
  1
<> TYP.
 13
5.126692
 23
2.508472
 33
0.0
 14
5.219692
 24
2.508472
 34
0.0
  3
23NSTD
  0
LINE
  8
HIDDEN
 10
4.902692
 20
1.661863
 30
0.0
 11
4.902692
 21
2.198556
 31
0.0
  0
LINE
  8
HIDDEN
 10
5.126692
 20
1.745556
 30
0.0
 11
5.126692
 21
2.189224
 31
0.0
  0
LINE
  8
HIDDEN
 10
5.111709
 20
1.991461
 30
0.0
 11
5.175692
 21
2.047081
 31
0.0
  0
LINE
  8
HIDDEN
 10
5.111709
 20
1.872701
 30
0.0
 11
5.175692
 21
1.817081
 31
0.0
  0
LINE
  8
HIDDEN
 10
4.868692
 20
1.660081
 30
0.0
 11
4.902692
 21
1.661863
 31
0.0
  0
POLYLINE
  8
OBJECT
 66
     1
 10
0.0
 20
0.0
 30
0.0
  0
VERTEX
  8
OBJECT
 10
4.868692
 20
1.659299
 30
0.0
  0
VERTEX
  8
OBJECT
 10
4.839692
 20
1.657779
 30
0.0
  0
SEQEND
  8
OBJECT
  0
LINE
  8
HIDDEN
 10
4.882692
 20
1.838081
 30
0.0
 11
4.882692
 21
2.026081
 31
0.0
  0
LINE
  8
HIDDEN
 10
4.902692
 20
1.71199
 30
0.0
 11
5.104895
 21
1.722587
 31
0.0
  0
LINE
  8
HIDDEN
 10
5.066692
 20
1.835986
 30
0.0
 11
5.066692
 21
2.028176
 31
0.0
  0
LINE
  8
HIDDEN
 10
4.946692
 20
1.838081
 30
0.0
 11
4.946692
 21
2.026081
 31
0.0
  0
LINE
  8
HIDDEN
 10
4.946692
 20
1.988581
 30
0.0
 11
5.111709
 21
1.991461
 31
0.0
  0
LINE
  8
HIDDEN
 10
4.946692
 20
1.875581
 30
0.0
 11
5.111709
 21
1.872701
 31
0.0
  0
LINE
  8
HIDDEN
 10
4.946692
 20
1.838081
 30
0.0
 11
5.066692
 21
1.835986
 31
0.0
  0
LINE
  8
HIDDEN
 10
5.066692
 20
1.835986
 30
0.0
 11
5.126692
 21
1.792081
 31
0.0
  0
LINE
  8
HIDDEN
 10
5.111709
 20
1.872701
 30
0.0
 11
5.111709
 21
1.991461
 31
0.0
  0
POINT
  8
HIDDEN
 10
5.126692
 20
1.745556
 30
0.0
  0
ARC
  8
HIDDEN
 10
5.103692
 20
1.745556
 30
0.0
 40
0.023
 50
273.0
 51
0.0
  0
LINE
  8
HIDDEN
 10
4.946692
 20
2.026081
 30
0.0
 11
5.066692
 21
2.028176
 31
0.0
  0
LINE
  8
HIDDEN
 10
5.066692
 20
2.028176
 30
0.0
 11
5.126692
 21
2.072081
 31
0.0
  0
LINE
  8
HIDDEN
 10
5.175692
 20
1.817081
 30
0.0
 11
5.175692
 21
2.047081
 31
0.0
  0
POINT
  8
HIDDEN
 10
5.175692
 20
1.817081
 30
0.0
  0
LINE
  8
HIDDEN
 10
5.219692
 20
1.817081
 30
0.0
 11
5.175692
 21
1.817081
 31
0.0
  0
LINE
  8
HIDDEN
 10
5.219692
 20
2.047081
 30
0.0
 11
5.175692
 21
2.047081
 31
0.0
  0
LINE
  8
OBJECT
 10
5.111709
 20
3.861461
 30
0.0
 11
5.175692
 21
3.917081
 31
0.0
  0
LINE
  8
OBJECT
 10
5.111709
 20
3.742701
 30
0.0
 11
5.175692
 21
3.687081
 31
0.0
  0
LINE
  8
OBJECT
 10
4.882692
 20
3.896081
 30
0.0
 11
4.882692
 21
3.708081
 31
0.0
  0
LINE
  8
OBJECT
 10
4.946692
 20
3.896081
 30
0.0
 11
4.946692
 21
3.708081
 31
0.0
  0
LINE
  8
OBJECT
 10
4.946692
 20
3.858581
 30
0.0
 11
5.111709
 21
3.861461
 31
0.0
  0
LINE
  8
OBJECT
 10
4.946692
 20
3.708081
 30
0.0
 11
5.066692
 21
3.705986
 31
0.0
  0
LINE
  8
OBJECT
 10
4.946692
 20
3.745581
 30
0.0
 11
5.111709
 21
3.742701
 31
0.0
  0
LINE
  8
OBJECT
 10
5.066692
 20
3.705986
 30
0.0
 11
5.126692
 21
3.662081
 31
0.0
  0
LINE
  8
OBJECT
 10
5.111709
 20
3.861461
 30
0.0
 11
5.111709
 21
3.742701
 31
0.0
  0
LINE
  8
OBJECT
 10
4.868692
 20
4.074081
 30
0.0
 11
4.902692
 21
4.072299
 31
0.0
  0
POINT
  8
OBJECT
 10
4.839692
 20
4.117081
 30
0.0
  0
POINT
  8
OBJECT
 10
4.839692
 20
4.117081
 30
0.0
  0
POINT
  8
OBJECT
 10
4.839692
 20
4.117081
 30
0.0
  0
POINT
  8
HIDDEN
 10
4.868692
 20
4.074081
 30
0.0
  0
POLYLINE
  8
OBJECT
 66
     1
 10
0.0
 20
0.0
 30
0.0
  0
VERTEX
  8
OBJECT
 10
4.839692
 20
4.076383
 30
0.0
  0
VERTEX
  8
OBJECT
 10
4.868692
 20
4.074863
 30
0.0
  0
SEQEND
  8
OBJECT
  0
POINT
  8
HIDDEN
 10
4.902692
 20
4.027255
 30
0.0
  0
POINT
  8
OBJECT
 10
4.902692
 20
4.073081
 30
0.0
  0
POINT
  8
OBJECT
 10
4.902692
 20
4.073081
 30
0.0
  0
LINE
  8
OBJECT
 10
4.902692
 20
4.022171
 30
0.0
 11
5.104895
 21
4.011574
 31
0.0
  0
POINT
  8
HIDDEN
 10
4.905692
 20
4.022014
 30
0.0
  0
LINE
  8
OBJECT
 10
4.946692
 20
3.896081
 30
0.0
 11
5.066692
 21
3.898176
 31
0.0
  0
LINE
  8
OBJECT
 10
5.066692
 20
3.898176
 30
0.0
 11
5.126692
 21
3.942081
 31
0.0
  0
POINT
  8
HIDDEN
 10
5.126692
 20
3.988606
 30
0.0
  0
ARC
  8
OBJECT
 10
5.103692
 20
3.988606
 30
0.0
 40
0.023
 50
0.0
 51
87.0
  0
LINE
  8
OBJECT
 10
5.175692
 20
3.917081
 30
0.0
 11
5.175692
 21
3.687081
 31
0.0
  0
LINE
  8
OBJECT
 10
5.219692
 20
3.687081
 30
0.0
 11
5.175692
 21
3.687081
 31
0.0
  0
LINE
  8
OBJECT
 10
5.219692
 20
3.917081
 30
0.0
 11
5.175692
 21
3.917081
 31
0.0
  0
POLYLINE
  8
HIDDEN
 66
     1
 10
0.0
 20
0.0
 30
0.0
 70
     1
  0
VERTEX
  8
HIDDEN
 10
7.231198
 20
1.712081
 30
0.0
 42
-0.414214
  0
VERTEX
  8
HIDDEN
 10
7.098198
 20
1.845081
 30
0.0
  0
VERTEX
  8
HIDDEN
 10
7.098198
 20
3.889081
 30
0.0
 42
-0.414214
  0
VERTEX
  8
HIDDEN
 10
7.231198
 20
4.022081
 30
0.0
  0
VERTEX
  8
HIDDEN
 10
8.405198
 20
4.022081
 30
0.0
 42
-0.414214
  0
VERTEX
  8
HIDDEN
 10
8.538198
 20
3.889081
 30
0.0
  0
VERTEX
  8
HIDDEN
 10
8.538198
 20
1.845081
 30
0.0
 42
-0.414214
  0
VERTEX
  8
HIDDEN
 10
8.405198
 20
1.712081
 30
0.0
  0
SEQEND
  8
HIDDEN
  0
CIRCLE
  8
OBJECT
 10
7.318198
 20
1.932081
 30
0.0
 40
0.0565
  0
CIRCLE
  8
OBJECT
 10
7.318198
 20
1.932081
 30
0.0
 40
0.115
  0
POLYLINE
  8
OBJECT
 66
     1
 10
0.0
 20
0.0
 30
0.0
 70
     1
  0
VERTEX
  8
OBJECT
 10
8.333198
 20
2.356081
 30
0.0
  0
VERTEX
  8
OBJECT
 10
8.333198
 20
3.636081
 30
0.0
  0
VERTEX
  8
OBJECT
 10
7.303198
 20
3.636081
 30
0.0
  0
VERTEX
  8
OBJECT
 10
7.303198
 20
2.356081
 30
0.0
  0
SEQEND
  8
OBJECT
  0
CIRCLE
  8
OBJECT
 10
8.318198
 20
3.802081
 30
0.0
 40
0.115
  0
CIRCLE
  8
OBJECT
 10
8.318198
 20
3.802081
 30
0.0
 40
0.0565
  0
POLYLINE
  8
OBJECT
 66
     1
 10
0.0
 20
0.0
 30
0.0
  0
VERTEX
  8
OBJECT
 10
5.219692
 20
2.356081
 30
0.0
  0
VERTEX
  8
OBJECT
 10
5.209692
 20
2.356081
 30
0.0
  0
VERTEX
  8
OBJECT
 10
5.209692
 20
3.636081
 30
0.0
  0
VERTEX
  8
OBJECT
 10
5.219692
 20
3.636081
 30
0.0
  0
SEQEND
  8
OBJECT
  0
POLYLINE
  8
HIDDEN
 66
     1
 10
0.0
 20
0.0
 30
0.0
  0
VERTEX
  8
HIDDEN
 10
2.167829
 20
5.795294
 30
0.0
  0
VERTEX
  8
HIDDEN
 10
2.167829
 20
5.785294
 30
0.0
  0
VERTEX
  8
HIDDEN
 10
3.167829
 20
5.785294
 30
0.0
  0
VERTEX
  8
HIDDEN
 10
3.167829
 20
5.795294
 30
0.0
  0
SEQEND
  8
HIDDEN
  0
POLYLINE
  8
HIDDEN
 66
     1
 10
0.0
 20
0.0
 30
0.0
  0
VERTEX
  8
HIDDEN
 10
2.027829
 20
4.995294
 30
0.0
  0
VERTEX
  8
HIDDEN
 10
2.027829
 20
5.026294
 30
0.0
  0
VERTEX
  8
HIDDEN
 10
3.307829
 20
5.026294
 30
0.0
  0
VERTEX
  8
HIDDEN
 10
3.307829
 20
4.995294
 30
0.0
  0
SEQEND
  8
HIDDEN
  0
LINE
  8
TITLE
 10
0.062
 20
7.75
 30
0.0
 11
10.058
 21
7.75
 31
0.0
  0
POLYLINE
  8
HIDDEN
 66
     1
 10
0.0
 20
0.0
 30
0.0
  0
VERTEX
  8
HIDDEN
 10
2.167829
 20
13.549799
 30
0.0
  0
VERTEX
  8
HIDDEN
 10
2.167829
 20
13.539799
 30
0.0
  0
VERTEX
  8
HIDDEN
 10
3.167829
 20
13.539799
 30
0.0
  0
VERTEX
  8
HIDDEN
 10
3.167829
 20
13.549799
 30
0.0
  0
SEQEND
  8
HIDDEN
  0
LINE
  8
OBJECT
 10
1.852829
 20
13.169799
 30
0.0
 11
3.482829
 21
13.169799
 31
0.0
  0
LINE
  8
HIDDEN
 10
2.02193
 20
12.842799
 30
0.0
 11
3.313729
 21
12.842799
 31
0.0
  0
LINE
  8
OBJECT
 10
1.852829
 20
13.198799
 30
0.0
 11
3.482829
 21
13.198799
 31
0.0
  0
LINE
  8
HIDDEN
 10
1.897611
 20
13.232799
 30
0.0
 11
3.438048
 21
13.232799
 31
0.0
  0
LINE
  8
HIDDEN
 10
1.981304
 20
13.456799
 30
0.0
 11
3.354354
 21
13.456799
 31
0.0
  0
LINE
  8
OBJECT
 10
1.981304
 20
13.549799
 30
0.0
 11
3.354354
 21
13.549799
 31
0.0
  0
LINE
  8
OBJECT
 10
2.02193
 20
12.749799
 30
0.0
 11
3.313729
 21
12.749799
 31
0.0
  0
LINE
  8
HIDDEN
 10
2.22721
 20
13.441816
 30
0.0
 11
2.282829
 21
13.505799
 31
0.0
  0
LINE
  8
HIDDEN
 10
2.263924
 20
13.396799
 30
0.0
 11
2.307829
 21
13.456799
 31
0.0
  0
LINE
  8
HIDDEN
 10
2.052829
 20
13.505799
 30
0.0
 11
2.282829
 21
13.505799
 31
0.0
  0
DIMENSION
  8
DIM
  2
*D5
 10
3.482829
 20
12.403008
 30
0.0
 11
2.667829
 21
12.403008
 31
0.0
 12
-0.064786
 22
0.129526
 32
0.0
  1
A
 13
1.852829
 23
11.643586
 33
0.0
 14
3.482829
 24
11.643586
 34
0.0
  3
23NSTD
  0
POLYLINE
  8
HIDDEN
 66
     1
 10
0.0
 20
0.0
 30
0.0
 70
     1
  0
VERTEX
  8
HIDDEN
 10
3.254829
 20
9.464586
 30
0.0
 42
0.414214
  0
VERTEX
  8
HIDDEN
 10
3.389829
 20
9.599586
 30
0.0
  0
VERTEX
  8
HIDDEN
 10
3.389829
 20
11.643586
 30
0.0
 42
0.414214
  0
VERTEX
  8
HIDDEN
 10
3.254829
 20
11.778586
 30
0.0
  0
VERTEX
  8
HIDDEN
 10
2.080829
 20
11.778586
 30
0.0
 42
0.414214
  0
VERTEX
  8
HIDDEN
 10
1.945829
 20
11.643586
 30
0.0
  0
VERTEX
  8
HIDDEN
 10
1.945829
 20
9.599586
 30
0.0
 42
0.414214
  0
VERTEX
  8
HIDDEN
 10
2.080829
 20
9.464586
 30
0.0
  0
SEQEND
  8
HIDDEN
  0
POLYLINE
  8
OBJECT
 66
     1
 10
0.0
 20
0.0
 30
0.0
 70
     1
  0
VERTEX
  8
OBJECT
 10
3.482829
 20
9.599586
 30
0.0
  0
VERTEX
  8
OBJECT
 10
3.482829
 20
11.643586
 30
0.0
 42
0.414214
  0
VERTEX
  8
OBJECT
 10
3.254829
 20
11.871586
 30
0.0
  0
VERTEX
  8
OBJECT
 10
2.080829
 20
11.871586
 30
0.0
 42
0.414214
  0
VERTEX
  8
OBJECT
 10
1.852829
 20
11.643586
 30
0.0
  0
VERTEX
  8
OBJECT
 10
1.852829
 20
9.599586
 30
0.0
 42
0.414214
  0
VERTEX
  8
OBJECT
 10
2.080829
 20
9.371586
 30
0.0
  0
VERTEX
  8
OBJECT
 10
3.254829
 20
9.371586
 30
0.0
 42
0.414214
  0
SEQEND
  8
OBJECT
  0
LINE
  8
HIDDEN
 10
2.052829
 20
13.549799
 30
0.0
 11
2.052829
 21
13.505799
 31
0.0
  0
ARC
  8
OBJECT
 10
1.981304
 20
13.433799
 30
0.0
 40
0.116
 50
90.0
 51
177.0
  0
LINE
  8
HIDDEN
 10
2.129288
 20
12.842799
 30
0.0
 11
2.122829
 21
13.212799
 31
0.0
  0
LINE
  8
HIDDEN
 10
2.206371
 20
12.842799
 30
0.0
 11
2.212829
 21
13.212799
 31
0.0
  0
LINE
  8
HIDDEN
 10
2.268288
 20
12.842799
 30
0.0
 11
2.261829
 21
13.212799
 31
0.0
  0
LINE
  8
HIDDEN
 10
2.067371
 20
12.842799
 30
0.0
 11
2.073829
 21
13.212799
 31
0.0
  0
LINE
  8
HIDDEN
 10
1.942655
 20
13.232799
 30
0.0
 11
1.960015
 21
12.901554
 31
0.0
  0
LINE
  8
OBJECT
 10
1.852829
 20
13.169799
 30
0.0
 11
1.867143
 21
12.896687
 31
0.0
  0
ARC
  8
HIDDEN
 10
2.02193
 20
12.904799
 30
0.0
 40
0.062
 50
183.0
 51
270.0
  0
LINE
  8
HIDDEN
 10
2.224329
 20
13.276799
 30
0.0
 11
2.22721
 21
13.441816
 31
0.0
  0
LINE
  8
HIDDEN
 10
2.261829
 20
13.276799
 30
0.0
 11
2.263924
 21
13.396799
 31
0.0
  0
LINE
  8
HIDDEN
 10
2.108449
 20
13.441816
 30
0.0
 11
2.052829
 21
13.505799
 31
0.0
  0
POINT
  8
HIDDEN
 10
1.981304
 20
13.456799
 30
0.0
  0
POINT
  8
HIDDEN
 10
1.981304
 20
13.456799
 30
0.0
  0
ARC
  8
HIDDEN
 10
1.981304
 20
13.433799
 30
0.0
 40
0.023
 50
90.0
 51
177.0
  0
LINE
  8
HIDDEN
 10
2.071735
 20
13.396799
 30
0.0
 11
2.027829
 21
13.456799
 31
0.0
  0
LINE
  8
HIDDEN
 10
1.947739
 20
13.232799
 30
0.0
 11
1.958336
 21
13.435003
 31
0.0
  0
LINE
  8
HIDDEN
 10
2.073829
 20
13.276799
 30
0.0
 11
2.071735
 21
13.396799
 31
0.0
  0
LINE
  8
HIDDEN
 10
2.111329
 20
13.276799
 30
0.0
 11
2.108449
 21
13.441816
 31
0.0
  0
LINE
  8
HIDDEN
 10
2.263924
 20
13.396799
 30
0.0
 11
2.071735
 21
13.396799
 31
0.0
  0
LINE
  8
HIDDEN
 10
2.073829
 20
13.212799
 30
0.0
 11
2.261829
 21
13.212799
 31
0.0
  0
LINE
  8
HIDDEN
 10
2.073829
 20
13.276799
 30
0.0
 11
2.261829
 21
13.276799
 31
0.0
  0
LINE
  8
HIDDEN
 10
2.108449
 20
13.441816
 30
0.0
 11
2.22721
 21
13.441816
 31
0.0
  0
LINE
  8
OBJECT
 10
1.895048
 20
13.198799
 30
0.0
 11
1.893528
 21
13.169799
 31
0.0
  0
LINE
  8
HIDDEN
 10
1.895829
 20
13.198799
 30
0.0
 11
1.897611
 21
13.232799
 31
0.0
  0
LINE
  8
OBJECT
 10
1.852829
 20
13.198799
 30
0.0
 11
1.865463
 21
13.43987
 31
0.0
  0
ARC
  8
OBJECT
 10
2.02193
 20
12.904799
 30
0.0
 40
0.155
 50
183.0
 51
270.0
  0
CIRCLE
  8
OBJECT
 10
8.318198
 20
11.556586
 30
0.0
 40
0.115
  0
POLYLINE
  8
OBJECT
 66
     1
 10
0.0
 20
0.0
 30
0.0
 70
     1
  0
VERTEX
  8
OBJECT
 10
7.003198
 20
9.599586
 30
0.0
  0
VERTEX
  8
OBJECT
 10
7.003198
 20
11.643586
 30
0.0
 42
-0.414214
  0
VERTEX
  8
OBJECT
 10
7.231198
 20
11.871586
 30
0.0
  0
VERTEX
  8
OBJECT
 10
8.405198
 20
11.871586
 30
0.0
 42
-0.414214
  0
VERTEX
  8
OBJECT
 10
8.633198
 20
11.643586
 30
0.0
  0
VERTEX
  8
OBJECT
 10
8.633198
 20
9.599586
 30
0.0
 42
-0.414214
  0
VERTEX
  8
OBJECT
 10
8.405198
 20
9.371586
 30
0.0
  0
VERTEX
  8
OBJECT
 10
7.231198
 20
9.371586
 30
0.0
 42
-0.414214
  0
SEQEND
  8
OBJECT
  0
POLYLINE
  8
HIDDEN
 66
     1
 10
0.0
 20
0.0
 30
0.0
 70
     1
  0
VERTEX
  8
HIDDEN
 10
7.231198
 20
9.466586
 30
0.0
 42
-0.414214
  0
VERTEX
  8
HIDDEN
 10
7.098198
 20
9.599586
 30
0.0
  0
VERTEX
  8
HIDDEN
 10
7.098198
 20
11.643586
 30
0.0
 42
-0.414214
  0
VERTEX
  8
HIDDEN
 10
7.231198
 20
11.776586
 30
0.0
  0
VERTEX
  8
HIDDEN
 10
8.405198
 20
11.776586
 30
0.0
 42
-0.414214
  0
VERTEX
  8
HIDDEN
 10
8.538198
 20
11.643586
 30
0.0
  0
VERTEX
  8
HIDDEN
 10
8.538198
 20
9.599586
 30
0.0
 42
-0.414214
  0
VERTEX
  8
HIDDEN
 10
8.405198
 20
9.466586
 30
0.0
  0
SEQEND
  8
HIDDEN
  0
LINE
  8
OBJECT
 10
4.946692
 20
11.613086
 30
0.0
 11
5.111709
 21
11.615966
 31
0.0
  0
LINE
  8
OBJECT
 10
4.946692
 20
11.462586
 30
0.0
 11
5.066692
 21
11.460491
 31
0.0
  0
LINE
  8
OBJECT
 10
4.946692
 20
11.500086
 30
0.0
 11
5.111709
 21
11.497206
 31
0.0
  0
LINE
  8
OBJECT
 10
4.902692
 20
11.776676
 30
0.0
 11
5.104895
 21
11.766079
 31
0.0
  0
LINE
  8
OBJECT
 10
4.946692
 20
11.650586
 30
0.0
 11
5.066692
 21
11.652681
 31
0.0
  0
DIMENSION
  8
DIM
  2
*D1
 10
5.219692
 20
10.219208
 30
0.0
 11
6.044692
 21
10.219208
 31
0.0
 12
-12.702782
 22
2.549165
 32
0.0
  1
<> TYP.
 13
5.126692
 23
10.241135
 33
0.0
 14
5.219692
 24
10.241135
 34
0.0
  3
23NSTD
  0
LINE
  8
HIDDEN
 10
4.902692
 20
9.466495
 30
0.0
 11
5.104895
 21
9.477093
 31
0.0
  0
LINE
  8
HIDDEN
 10
4.946692
 20
9.743086
 30
0.0
 11
5.111709
 21
9.745966
 31
0.0
  0
LINE
  8
HIDDEN
 10
4.946692
 20
9.630086
 30
0.0
 11
5.111709
 21
9.627206
 31
0.0
  0
LINE
  8
HIDDEN
 10
4.946692
 20
9.592586
 30
0.0
 11
5.066692
 21
9.590491
 31
0.0
  0
LINE
  8
HIDDEN
 10
4.946692
 20
9.780586
 30
0.0
 11
5.066692
 21
9.782681
 31
0.0
  0
DIMENSION
  8
DIM
  2
*D3
 10
5.219692
 20
12.137965
 30
0.0
 11
4.819692
 21
12.137965
 31
0.0
 12
-0.280738
 22
0.129526
 32
0.0
 13
4.419692
 23
11.702485
 33
0.0
 14
5.219692
 24
11.743111
 34
0.0
  3
23NSTDI
  0
LINE
  8
HIDDEN
 10
4.512692
 20
9.540687
 30
0.0
 11
4.512692
 21
9.948277
 31
0.0
  0
LINE
  8
HIDDEN
 10
4.902692
 20
9.416368
 30
0.0
 11
4.902692
 21
9.9224
 31
0.0
  0
LINE
  8
HIDDEN
 10
4.882692
 20
9.592586
 30
0.0
 11
4.882692
 21
9.780586
 31
0.0
  0
LINE
  8
HIDDEN
 10
4.946692
 20
9.592586
 30
0.0
 11
4.946692
 21
9.780586
 31
0.0
  0
LINE
  8
HIDDEN
 10
4.902692
 20
9.461412
 30
0.0
 11
4.571447
 21
9.478772
 31
0.0
  0
LINE
  8
HIDDEN
 10
4.512692
 20
9.586128
 30
0.0
 11
4.882692
 21
9.592586
 31
0.0
  0
ARC
  8
HIDDEN
 10
4.574692
 20
9.540687
 30
0.0
 40
0.062
 50
180.0
 51
267.0
  0
LINE
  8
HIDDEN
 10
4.868692
 20
9.414586
 30
0.0
 11
4.902692
 21
9.416368
 31
0.0
  0
POLYLINE
  8
OBJECT
 66
     1
 10
0.0
 20
0.0
 30
0.0
  0
VERTEX
  8
OBJECT
 10
4.868692
 20
9.413804
 30
0.0
  0
VERTEX
  8
OBJECT
 10
4.839692
 20
9.412284
 30
0.0
  0
SEQEND
  8
OBJECT
  0
LINE
  8
HIDDEN
 10
4.512692
 20
9.648044
 30
0.0
 11
4.882692
 21
9.641586
 31
0.0
  0
LINE
  8
HIDDEN
 10
4.512692
 20
9.787044
 30
0.0
 11
4.882692
 21
9.780586
 31
0.0
  0
LINE
  8
HIDDEN
 10
4.512692
 20
9.725128
 30
0.0
 11
4.882692
 21
9.731586
 31
0.0
  0
LINE
  8
OBJECT
 10
4.882692
 20
11.650586
 30
0.0
 11
4.882692
 21
11.462586
 31
0.0
  0
LINE
  8
OBJECT
 10
4.946692
 20
11.650586
 30
0.0
 11
4.946692
 21
11.462586
 31
0.0
  0
LINE
  8
OBJECT
 10
4.512692
 20
11.456128
 30
0.0
 11
4.882692
 21
11.462586
 31
0.0
  0
LINE
  8
OBJECT
 10
4.512692
 20
11.518044
 30
0.0
 11
4.882692
 21
11.511586
 31
0.0
  0
LINE
  8
OBJECT
 10
4.868692
 20
11.828586
 30
0.0
 11
4.902692
 21
11.826804
 31
0.0
  0
POINT
  8
OBJECT
 10
4.839692
 20
11.871586
 30
0.0
  0
POINT
  8
OBJECT
 10
4.839692
 20
11.871586
 30
0.0
  0
POINT
  8
OBJECT
 10
4.839692
 20
11.871586
 30
0.0
  0
POINT
  8
OBJECT
 10
4.868692
 20
11.828586
 30
0.0
  0
POLYLINE
  8
OBJECT
 66
     1
 10
0.0
 20
0.0
 30
0.0
  0
VERTEX
  8
OBJECT
 10
4.839692
 20
11.830888
 30
0.0
  0
VERTEX
  8
OBJECT
 10
4.868692
 20
11.829368
 30
0.0
  0
SEQEND
  8
OBJECT
  0
POINT
  8
HIDDEN
 10
4.902692
 20
11.78176
 30
0.0
  0
POINT
  8
OBJECT
 10
4.902692
 20
11.827586
 30
0.0
  0
POINT
  8
OBJECT
 10
4.902692
 20
11.827586
 30
0.0
  0
LINE
  8
OBJECT
 10
4.512692
 20
11.657044
 30
0.0
 11
4.882692
 21
11.650586
 31
0.0
  0
LINE
  8
OBJECT
 10
4.512692
 20
11.595128
 30
0.0
 11
4.882692
 21
11.601586
 31
0.0
  0
ARC
  8
OBJECT
 10
4.574692
 20
11.702485
 30
0.0
 40
0.062
 50
93.0
 51
180.0
  0
POINT
  8
HIDDEN
 10
4.905692
 20
11.776519
 30
0.0
  0
LINE
  8
OBJECT
 10
4.902692
 20
11.78176
 30
0.0
 11
4.571447
 21
11.7644
 31
0.0
  0
POLYLINE
  8
OBJECT
 66
     1
 10
0.0
 20
0.0
 30
0.0
  0
VERTEX
  8
OBJECT
 10
5.219692
 20
10.110586
 30
0.0
  0
VERTEX
  8
OBJECT
 10
5.209692
 20
10.110586
 30
0.0
  0
VERTEX
  8
OBJECT
 10
5.209692
 20
11.390586
 30
0.0
  0
VERTEX
  8
OBJECT
 10
5.219692
 20
11.390586
 30
0.0
  0
SEQEND
  8
OBJECT
  0
LINE
  8
HIDDEN
 10
5.126692
 20
9.500061
 30
0.0
 11
5.126692
 21
9.932463
 31
0.0
  0
POLYLINE
  8
OBJECT
 66
     1
 10
0.0
 20
0.0
 30
0.0
 70
     1
  0
VERTEX
  8
OBJECT
 10
8.333198
 20
10.110586
 30
0.0
  0
VERTEX
  8
OBJECT
 10
8.333198
 20
11.390586
 30
0.0
  0
VERTEX
  8
OBJECT
 10
7.303198
 20
11.390586
 30
0.0
  0
VERTEX
  8
OBJECT
 10
7.303198
 20
10.110586
 30
0.0
  0
SEQEND
  8
OBJECT
  0
LINE
  8
HIDDEN
 10
5.066692
 20
9.590491
 30
0.0
 11
5.066692
 21
9.782681
 31
0.0
  0
LINE
  8
HIDDEN
 10
5.111709
 20
9.627206
 30
0.0
 11
5.111709
 21
9.745966
 31
0.0
  0
LINE
  8
HIDDEN
 10
5.175692
 20
9.571586
 30
0.0
 11
5.175692
 21
9.801586
 31
0.0
  0
LINE
  8
HIDDEN
 10
5.111709
 20
9.627206
 30
0.0
 11
5.175692
 21
9.571586
 31
0.0
  0
LINE
  8
HIDDEN
 10
5.066692
 20
9.590491
 30
0.0
 11
5.126692
 21
9.546586
 31
0.0
  0
POINT
  8
HIDDEN
 10
5.126692
 20
9.500061
 30
0.0
  0
ARC
  8
HIDDEN
 10
5.103692
 20
9.500061
 30
0.0
 40
0.023
 50
273.0
 51
0.0
  0
POINT
  8
HIDDEN
 10
5.175692
 20
9.571586
 30
0.0
  0
LINE
  8
HIDDEN
 10
5.219692
 20
9.571586
 30
0.0
 11
5.175692
 21
9.571586
 31
0.0
  0
LINE
  8
HIDDEN
 10
5.111709
 20
9.745966
 30
0.0
 11
5.175692
 21
9.801586
 31
0.0
  0
LINE
  8
HIDDEN
 10
5.066692
 20
9.782681
 30
0.0
 11
5.126692
 21
9.826586
 31
0.0
  0
LINE
  8
HIDDEN
 10
5.219692
 20
9.801586
 30
0.0
 11
5.175692
 21
9.801586
 31
0.0
  0
CIRCLE
  8
OBJECT
 10
7.318198
 20
9.686586
 30
0.0
 40
0.0565
  0
CIRCLE
  8
OBJECT
 10
7.318198
 20
9.686586
 30
0.0
 40
0.115
  0
LINE
  8
OBJECT
 10
5.111709
 20
11.615966
 30
0.0
 11
5.111709
 21
11.497206
 31
0.0
  0
LINE
  8
OBJECT
 10
5.175692
 20
11.671586
 30
0.0
 11
5.175692
 21
11.441586
 31
0.0
  0
LINE
  8
OBJECT
 10
5.111709
 20
11.497206
 30
0.0
 11
5.175692
 21
11.441586
 31
0.0
  0
LINE
  8
OBJECT
 10
5.066692
 20
11.460491
 30
0.0
 11
5.126692
 21
11.416586
 31
0.0
  0
LINE
  8
OBJECT
 10
5.219692
 20
11.441586
 30
0.0
 11
5.175692
 21
11.441586
 31
0.0
  0
LINE
  8
OBJECT
 10
5.111709
 20
11.615966
 30
0.0
 11
5.175692
 21
11.671586
 31
0.0
  0
LINE
  8
OBJECT
 10
5.066692
 20
11.652681
 30
0.0
 11
5.126692
 21
11.696586
 31
0.0
  0
POINT
  8
HIDDEN
 10
5.126692
 20
11.743111
 30
0.0
  0
ARC
  8
OBJECT
 10
5.103692
 20
11.743111
 30
0.0
 40
0.023
 50
0.0
 51
87.0
  0
LINE
  8
OBJECT
 10
5.219692
 20
11.671586
 30
0.0
 11
5.175692
 21
11.671586
 31
0.0
  0
CIRCLE
  8
OBJECT
 10
8.318198
 20
11.556586
 30
0.0
 40
0.0565
  0
ARC
  8
OBJECT
 10
3.354354
 20
13.433799
 30
0.0
 40
0.116
 50
3.0
 51
90.0
  0
LINE
  8
HIDDEN
 10
3.282829
 20
13.549799
 30
0.0
 11
3.282829
 21
13.505799
 31
0.0
  0
LINE
  8
HIDDEN
 10
3.052829
 20
13.549799
 30
0.0
 11
3.052829
 21
13.505799
 31
0.0
  0
LINE
  8
HIDDEN
 10
2.282829
 20
13.549799
 30
0.0
 11
2.282829
 21
13.505799
 31
0.0
  0
LINE
  8
HIDDEN
 10
3.071735
 20
13.396799
 30
0.0
 11
3.027829
 21
13.456799
 31
0.0
  0
LINE
  8
OBJECT
 10
3.482829
 20
13.169799
 30
0.0
 11
3.468516
 21
12.896687
 31
0.0
  0
LINE
  8
HIDDEN
 10
3.067371
 20
12.842799
 30
0.0
 11
3.073829
 21
13.212799
 31
0.0
  0
LINE
  8
HIDDEN
 10
3.129288
 20
12.842799
 30
0.0
 11
3.122829
 21
13.212799
 31
0.0
  0
LINE
  8
HIDDEN
 10
3.206371
 20
12.842799
 30
0.0
 11
3.212829
 21
13.212799
 31
0.0
  0
LINE
  8
HIDDEN
 10
3.393003
 20
13.232799
 30
0.0
 11
3.375644
 21
12.901554
 31
0.0
  0
LINE
  8
HIDDEN
 10
3.268288
 20
12.842799
 30
0.0
 11
3.261829
 21
13.212799
 31
0.0
  0
POINT
  8
HIDDEN
 10
3.273729
 20
12.842799
 30
0.0
  0
ARC
  8
HIDDEN
 10
3.313729
 20
12.904799
 30
0.0
 40
0.062
 50
270.0
 51
357.0
  0
LINE
  8
OBJECT
 10
3.440611
 20
13.198799
 30
0.0
 11
3.442131
 21
13.169799
 31
0.0
  0
LINE
  8
HIDDEN
 10
3.439829
 20
13.198799
 30
0.0
 11
3.438048
 21
13.232799
 31
0.0
  0
LINE
  8
OBJECT
 10
3.482829
 20
13.198799
 30
0.0
 11
3.470195
 21
13.43987
 31
0.0
  0
LINE
  8
HIDDEN
 10
3.22721
 20
13.441816
 30
0.0
 11
3.282829
 21
13.505799
 31
0.0
  0
LINE
  8
HIDDEN
 10
3.224329
 20
13.276799
 30
0.0
 11
3.22721
 21
13.441816
 31
0.0
  0
ARC
  8
HIDDEN
 10
3.354354
 20
13.433799
 30
0.0
 40
0.023
 50
3.0
 51
90.0
  0
LINE
  8
HIDDEN
 10
3.263924
 20
13.396799
 30
0.0
 11
3.307829
 21
13.456799
 31
0.0
  0
LINE
  8
HIDDEN
 10
3.261829
 20
13.276799
 30
0.0
 11
3.263924
 21
13.396799
 31
0.0
  0
LINE
  8
HIDDEN
 10
3.38792
 20
13.232799
 30
0.0
 11
3.377323
 21
13.435003
 31
0.0
  0
LINE
  8
HIDDEN
 10
3.108449
 20
13.441816
 30
0.0
 11
3.052829
 21
13.505799
 31
0.0
  0
LINE
  8
HIDDEN
 10
3.073829
 20
13.276799
 30
0.0
 11
3.071735
 21
13.396799
 31
0.0
  0
LINE
  8
HIDDEN
 10
3.111329
 20
13.276799
 30
0.0
 11
3.108449
 21
13.441816
 31
0.0
  0
LINE
  8
HIDDEN
 10
3.282829
 20
13.505799
 30
0.0
 11
3.052829
 21
13.505799
 31
0.0
  0
LINE
  8
HIDDEN
 10
3.263924
 20
13.396799
 30
0.0
 11
3.071735
 21
13.396799
 31
0.0
  0
LINE
  8
HIDDEN
 10
3.261829
 20
13.212799
 30
0.0
 11
3.073829
 21
13.212799
 31
0.0
  0
LINE
  8
HIDDEN
 10
3.261829
 20
13.276799
 30
0.0
 11
3.073829
 21
13.276799
 31
0.0
  0
LINE
  8
HIDDEN
 10
3.22721
 20
13.441816
 30
0.0
 11
3.108449
 21
13.441816
 31
0.0
  0
ARC
  8
OBJECT
 10
3.313729
 20
12.904799
 30
0.0
 40
0.155
 50
270.0
 51
357.0
  0
TEXT
  8
TEXT
 10
6.888629
 20
15.129358
 30
0.0
 40
0.156
  1
HH-3465  &  HH-3468
 41
0.75
  7
TXT
 72
     1
 11
7.980629
 21
15.129358
 31
0.0
  0
LINE
  8
TITLE
 10
0.062
 20
7.688
 30
0.0
 11
10.058
 21
7.688
 31
0.0
  0
LINE
  8
TITLE
 10
0.812
 20
7.688
 30
0.0
 11
0.812
 21
7.27
 31
0.0
  0
LINE
  8
TITLE
 10
5.06
 20
7.688
 30
0.0
 11
5.06
 21
7.27
 31
0.0
  0
LINE
  8
TITLE
 10
5.122
 20
7.688
 30
0.0
 11
5.122
 21
7.27
 31
0.0
  0
LINE
  8
TITLE
 10
5.872
 20
7.688
 30
0.0
 11
5.872
 21
7.27
 31
0.0
  0
LINE
  8
TITLE
 10
0.062
 20
7.27
 30
0.0
 11
10.058
 21
7.27
 31
0.0
  0
TEXT
  8
TEXT
 10
1.831861
 20
7.379358
 30
0.0
 40
0.156
  1
GRABBER  (STYLE D)
 41
0.75
  7
TXT
 72
     1
 11
2.826361
 21
7.379358
 31
0.0
  0
TEXT
  8
TEXT
 10
6.888629
 20
7.379358
 30
0.0
 40
0.156
  1
HH-3466  &  HH-3469
 41
0.75
  7
TXT
 72
     1
 11
7.980629
 21
7.379358
 31
0.0
  0
TEXT
  8
TEXT
 10
0.190154
 20
7.52541
 30
0.0
 40
0.125
  1
PART
  7
TXT
 72
     1
 11
0.419321
 21
7.52541
 31
0.0
  0
TEXT
  8
TEXT
 10
0.190154
 20
7.317076
 30
0.0
 40
0.125
  1
NAME
  7
TXT
 72
     1
 11
0.419321
 21
7.317076
 31
0.0
  0
TEXT
  8
TEXT
 10
5.354321
 20
7.317076
 30
0.0
 40
0.125
  1
No.
  7
TXT
 72
     1
 11
5.479321
 21
7.317076
 31
0.0
  0
TEXT
  8
TEXT
 10
5.250154
 20
7.52541
 30
0.0
 40
0.125
  1
PART
  7
TXT
 72
     1
 11
5.479321
 21
7.52541
 31
0.0
  0
TEXT
  8
TEXT
 10
0.243987
 20
5.996772
 30
0.0
 40
0.125
  1
FINISH: BLACK TEXTURED
 41
0.75
  7
TXT
  0
TEXT
  8
TEXT
 10
0.486089
 20
6.476858
 30
0.0
 40
0.125
  1
SUGGESTED SERVICE TEMPERATURE -20%%D C
 41
0.75
  7
TXT
  0
TEXT
  8
TEXT
 10
0.486089
 20
6.685192
 30
0.0
 40
0.125
  1
FLAMMABILITY RATING (UL FILE #E121562),
 41
0.75
  7
TXT
  0
TEXT
  8
TEXT
 10
0.243987
 20
6.893525
 30
0.0
 40
0.125
  1
MATERIAL: ABS THERMOPLASTIC, UL94V-0
 41
0.75
  7
TXT
  0
TEXT
  8
TEXT
 10
6.424577
 20
6.875696
 30
0.0
 40
0.125
  1
TWO (2) #4 x 0.500" LG. SCREWS (BLACK)
 41
0.75
  7
TXT
  0
TEXT
  8
TEXT
 10
6.424577
 20
6.667363
 30
0.0
 40
0.125
  1
SUPPLIED FOR ASSEMBLING COVER TO BODY
 41
0.75
  7
TXT
  0
TEXT
  8
TEXT
 10
6.390431
 20
5.868617
 30
0.0
 40
0.125
  1
TOLERANCE UNLESS OTHERWISE
 41
0.75
  7
TXT
  0
TEXT
  8
TEXT
 10
6.390431
 20
6.07695
 30
0.0
 40
0.125
  1
NOTE: ALL DIMENSIONS HAVE %%P0.010
 41
0.75
  7
TXT
  0
TEXT
  8
TEXT
 10
6.390431
 20
5.666242
 30
0.0
 40
0.125
  1
SPECIFIED
 41
0.75
  7
TXT
  0
DIMENSION
  8
DIM
  2
*D24
 10
3.307829
 20
1.355082
 30
0.0
 11
2.667829
 21
1.355082
 31
0.0
 12
0.0
 22
0.053759
 32
0.0
  1
C
 13
2.027829
 23
2.102081
 33
0.0
 14
3.307829
 24
2.102081
 34
0.0
  3
23NSTD
  0
DIMENSION
  8
DIM
  2
*D23
 10
3.805801
 20
2.102081
 30
0.0
 11
3.805801
 21
2.867081
 31
0.0
 12
0.0
 22
0.053759
 32
0.0
  1
G
 13
3.307829
 23
3.632081
 33
0.0
 14
3.307829
 24
2.102081
 34
0.0
 50
90.0
  3
23NSTD
  0
DIMENSION
  8
DIM
  2
*D20
 10
7.303198
 20
1.355082
 30
0.0
 11
7.818198
 21
1.355082
 31
0.0
 12
0.0
 22
0.053759
 32
0.0
 13
8.333198
 23
2.356081
 33
0.0
 14
7.303198
 24
2.356081
 34
0.0
  3
23NSTDI
  0
DIMENSION
  8
DIM
  2
*D18
 10
8.961838
 20
2.356081
 30
0.0
 11
8.961838
 21
2.996081
 31
0.0
 12
0.0
 22
0.053759
 32
0.0
 13
8.333198
 23
3.636081
 33
0.0
 14
8.333198
 24
2.356081
 34
0.0
 50
90.0
  3
23NSTD
  0
DIMENSION
  8
DIM
  2
*D21
 10
5.219692
 20
1.355082
 30
0.0
 11
5.833754
 21
1.355082
 31
0.0
 12
0.0
 22
0.053759
 32
0.0
 13
4.868692
 23
1.617081
 33
0.0
 14
5.219692
 24
1.745556
 34
0.0
  3
23NSTD
  0
DIMENSION
  8
DIM
  2
*D22
 10
5.126692
 20
3.059981
 30
0.0
 11
5.740754
 21
3.059981
 31
0.0
 12
0.0
 22
-0.073989
 32
0.0
 13
4.512692
 23
3.051963
 33
0.0
 14
5.126692
 24
3.051963
 34
0.0
  3
23NSTD
  0
DIMENSION
  8
DIM
  2
*D26
 10
1.945829
 20
4.364959
 30
0.0
 11
2.667829
 21
4.364959
 31
0.0
 12
0.0
 22
0.053759
 32
0.0
  1
B
 13
3.389829
 23
3.889081
 33
0.0
 14
1.945829
 24
3.889081
 34
0.0
  3
23NSTD
  0
DIMENSION
  8
DIM
  2
*D25
 10
1.520039
 20
4.024081
 30
0.0
 11
1.520039
 21
2.867081
 31
0.0
 12
0.0
 22
0.053759
 32
0.0
  1
F
 13
2.080829
 23
1.710081
 33
0.0
 14
2.080829
 24
4.024081
 34
0.0
 50
90.0
  3
23NSTD
  0
DIMENSION
  8
DIM
  2
*D17
 10
8.961838
 20
4.117081
 30
0.0
 11
8.961838
 21
3.876581
 31
0.0
 12
0.0
 22
0.053759
 32
0.0
  1
J
 13
8.333198
 23
3.636081
 33
0.0
 14
8.405198
 24
4.117081
 34
0.0
 50
90.0
  3
23NSTDI
  0
DIMENSION
  8
DIM
  2
*D7
 10
3.389829
 20
12.137965
 30
0.0
 11
2.667829
 21
12.137965
 31
0.0
 12
0.0
 22
0.129526
 32
0.0
  1
B
 13
1.945829
 23
11.643586
 33
0.0
 14
3.389829
 24
11.643586
 34
0.0
  3
23NSTD
  0
DIMENSION
  8
DIM
  2
*D10
 10
5.219692
 20
9.109587
 30
0.0
 11
5.833754
 21
9.109587
 31
0.0
 12
0.0
 22
0.129526
 32
0.0
 13
4.868692
 23
9.371586
 33
0.0
 14
5.219692
 24
9.500061
 34
0.0
  3
23NSTD
  0
DIMENSION
  8
DIM
  2
*D9
 10
5.126692
 20
10.780717
 30
0.0
 11
5.740754
 21
10.780717
 31
0.0
 12
0.0
 22
-0.031991
 32
0.0
 13
4.512692
 23
10.772698
 33
0.0
 14
5.126692
 24
10.772698
 34
0.0
  3
23NSTD
  0
DIMENSION
  8
DIM
  2
*D11
 10
7.303198
 20
9.109587
 30
0.0
 11
7.818198
 21
9.109587
 31
0.0
 12
0.0
 22
0.129526
 32
0.0
 13
8.333198
 23
10.110586
 33
0.0
 14
7.303198
 24
10.110586
 34
0.0
  3
23NSTDI
  0
DIMENSION
  8
DIM
  2
*D15
 10
8.961838
 20
10.110586
 30
0.0
 11
8.961838
 21
10.750586
 31
0.0
 12
0.0
 22
0.129526
 32
0.0
 13
8.333198
 23
11.390586
 33
0.0
 14
8.333198
 24
10.110586
 34
0.0
 50
90.0
  3
23NSTD
  0
DIMENSION
  8
DIM
  2
*D14
 10
8.961838
 20
11.871586
 30
0.0
 11
8.961838
 21
11.631086
 31
0.0
 12
0.0
 22
0.129526
 32
0.0
  1
G
 13
8.333198
 23
11.390586
 33
0.0
 14
8.405198
 24
11.871586
 34
0.0
 50
90.0
  3
23NSTDI
  0
DIMENSION
  8
DIM
  2
*D8
 10
1.520039
 20
11.778586
 30
0.0
 11
1.520039
 21
10.621586
 31
0.0
 12
0.0
 22
0.129526
 32
0.0
  1
E
 13
2.080829
 23
9.464586
 33
0.0
 14
2.080829
 24
11.778586
 34
0.0
 50
90.0
  3
23NSTD
  0
DIMENSION
  8
DIM
  2
*D6
 10
1.15429
 20
11.871586
 30
0.0
 11
1.15429
 21
10.621586
 31
0.0
 12
0.0
 22
0.129526
 32
0.0
  1
D
 13
2.080829
 23
9.371586
 33
0.0
 14
2.080829
 24
11.871586
 34
0.0
 50
90.0
  3
23NSTD
  0
DIMENSION
  8
DIM
  2
*D19
 10
6.643491
 20
3.802081
 30
0.0
 11
6.643491
 21
2.867081
 31
0.0
 12
0.0
 22
0.053759
 32
0.0
  1
H
 13
7.318198
 23
1.932081
 33
0.0
 14
8.318198
 24
3.802081
 34
0.0
 50
90.0
  3
23NSTD
  0
DIMENSION
  8
DIM
  2
*D16
 10
8.318198
 20
4.364959
 30
0.0
 11
7.818198
 21
4.364959
 31
0.0
 12
0.0
 22
0.053759
 32
0.0
  1
D
 13
7.318198
 23
1.932081
 33
0.0
 14
8.318198
 24
3.802081
 34
0.0
  3
23NSTD
  0
DIMENSION
  8
DIM
  2
*D13
 10
8.318198
 20
12.119464
 30
0.0
 11
7.818198
 21
12.119464
 31
0.0
 12
0.0
 22
0.129526
 32
0.0
  1
C
 13
7.318198
 23
9.686586
 33
0.0
 14
8.318198
 24
11.556586
 34
0.0
  3
23NSTD
  0
DIMENSION
  8
DIM
  2
*D12
 10
6.643491
 20
11.556586
 30
0.0
 11
6.643491
 21
10.621586
 31
0.0
 12
0.0
 22
0.129526
 32
0.0
  1
F
 13
7.318198
 23
9.686586
 33
0.0
 14
8.318198
 24
11.556586
 34
0.0
 50
90.0
  3
23NSTD
  0
LINE
  8
TITLE
 10
1.0616
 20
0.686
 30
0.0
 11
1.0616
 21
0.062
 31
0.0
  0
LINE
  8
TITLE
 10
2.0612
 20
0.686
 30
0.0
 11
2.0612
 21
0.062
 31
0.0
  0
LINE
  8
TITLE
 10
3.0608
 20
0.686
 30
0.0
 11
3.0608
 21
0.062
 31
0.0
  0
LINE
  8
TITLE
 10
4.0604
 20
0.686
 30
0.0
 11
4.0604
 21
0.062
 31
0.0
  0
LINE
  8
TITLE
 10
5.06
 20
0.686
 30
0.0
 11
5.06
 21
0.062
 31
0.0
  0
LINE
  8
TITLE
 10
6.0596
 20
0.686
 30
0.0
 11
6.0596
 21
0.062
 31
0.0
  0
LINE
  8
TITLE
 10
7.0592
 20
0.686
 30
0.0
 11
7.0592
 21
0.062
 31
0.0
  0
LINE
  8
TITLE
 10
8.0588
 20
0.686
 30
0.0
 11
8.0588
 21
0.062
 31
0.0
  0
LINE
  8
TITLE
 10
9.0584
 20
0.686
 30
0.0
 11
9.0584
 21
0.062
 31
0.0
  0
TEXT
  8
TEXT
 10
1.391276
 20
0.105106
 30
0.0
 40
0.125
  1
2.000
 41
0.75
  7
TXT
 72
     1
 11
1.555339
 21
0.105106
 31
0.0
  0
TEXT
  8
TEXT
 10
1.391276
 20
0.313439
 30
0.0
 40
0.125
  1
1.630
 41
0.75
  7
TXT
 72
     1
 11
1.555339
 21
0.313439
 31
0.0
  0
TEXT
  8
TEXT
 10
1.524089
 20
0.521772
 30
0.0
 40
0.125
  1
A
 41
0.75
  7
TXT
 72
     1
 11
1.555339
 21
0.521772
 31
0.0
  0
TEXT
  8
TEXT
 10
2.398689
 20
0.105106
 30
0.0
 40
0.125
  1
1.814
 41
0.75
  7
TXT
 72
     1
 11
2.554939
 21
0.105106
 31
0.0
  0
TEXT
  8
TEXT
 10
2.383064
 20
0.313439
 30
0.0
 40
0.125
  1
1.444
 41
0.75
  7
TXT
 72
     1
 11
2.554939
 21
0.313439
 31
0.0
  0
TEXT
  8
TEXT
 10
2.523689
 20
0.521772
 30
0.0
 40
0.125
  1
B
 41
0.75
  7
TXT
 72
     1
 11
2.554939
 21
0.521772
 31
0.0
  0
TEXT
  8
TEXT
 10
3.390476
 20
0.105106
 30
0.0
 40
0.125
  1
1.530
 41
0.75
  7
TXT
 72
     1
 11
3.554539
 21
0.105106
 31
0.0
  0
TEXT
  8
TEXT
 10
3.390476
 20
0.313439
 30
0.0
 40
0.125
  1
1.280
 41
0.75
  7
TXT
 72
     1
 11
3.554539
 21
0.313439
 31
0.0
  0
TEXT
  8
TEXT
 10
3.523289
 20
0.521772
 30
0.0
 40
0.125
  1
C
 41
0.75
  7
TXT
 72
     1
 11
3.554539
 21
0.521772
 31
0.0
  0
TEXT
  8
TEXT
 10
4.382264
 20
0.105106
 30
0.0
 40
0.125
  1
1.375
 41
0.75
  7
TXT
 72
     1
 11
4.554139
 21
0.105106
 31
0.0
  0
TEXT
  8
TEXT
 10
4.405701
 20
0.313439
 30
0.0
 40
0.125
  1
1.000
 41
0.75
  7
TXT
 72
     1
 11
4.554139
 21
0.313439
 31
0.0
  0
TEXT
  8
TEXT
 10
4.522889
 20
0.521772
 30
0.0
 40
0.125
  1
D
 41
0.75
  7
TXT
 72
     1
 11
4.554139
 21
0.521772
 31
0.0
  0
TEXT
  8
TEXT
 10
5.374051
 20
0.105106
 30
0.0
 40
0.125
  1
2.750
 41
0.75
  7
TXT
 72
     1
 11
5.553739
 21
0.105106
 31
0.0
  0
TEXT
  8
TEXT
 10
5.381864
 20
0.313439
 30
0.0
 40
0.125
  1
2.500
 41
0.75
  7
TXT
 72
     1
 11
5.553739
 21
0.313439
 31
0.0
  0
TEXT
  8
TEXT
 10
5.522489
 20
0.521772
 30
0.0
 40
0.125
  1
E
 41
0.75
  7
TXT
 72
     1
 11
5.553739
 21
0.521772
 31
0.0
  0
TEXT
  8
TEXT
 10
6.365839
 20
0.105106
 30
0.0
 40
0.125
  1
2.564
 41
0.75
  7
TXT
 72
     1
 11
6.553339
 21
0.105106
 31
0.0
  0
TEXT
  8
TEXT
 10
6.381464
 20
0.313439
 30
0.0
 40
0.125
  1
2.314
 41
0.75
  7
TXT
 72
     1
 11
6.553339
 21
0.313439
 31
0.0
  0
TEXT
  8
TEXT
 10
6.522089
 20
0.521772
 30
0.0
 40
0.125
  1
F
 41
0.75
  7
TXT
 72
     1
 11
6.553339
 21
0.521772
 31
0.0
  0
TEXT
  8
TEXT
 10
7.388876
 20
0.105106
 30
0.0
 40
0.125
  1
1.780
 41
0.75
  7
TXT
 72
     1
 11
7.552939
 21
0.105106
 31
0.0
  0
TEXT
  8
TEXT
 10
7.388876
 20
0.313439
 30
0.0
 40
0.125
  1
1.530
 41
0.75
  7
TXT
 72
     1
 11
7.552939
 21
0.313439
 31
0.0
  0
TEXT
  8
TEXT
 10
7.521689
 20
0.521772
 30
0.0
 40
0.125
  1
G
 41
0.75
  7
TXT
 72
     1
 11
7.552939
 21
0.521772
 31
0.0
  0
TEXT
  8
TEXT
 10
8.380664
 20
0.105106
 30
0.0
 40
0.125
  1
2.125
 41
0.75
  7
TXT
 72
     1
 11
8.552539
 21
0.105106
 31
0.0
  0
TEXT
  8
TEXT
 10
8.388476
 20
0.313439
 30
0.0
 40
0.125
  1
1.870
 41
0.75
  7
TXT
 72
     1
 11
8.552539
 21
0.313439
 31
0.0
  0
TEXT
  8
TEXT
 10
8.521289
 20
0.521772
 30
0.0
 40
0.125
  1
H
 41
0.75
  7
TXT
 72
     1
 11
8.552539
 21
0.521772
 31
0.0
  0
TEXT
  8
TEXT
 10
9.388076
 20
0.105106
 30
0.0
 40
0.125
  1
0.591
 41
0.75
  7
TXT
 72
     1
 11
9.552139
 21
0.105106
 31
0.0
  0
TEXT
  8
TEXT
 10
9.388076
 20
0.313439
 30
0.0
 40
0.125
  1
0.481
 41
0.75
  7
TXT
 72
     1
 11
9.552139
 21
0.313439
 31
0.0
  0
TEXT
  8
TEXT
 10
9.520889
 20
0.521772
 30
0.0
 40
0.125
  1
J
 41
0.75
  7
TXT
 72
     1
 11
9.552139
 21
0.521772
 31
0.0
  0
LINE
  8
TITLE
 10
0.062
 20
7.958
 30
0.0
 11
10.058
 21
7.958
 31
0.0
  0
LINE
  8
TITLE
 10
0.062
 20
8.166
 30
0.0
 11
10.058
 21
8.166
 31
0.0
  0
LINE
  8
TITLE
 10
0.062
 20
8.374
 30
0.0
 11
10.058
 21
8.374
 31
0.0
  0
TEXT
  8
TEXT
 10
0.327388
 20
8.209772
 30
0.0
 40
0.125
  1
PART NO.
 41
0.75
  7
TXT
 72
     1
 11
0.655513
 21
8.209772
 31
0.0
  0
TEXT
  8
TEXT
 10
0.343013
 20
7.793106
 30
0.0
 40
0.125
  1
HH-3468
 41
0.75
  7
TXT
 72
     1
 11
0.655513
 21
7.793106
 31
0.0
  0
TEXT
  8
TEXT
 10
0.343013
 20
8.001439
 30
0.0
 40
0.125
  1
HH-3465
 41
0.75
  7
TXT
 72
     1
 11
0.655513
 21
8.001439
 31
0.0
  0
LINE
  8
TITLE
 10
1.3115
 20
7.75
 30
0.0
 11
1.3115
 21
8.374
 31
0.0
  0
LINE
  8
TITLE
 10
2.561
 20
7.75
 30
0.0
 11
2.561
 21
8.374
 31
0.0
  0
LINE
  8
TITLE
 10
3.8105
 20
7.75
 30
0.0
 11
3.8105
 21
8.374
 31
0.0
  0
LINE
  8
TITLE
 10
5.06
 20
7.75
 30
0.0
 11
5.06
 21
8.374
 31
0.0
  0
LINE
  8
TITLE
 10
6.3095
 20
7.75
 30
0.0
 11
6.3095
 21
8.374
 31
0.0
  0
LINE
  8
TITLE
 10
7.559
 20
7.75
 30
0.0
 11
7.559
 21
8.374
 31
0.0
  0
LINE
  8
TITLE
 10
8.8085
 20
7.75
 30
0.0
 11
8.8085
 21
8.374
 31
0.0
  0
TEXT
  8
TEXT
 10
1.74095
 20
7.793106
 30
0.0
 40
0.125
  1
2.000
 41
0.75
  7
TXT
 72
     1
 11
1.905013
 21
7.793106
 31
0.0
  0
TEXT
  8
TEXT
 10
1.74095
 20
8.001439
 30
0.0
 40
0.125
  1
1.630
 41
0.75
  7
TXT
 72
     1
 11
1.905013
 21
8.001439
 31
0.0
  0
TEXT
  8
TEXT
 10
1.873763
 20
8.209772
 30
0.0
 40
0.125
  1
A
 41
0.75
  7
TXT
 72
     1
 11
1.905013
 21
8.209772
 31
0.0
  0
TEXT
  8
TEXT
 10
2.998263
 20
7.793106
 30
0.0
 40
0.125
  1
1.814
 41
0.75
  7
TXT
 72
     1
 11
3.154513
 21
7.793106
 31
0.0
  0
TEXT
  8
TEXT
 10
2.982638
 20
8.001439
 30
0.0
 40
0.125
  1
1.444
 41
0.75
  7
TXT
 72
     1
 11
3.154513
 21
8.001439
 31
0.0
  0
TEXT
  8
TEXT
 10
3.123263
 20
8.209772
 30
0.0
 40
0.125
  1
B
 41
0.75
  7
TXT
 72
     1
 11
3.154513
 21
8.209772
 31
0.0
  0
TEXT
  8
TEXT
 10
4.232138
 20
7.793106
 30
0.0
 40
0.125
  1
1.375
 41
0.75
  7
TXT
 72
     1
 11
4.404013
 21
7.793106
 31
0.0
  0
TEXT
  8
TEXT
 10
4.255575
 20
8.001439
 30
0.0
 40
0.125
  1
1.000
 41
0.75
  7
TXT
 72
     1
 11
4.404013
 21
8.001439
 31
0.0
  0
TEXT
  8
TEXT
 10
4.372763
 20
8.209772
 30
0.0
 40
0.125
  1
C
 41
0.75
  7
TXT
 72
     1
 11
4.404013
 21
8.209772
 31
0.0
  0
TEXT
  8
TEXT
 10
5.473825
 20
7.793106
 30
0.0
 40
0.125
  1
2.750
 41
0.75
  7
TXT
 72
     1
 11
5.653513
 21
7.793106
 31
0.0
  0
TEXT
  8
TEXT
 10
5.481638
 20
8.001439
 30
0.0
 40
0.125
  1
2.500
 41
0.75
  7
TXT
 72
     1
 11
5.653513
 21
8.001439
 31
0.0
  0
TEXT
  8
TEXT
 10
5.622263
 20
8.209772
 30
0.0
 40
0.125
  1
D
 41
0.75
  7
TXT
 72
     1
 11
5.653513
 21
8.209772
 31
0.0
  0
TEXT
  8
TEXT
 10
6.715513
 20
7.793106
 30
0.0
 40
0.125
  1
2.564
 41
0.75
  7
TXT
 72
     1
 11
6.903013
 21
7.793106
 31
0.0
  0
TEXT
  8
TEXT
 10
6.731138
 20
8.001439
 30
0.0
 40
0.125
  1
2.314
 41
0.75
  7
TXT
 72
     1
 11
6.903013
 21
8.001439
 31
0.0
  0
TEXT
  8
TEXT
 10
6.871763
 20
8.209772
 30
0.0
 40
0.125
  1
E
 41
0.75
  7
TXT
 72
     1
 11
6.903013
 21
8.209772
 31
0.0
  0
TEXT
  8
TEXT
 10
7.980638
 20
7.793106
 30
0.0
 40
0.125
  1
2.125
 41
0.75
  7
TXT
 72
     1
 11
8.152513
 21
7.793106
 31
0.0
  0
TEXT
  8
TEXT
 10
7.98845
 20
8.001439
 30
0.0
 40
0.125
  1
1.870
 41
0.75
  7
TXT
 72
     1
 11
8.152513
 21
8.001439
 31
0.0
  0
TEXT
  8
TEXT
 10
8.121263
 20
8.209772
 30
0.0
 40
0.125
  1
F
 41
0.75
  7
TXT
 72
     1
 11
8.152513
 21
8.209772
 31
0.0
  0
TEXT
  8
TEXT
 10
9.23795
 20
7.793106
 30
0.0
 40
0.125
  1
0.591
 41
0.75
  7
TXT
 72
     1
 11
9.402013
 21
7.793106
 31
0.0
  0
TEXT
  8
TEXT
 10
9.23795
 20
8.001439
 30
0.0
 40
0.125
  1
0.481
 41
0.75
  7
TXT
 72
     1
 11
9.402013
 21
8.001439
 31
0.0
  0
TEXT
  8
TEXT
 10
9.370763
 20
8.209772
 30
0.0
 40
0.125
  1
G
 41
0.75
  7
TXT
 72
     1
 11
9.402013
 21
8.209772
 31
0.0
  0
POLYLINE
  8
DIM
 66
     1
 10
0.0
 20
0.0
 30
0.0
 41
0.0675
  0
VERTEX
  8
DIM
 10
7.662627
 20
11.176744
 30
0.0
  0
VERTEX
  8
DIM
 10
7.585603
 20
11.339431
 30
0.0
 41
0.0
  0
VERTEX
  8
DIM
 10
6.947611
 20
12.686981
 30
0.0
 41
0.0
  0
VERTEX
  8
DIM
 10
6.767611
 20
12.686981
 30
0.0
 41
0.0
  0
SEQEND
  8
DIM
  0
TEXT
  8
DIM
 10
4.646361
 20
12.624481
 30
0.0
 40
0.125
  1
TEXTURED RECESSED AREA
 41
0.75
  7
TXT
 72
     2
 11
6.677611
 21
12.686981
 31
0.0
 73
     2
  0
TEXT
  8
DIM
 10
5.911986
 20
12.416148
 30
0.0
 40
0.125
  1
0.010 DEEP
 41
0.75
  7
TXT
 72
     2
 11
6.677611
 21
12.478648
 31
0.0
 73
     2
  0
TEXT
  8
DIM
 10
5.57524
 20
10.507971
 30
0.0
 40
0.125
  1
INSIDE
 41
0.75
  7
TXT
  0
TEXT
  8
DIM
 10
5.57524
 20
2.802324
 30
0.0
 40
0.125
  1
INSIDE
 41
0.75
  7
TXT
  0
TEXT
  8
DIM
 10
4.646361
 20
4.869976
 30
0.0
 40
0.125
  1
TEXTURED RECESSED AREA
 41
0.75
  7
TXT
 72
     2
 11
6.677611
 21
4.932476
 31
0.0
 73
     2
  0
POLYLINE
  8
DIM
 66
     1
 10
0.0
 20
0.0
 30
0.0
 41
0.0675
  0
VERTEX
  8
DIM
 10
7.662627
 20
3.422238
 30
0.0
  0
VERTEX
  8
DIM
 10
7.585603
 20
3.584926
 30
0.0
 41
0.0
  0
VERTEX
  8
DIM
 10
6.947611
 20
4.932476
 30
0.0
 41
0.0
  0
VERTEX
  8
DIM
 10
6.767611
 20
4.932476
 30
0.0
 41
0.0
  0
SEQEND
  8
DIM
  0
TEXT
  8
DIM
 10
5.911986
 20
4.661643
 30
0.0
 40
0.125
  1
0.010 DEEP
 41
0.75
  7
TXT
 72
     2
 11
6.677611
 21
4.724143
 31
0.0
 73
     2
  0
POLYLINE
  8
DIM
 66
     1
 10
0.0
 20
0.0
 30
0.0
 41
0.0675
  0
VERTEX
  8
DIM
 10
2.925632
 20
2.351859
 30
0.0
  0
VERTEX
  8
DIM
 10
3.021527
 20
2.19953
 30
0.0
 41
0.0
  0
VERTEX
  8
DIM
 10
3.711381
 20
1.103703
 30
0.0
 41
0.0
  0
VERTEX
  8
DIM
 10
3.891381
 20
1.103703
 30
0.0
 41
0.0
  0
SEQEND
  8
DIM
  0
TEXT
  8
DIM
 10
3.981381
 20
1.041203
 30
0.0
 40
0.125
  1
SMOOTH RECESSED AREA
 41
0.75
  7
TXT
 11
3.981381
 21
1.103703
 31
0.0
 73
     2
  0
TEXT
  8
DIM
 10
3.981381
 20
0.83287
 30
0.0
 40
0.125
  1
0.030 DEEP
 41
0.75
  7
TXT
 11
3.981381
 21
0.89537
 31
0.0
 73
     2
  0
POLYLINE
  8
OBJECT
 66
     1
 10
0.0
 20
0.0
 30
0.0
 70
     4
 75
     6
  0
VERTEX
  8
OBJECT
 10
4.419692
 20
2.224218
 30
0.0
 70
    16
  0
VERTEX
  8
OBJECT
 10
4.419692
 20
2.224218
 30
0.0
 70
     8
  0
VERTEX
  8
OBJECT
 10
4.458913
 20
2.243184
 30
0.0
 70
     8
  0
VERTEX
  8
OBJECT
 10
4.492829
 20
2.253907
 30
0.0
 70
     8
  0
VERTEX
  8
OBJECT
 10
4.52218
 20
2.257988
 30
0.0
 70
     8
  0
VERTEX
  8
OBJECT
 10
4.547704
 20
2.257024
 30
0.0
 70
     8
  0
VERTEX
  8
OBJECT
 10
4.570142
 20
2.252616
 30
0.0
 70
     8
  0
VERTEX
  8
OBJECT
 10
4.590233
 20
2.246362
 30
0.0
 70
     8
  0
VERTEX
  8
OBJECT
 10
4.608718
 20
2.239862
 30
0.0
 70
     8
  0
VERTEX
  8
OBJECT
 10
4.626334
 20
2.234716
 30
0.0
 70
     8
  0
VERTEX
  8
OBJECT
 10
4.643696
 20
2.232152
 30
0.0
 70
     8
  0
VERTEX
  8
OBJECT
 10
4.660899
 20
2.231921
 30
0.0
 70
     8
  0
VERTEX
  8
OBJECT
 10
4.677916
 20
2.233403
 30
0.0
 70
     8
  0
VERTEX
  8
OBJECT
 10
4.694717
 20
2.235979
 30
0.0
 70
     8
  0
VERTEX
  8
OBJECT
 10
4.711271
 20
2.239029
 30
0.0
 70
     8
  0
VERTEX
  8
OBJECT
 10
4.72755
 20
2.241933
 30
0.0
 70
     8
  0
VERTEX
  8
OBJECT
 10
4.743523
 20
2.244071
 30
0.0
 70
     8
  0
VERTEX
  8
OBJECT
 10
4.759161
 20
2.244825
 30
0.0
 70
     8
  0
VERTEX
  8
OBJECT
 10
4.774447
 20
2.243757
 30
0.0
 70
     8
  0
VERTEX
  8
OBJECT
 10
4.789414
 20
2.241168
 30
0.0
 70
     8
  0
VERTEX
  8
OBJECT
 10
4.804108
 20
2.237539
 30
0.0
 70
     8
  0
VERTEX
  8
OBJECT
 10
4.818574
 20
2.233355
 30
0.0
 70
     8
  0
VERTEX
  8
OBJECT
 10
4.832857
 20
2.229097
 30
0.0
 70
     8
  0
VERTEX
  8
OBJECT
 10
4.847004
 20
2.22525
 30
0.0
 70
     8
  0
VERTEX
  8
OBJECT
 10
4.861059
 20
2.222296
 30
0.0
 70
     8
  0
VERTEX
  8
OBJECT
 10
4.875069
 20
2.220718
 30
0.0
 70
     8
  0
VERTEX
  8
OBJECT
 10
4.88909
 20
2.22084
 30
0.0
 70
     8
  0
VERTEX
  8
OBJECT
 10
4.903228
 20
2.222346
 30
0.0
 70
     8
  0
VERTEX
  8
OBJECT
 10
4.917599
 20
2.224764
 30
0.0
 70
     8
  0
VERTEX
  8
OBJECT
 10
4.932317
 20
2.22762
 30
0.0
 70
     8
  0
VERTEX
  8
OBJECT
 10
4.947501
 20
2.230439
 30
0.0
 70
     8
  0
VERTEX
  8
OBJECT
 10
4.963266
 20
2.232747
 30
0.0
 70
     8
  0
VERTEX
  8
OBJECT
 10
4.979729
 20
2.234072
 30
0.0
 70
     8
  0
VERTEX
  8
OBJECT
 10
4.997005
 20
2.233938
 30
0.0
 70
     8
  0
VERTEX
  8
OBJECT
 10
5.015291
 20
2.232083
 30
0.0
 70
     8
  0
VERTEX
  8
OBJECT
 10
5.035107
 20
2.229084
 30
0.0
 70
     8
  0
VERTEX
  8
OBJECT
 10
5.057052
 20
2.22573
 30
0.0
 70
     8
  0
VERTEX
  8
OBJECT
 10
5.081725
 20
2.222808
 30
0.0
 70
     8
  0
VERTEX
  8
OBJECT
 10
5.109726
 20
2.221108
 30
0.0
 70
     8
  0
VERTEX
  8
OBJECT
 10
5.141654
 20
2.221417
 30
0.0
 70
     8
  0
VERTEX
  8
OBJECT
 10
5.17811
 20
2.224524
 30
0.0
 70
     8
  0
VERTEX
  8
OBJECT
 10
5.219692
 20
2.231216
 30
0.0
 70
     8
  0
VERTEX
  8
OBJECT
 10
4.532014
 20
2.287206
 30
0.0
 70
    16
  0
VERTEX
  8
OBJECT
 10
4.627696
 20
2.203221
 30
0.0
 70
    16
  0
VERTEX
  8
OBJECT
 10
4.763051
 20
2.26621
 30
0.0
 70
    16
  0
VERTEX
  8
OBJECT
 10
4.875069
 20
2.200889
 30
0.0
 70
    16
  0
VERTEX
  8
OBJECT
 10
4.987087
 20
2.254545
 30
0.0
 70
    16
  0
VERTEX
  8
OBJECT
 10
5.101438
 20
2.207887
 30
0.0
 70
    16
  0
VERTEX
  8
OBJECT
 10
5.219692
 20
2.231216
 30
0.0
 70
    16
  0
SEQEND
  8
OBJECT
  0
LINE
  8
OBJECT
 10
4.512692
 20
2.256669
 30
0.0
 11
4.512692
 21
3.701623
 31
0.0
  0
POLYLINE
  8
HIDDEN
 66
     1
 10
0.0
 20
0.0
 30
0.0
  0
VERTEX
  8
HIDDEN
 10
4.419692
 20
2.102081
 30
0.0
  0
VERTEX
  8
HIDDEN
 10
4.450692
 20
2.102081
 30
0.0
  0
VERTEX
  8
HIDDEN
 10
4.450692
 20
2.219552
 30
0.0
  0
SEQEND
  8
HIDDEN
  0
POLYLINE
  8
OBJECT
 66
     1
 10
0.0
 20
0.0
 30
0.0
  0
VERTEX
  8
OBJECT
 10
4.450692
 20
2.239208
 30
0.0
  0
VERTEX
  8
OBJECT
 10
4.450692
 20
3.632081
 30
0.0
  0
VERTEX
  8
OBJECT
 10
4.419692
 20
3.632081
 30
0.0
  0
SEQEND
  8
OBJECT
  0
POLYLINE
  8
OBJECT
 66
     1
 10
0.0
 20
0.0
 30
0.0
  0
VERTEX
  8
OBJECT
 10
4.868692
 20
2.221436
 30
0.0
  0
VERTEX
  8
OBJECT
 10
4.868692
 20
1.617081
 30
0.0
  0
VERTEX
  8
OBJECT
 10
5.109763
 20
1.629715
 30
0.0
 42
0.39896
  0
VERTEX
  8
OBJECT
 10
5.219692
 20
1.745556
 30
0.0
  0
SEQEND
  8
OBJECT
  0
POLYLINE
  8
OBJECT
 66
     1
 10
0.0
 20
0.0
 30
0.0
  0
VERTEX
  8
OBJECT
 10
4.839692
 20
1.617081
 30
0.0
  0
VERTEX
  8
OBJECT
 10
4.839692
 20
2.227239
 30
0.0
  0
SEQEND
  8
OBJECT
  0
LINE
  8
OBJECT
 10
4.902692
 20
2.222289
 30
0.0
 11
4.902692
 21
4.072299
 31
0.0
  0
LINE
  8
OBJECT
 10
5.126692
 20
2.221272
 30
0.0
 11
5.126692
 21
3.662081
 31
0.0
  0
POLYLINE
  8
OBJECT
 66
     1
 10
0.0
 20
0.0
 30
0.0
  0
VERTEX
  8
OBJECT
 10
4.839692
 20
4.076383
 30
0.0
  0
VERTEX
  8
OBJECT
 10
4.839692
 20
4.117081
 30
0.0
  0
VERTEX
  8
OBJECT
 10
4.56658
 20
4.102768
 30
0.0
 42
0.39896
  0
VERTEX
  8
OBJECT
 10
4.419692
 20
3.94798
 30
0.0
  0
VERTEX
  8
OBJECT
 10
4.419692
 20
1.786182
 30
0.0
 42
0.39896
  0
VERTEX
  8
OBJECT
 10
4.56658
 20
1.631394
 30
0.0
  0
VERTEX
  8
OBJECT
 10
4.839692
 20
1.617081
 30
0.0
  0
SEQEND
  8
OBJECT
  0
POLYLINE
  8
OBJECT
 66
     1
 10
0.0
 20
0.0
 30
0.0
  0
VERTEX
  8
OBJECT
 10
5.219692
 20
1.745556
 30
0.0
  0
VERTEX
  8
OBJECT
 10
5.219692
 20
3.988606
 30
0.0
 42
0.39896
  0
VERTEX
  8
OBJECT
 10
5.109763
 20
4.104447
 30
0.0
  0
VERTEX
  8
OBJECT
 10
4.868692
 20
4.117081
 30
0.0
  0
VERTEX
  8
OBJECT
 10
4.868692
 20
4.074081
 30
0.0
  0
SEQEND
  8
OBJECT
  0
LINE
  8
OBJECT
 10
5.126692
 20
3.942081
 30
0.0
 11
5.126692
 21
3.988606
 31
0.0
  0
LINE
  8
OBJECT
 10
4.512692
 20
3.902539
 30
0.0
 11
4.512692
 21
3.94798
 31
0.0
  0
LINE
  8
OBJECT
 10
4.512692
 20
3.763539
 30
0.0
 11
4.512692
 21
3.840623
 31
0.0
  0
INSERT
  8
OBJECT
  2
*X28
 10
0.0
 20
-0.075768
 30
0.0
1001
ACAD
1000
HATCH
1002
{
1070
    16
1000
PLASTI
1040
0.75
1040
0.785398
1002
}
  0
INSERT
  8
OBJECT
  2
*X29
 10
0.0
 20
-0.075768
 30
0.0
1001
ACAD
1000
HATCH
1002
{
1070
    16
1000
PLASTI
1040
0.75
1040
2.356194
1002
}
  0
DIMENSION
  8
DIM
  2
*D30
 10
4.946692
 20
3.456732
 30
0.0
 11
5.568567
 21
3.456732
 31
0.0
 12
0.0
 22
-0.075768
 32
0.0
 13
4.882692
 23
3.708081
 33
0.0
 14
4.946692
 24
3.708081
 34
0.0
  3
23NSTD
  0
TEXT
  8
TEXT
 10
0.486089
 20
6.274483
 30
0.0
 40
0.125
  1
TO +70%%D C
 41
0.75
  7
TXT
  0
POLYLINE
  8
OBJECT
 66
     1
 10
0.0
 20
0.0
 30
0.0
 70
     4
 75
     6
  0
VERTEX
  8
OBJECT
 10
4.419692
 20
9.950369
 30
0.0
 70
    16
  0
VERTEX
  8
OBJECT
 10
4.419692
 20
9.950369
 30
0.0
 70
     8
  0
VERTEX
  8
OBJECT
 10
4.458913
 20
9.969335
 30
0.0
 70
     8
  0
VERTEX
  8
OBJECT
 10
4.492829
 20
9.980059
 30
0.0
 70
     8
  0
VERTEX
  8
OBJECT
 10
4.52218
 20
9.984139
 30
0.0
 70
     8
  0
VERTEX
  8
OBJECT
 10
4.547704
 20
9.983175
 30
0.0
 70
     8
  0
VERTEX
  8
OBJECT
 10
4.570142
 20
9.978767
 30
0.0
 70
     8
  0
VERTEX
  8
OBJECT
 10
4.590233
 20
9.972513
 30
0.0
 70
     8
  0
VERTEX
  8
OBJECT
 10
4.608718
 20
9.966014
 30
0.0
 70
     8
  0
VERTEX
  8
OBJECT
 10
4.626334
 20
9.960867
 30
0.0
 70
     8
  0
VERTEX
  8
OBJECT
 10
4.643696
 20
9.958303
 30
0.0
 70
     8
  0
VERTEX
  8
OBJECT
 10
4.660899
 20
9.958072
 30
0.0
 70
     8
  0
VERTEX
  8
OBJECT
 10
4.677916
 20
9.959555
 30
0.0
 70
     8
  0
VERTEX
  8
OBJECT
 10
4.694717
 20
9.962131
 30
0.0
 70
     8
  0
VERTEX
  8
OBJECT
 10
4.711271
 20
9.96518
 30
0.0
 70
     8
  0
VERTEX
  8
OBJECT
 10
4.72755
 20
9.968084
 30
0.0
 70
     8
  0
VERTEX
  8
OBJECT
 10
4.743523
 20
9.970223
 30
0.0
 70
     8
  0
VERTEX
  8
OBJECT
 10
4.759161
 20
9.970976
 30
0.0
 70
     8
  0
VERTEX
  8
OBJECT
 10
4.774447
 20
9.969909
 30
0.0
 70
     8
  0
VERTEX
  8
OBJECT
 10
4.789414
 20
9.967319
 30
0.0
 70
     8
  0
VERTEX
  8
OBJECT
 10
4.804108
 20
9.963691
 30
0.0
 70
     8
  0
VERTEX
  8
OBJECT
 10
4.818574
 20
9.959506
 30
0.0
 70
     8
  0
VERTEX
  8
OBJECT
 10
4.832857
 20
9.955249
 30
0.0
 70
     8
  0
VERTEX
  8
OBJECT
 10
4.847004
 20
9.951402
 30
0.0
 70
     8
  0
VERTEX
  8
OBJECT
 10
4.861059
 20
9.948448
 30
0.0
 70
     8
  0
VERTEX
  8
OBJECT
 10
4.875069
 20
9.94687
 30
0.0
 70
     8
  0
VERTEX
  8
OBJECT
 10
4.88909
 20
9.946991
 30
0.0
 70
     8
  0
VERTEX
  8
OBJECT
 10
4.903228
 20
9.948498
 30
0.0
 70
     8
  0
VERTEX
  8
OBJECT
 10
4.917599
 20
9.950916
 30
0.0
 70
     8
  0
VERTEX
  8
OBJECT
 10
4.932317
 20
9.953771
 30
0.0
 70
     8
  0
VERTEX
  8
OBJECT
 10
4.947501
 20
9.95659
 30
0.0
 70
     8
  0
VERTEX
  8
OBJECT
 10
4.963266
 20
9.958899
 30
0.0
 70
     8
  0
VERTEX
  8
OBJECT
 10
4.979729
 20
9.960223
 30
0.0
 70
     8
  0
VERTEX
  8
OBJECT
 10
4.997005
 20
9.960089
 30
0.0
 70
     8
  0
VERTEX
  8
OBJECT
 10
5.015291
 20
9.958234
 30
0.0
 70
     8
  0
VERTEX
  8
OBJECT
 10
5.035107
 20
9.955235
 30
0.0
 70
     8
  0
VERTEX
  8
OBJECT
 10
5.057052
 20
9.951881
 30
0.0
 70
     8
  0
VERTEX
  8
OBJECT
 10
5.081725
 20
9.94896
 30
0.0
 70
     8
  0
VERTEX
  8
OBJECT
 10
5.109726
 20
9.947259
 30
0.0
 70
     8
  0
VERTEX
  8
OBJECT
 10
5.141654
 20
9.947568
 30
0.0
 70
     8
  0
VERTEX
  8
OBJECT
 10
5.17811
 20
9.950675
 30
0.0
 70
     8
  0
VERTEX
  8
OBJECT
 10
5.219692
 20
9.957368
 30
0.0
 70
     8
  0
VERTEX
  8
OBJECT
 10
4.532014
 20
10.013357
 30
0.0
 70
    16
  0
VERTEX
  8
OBJECT
 10
4.627696
 20
9.929373
 30
0.0
 70
    16
  0
VERTEX
  8
OBJECT
 10
4.763051
 20
9.992361
 30
0.0
 70
    16
  0
VERTEX
  8
OBJECT
 10
4.875069
 20
9.92704
 30
0.0
 70
    16
  0
VERTEX
  8
OBJECT
 10
4.987087
 20
9.980697
 30
0.0
 70
    16
  0
VERTEX
  8
OBJECT
 10
5.101438
 20
9.934039
 30
0.0
 70
    16
  0
VERTEX
  8
OBJECT
 10
5.219692
 20
9.957368
 30
0.0
 70
    16
  0
SEQEND
  8
OBJECT
  0
LINE
  8
OBJECT
 10
5.126692
 20
9.947423
 30
0.0
 11
5.126692
 21
11.416586
 31
0.0
  0
LINE
  8
OBJECT
 10
4.902692
 20
9.948441
 30
0.0
 11
4.902692
 21
11.826804
 31
0.0
  0
POLYLINE
  8
OBJECT
 66
     1
 10
0.0
 20
0.0
 30
0.0
  0
VERTEX
  8
OBJECT
 10
4.868692
 20
9.947588
 30
0.0
  0
VERTEX
  8
OBJECT
 10
4.868692
 20
9.371586
 30
0.0
  0
VERTEX
  8
OBJECT
 10
5.109763
 20
9.38422
 30
0.0
 42
0.39896
  0
VERTEX
  8
OBJECT
 10
5.219692
 20
9.500061
 30
0.0
  0
SEQEND
  8
OBJECT
  0
POLYLINE
  8
OBJECT
 66
     1
 10
0.0
 20
0.0
 30
0.0
  0
VERTEX
  8
OBJECT
 10
4.839692
 20
9.371586
 30
0.0
  0
VERTEX
  8
OBJECT
 10
4.839692
 20
9.95339
 30
0.0
  0
SEQEND
  8
OBJECT
  0
LINE
  8
OBJECT
 10
4.512692
 20
9.98282
 30
0.0
 11
4.512692
 21
11.456128
 31
0.0
  0
POLYLINE
  8
OBJECT
 66
     1
 10
0.0
 20
0.0
 30
0.0
  0
VERTEX
  8
OBJECT
 10
4.839692
 20
11.830888
 30
0.0
  0
VERTEX
  8
OBJECT
 10
4.839692
 20
11.871586
 30
0.0
  0
VERTEX
  8
OBJECT
 10
4.56658
 20
11.857273
 30
0.0
 42
0.39896
  0
VERTEX
  8
OBJECT
 10
4.419692
 20
11.702485
 30
0.0
  0
VERTEX
  8
OBJECT
 10
4.419692
 20
9.540687
 30
0.0
 42
0.39896
  0
VERTEX
  8
OBJECT
 10
4.56658
 20
9.385899
 30
0.0
  0
VERTEX
  8
OBJECT
 10
4.839692
 20
9.371586
 30
0.0
  0
SEQEND
  8
OBJECT
  0
POLYLINE
  8
OBJECT
 66
     1
 10
0.0
 20
0.0
 30
0.0
  0
VERTEX
  8
OBJECT
 10
5.219692
 20
9.500061
 30
0.0
  0
VERTEX
  8
OBJECT
 10
5.219692
 20
11.743111
 30
0.0
 42
0.39896
  0
VERTEX
  8
OBJECT
 10
5.109763
 20
11.858952
 30
0.0
  0
VERTEX
  8
OBJECT
 10
4.868692
 20
11.871586
 30
0.0
  0
VERTEX
  8
OBJECT
 10
4.868692
 20
11.829368
 30
0.0
  0
SEQEND
  8
OBJECT
  0
LINE
  8
OBJECT
 10
5.126692
 20
11.696586
 30
0.0
 11
5.126692
 21
11.743111
 31
0.0
  0
LINE
  8
OBJECT
 10
4.512692
 20
11.518044
 30
0.0
 11
4.512692
 21
11.595128
 31
0.0
  0
LINE
  8
OBJECT
 10
4.512692
 20
11.657044
 30
0.0
 11
4.512692
 21
11.702485
 31
0.0
  0
DIMENSION
  8
DIM
  2
*D32
 10
4.946692
 20
11.219208
 30
0.0
 11
5.568567
 21
11.219208
 31
0.0
 13
4.882692
 23
11.462586
 33
0.0
 14
4.946692
 24
11.462586
 34
0.0
  3
23NSTD
  0
INSERT
  8
OBJECT
  2
*X33
 10
0.0
 20
0.0
 30
0.0
1001
ACAD
1000
HATCH
1002
{
1070
    16
1000
PLASTI
1040
0.75
1040
0.785398
1002
}
  0
INSERT
  8
OBJECT
  2
*X34
 10
0.0
 20
0.0
 30
0.0
1001
ACAD
1000
HATCH
1002
{
1070
    16
1000
PLASTI
1040
0.75
1040
2.356194
1002
}
  0
TEXT
  8
TEXT
 10
0.243987
 20
14.6867
 30
0.0
 40
0.125
  1
MATERIAL: ABS THERMOPLASTIC, UL94V-0
 41
0.75
  7
TXT
  0
TEXT
  8
TEXT
 10
0.486089
 20
14.478367
 30
0.0
 40
0.125
  1
FLAMMABILITY RATING (UL FILE #E121562),
 41
0.75
  7
TXT
  0
TEXT
  8
TEXT
 10
0.486089
 20
14.270034
 30
0.0
 40
0.125
  1
SUGGESTED SERVICE TEMPERATURE -20%%D C
 41
0.75
  7
TXT
  0
TEXT
  8
TEXT
 10
0.486089
 20
14.067659
 30
0.0
 40
0.125
  1
TO +70%%D C
 41
0.75
  7
TXT
  0
TEXT
  8
TEXT
 10
0.243987
 20
13.789948
 30
0.0
 40
0.125
  1
FINISH: BLACK TEXTURED
 41
0.75
  7
TXT
  0
ENDSEC
  0
EOF
